SplineFontDB: 3.0
FontName: ArchivoNarrowDevanagari-Regular
FullName: Archivo Narrow Devanagari Regular
FamilyName: Archivo Narrow Devanagari
Weight: Regular
Copyright: Copyright (c) 2012-2014, Omnibus-Type (www.omnibus-type.com omnibus.type@gmail.com) with Reserved Font Name 'Archivo'
Version: 1.004
FONDName: Archivo Narrow Devanagari
ItalicAngle: 0
UnderlinePosition: -100
UnderlineWidth: 50
Ascent: 800
Descent: 200
UFOAscent: 827
UFODescent: -404
LayerCount: 2
Layer: 0 0 "Back"  1
Layer: 1 0 "Fore"  0
FSType: 0
OS2Version: 0
OS2_WeightWidthSlopeOnly: 0
OS2_UseTypoMetrics: 0
CreationTime: 1405895777
ModificationTime: 1405897229
PfmFamily: 0
TTFWeight: 400
TTFWidth: 5
LineGap: 0
VLineGap: 0
Panose: 0 0 0 0 0 0 0 0 0 0
OS2TypoAscent: 827
OS2TypoAOffset: 0
OS2TypoDescent: -404
OS2TypoDOffset: 0
OS2TypoLinegap: 0
OS2WinAscent: 827
OS2WinAOffset: 0
OS2WinDescent: 404
OS2WinDOffset: 0
HheadAscent: 827
HheadAOffset: 0
HheadDescent: -404
HheadDOffset: 0
OS2SubXSize: 700
OS2SubYSize: 650
OS2SubXOff: 0
OS2SubYOff: 140
OS2SupXSize: 700
OS2SupYSize: 650
OS2SupXOff: 0
OS2SupYOff: 477
OS2StrikeYSize: 50
OS2StrikeYPos: 250
OS2Vendor: 'Omni'
OS2CodePages: 20000093.00000000
OS2UnicodeRanges: a000806f.400020fb.00000000.00000000
Lookup: 258 0 0 "'kern' Horizontal Kerning lookup 0"  {"'kern' Horizontal Kerning lookup 0 subtable"  } ['kern' ('DFLT' <'dflt' > ) ]
Lookup: 258 0 0 "'kern' Horizontal Kerning in Latin lookup 0"  {"'kern' Horizontal Kerning in Latin lookup 0 subtable"  } ['kern' ('latn' <'dflt' > ) ]
DEI: 91125
LangName: 1033 "" "" "" "" "" "Version 1.004" "" "" "Hector Gatti, Marcela Romero, Pablo Cosgaya and Nicolas Silva" "Hector Gatti, Marcela Romero, Pablo Cosgaya and Nicolas Silva" "" "http://www.omnibus-type.com" "" "This Font Software is licensed under the SIL Open Font License, Version 1.1. This license is available with a FAQ at: http://scripts.sil.org/OFL" "http://scripts.sil.org/OFL" "" "" "" "Archivo Narrow Devanagari Regular" 
PickledData: "(dp1

StartChar: .notdef
Encoding: 65536 -1 0
Width: 442
VWidth: 0
Flags: W
PickledData: "(dp1
S'org.robofab.postScriptHintData'
p2
(dp3
S'vHints'
p4
((I0
I44
t(I398
I44
ttp5
sS'hHints'
p6
((I0
I44
t(I575
I44
ttp7
ss."
LayerCount: 2
Fore
SplineSet
442 0 m 257
 442 619 l 257
 0 619 l 257
 0 0 l 257
 442 0 l 257
71 575 m 257
 371 575 l 257
 221 349 l 257
 71 575 l 257
44 84 m 257
 44 535 l 257
 194 309 l 257
 44 84 l 257
248 309 m 257
 398 535 l 257
 398 84 l 257
 248 309 l 257
71 44 m 257
 221 270 l 257
 371 44 l 257
 71 44 l 257
EndSplineSet
EndChar

StartChar: A
Encoding: 65 65 1
Width: 484
VWidth: 0
Flags: W
PickledData: "(dp1
S'org.robofab.postScriptHintData'
p2
(dp3
S'vHints'
p4
((I-1
I485
ttp5
sS'hHints'
p6
((I21
I-21
t(I135
I71
t(I543
I63
ttp7
ss."
AnchorPoint: "top" 242 606 basechar 0
AnchorPoint: "ogonek" 435 9 basechar 0
LayerCount: 2
Fore
SplineSet
484 0 m 257
 292 606 l 257
 192 606 l 257
 -1 0 l 257
 77 0 l 257
 118 135 l 257
 359 135 l 257
 400 0 l 257
 484 0 l 257
240 543 m 257
 240 543 248 496 255 476 c 258
 337 206 l 257
 140 206 l 257
 223 476 l 258
 229 495 237 543 237 543 c 257
 240 543 l 257
EndSplineSet
EndChar

StartChar: AE
Encoding: 198 198 2
Width: 725
VWidth: 0
Flags: W
PickledData: "(dp1
S'org.robofab.postScriptHintData'
p2
(dp3
S'vHints'
p4
((I-1
I693
ttp5
sS'hHints'
p6
((I0
I71
t(I135
I71
t(I275
I71
t(I536
I70
ttp7
ss."
AnchorPoint: "top" 362 606 basechar 0
LayerCount: 2
Fore
SplineSet
687 536 m 257
 687 606 l 257
 247 606 l 257
 -1 0 l 257
 77 0 l 257
 129 135 l 257
 370 135 l 257
 400 0 l 257
 692 0 l 257
 692 71 l 257
 468 71 l 257
 422 275 l 257
 648 275 l 257
 648 346 l 257
 406 346 l 257
 362 536 l 257
 687 536 l 257
286 535 m 257
 289 516 291 499 295 480 c 258
 355 206 l 257
 156 206 l 257
 263 480 l 258
 271 499 276 516 282 535 c 257
 286 535 l 257
EndSplineSet
EndChar

StartChar: AEacute
Encoding: 508 508 3
Width: 725
VWidth: 0
Flags: W
PickledData: "(dp1
S'org.robofab.postScriptHintData'
p2
(dp3
S'vHints'
p4
((I-1
I693
ttp5
sS'hHints'
p6
((I0
I71
t(I135
I71
t(I275
I71
t(I536
I70
t(I664
I117
ttp7
ss."
LayerCount: 2
Fore
SplineSet
552 778 m 257
 552 781 l 257
 472 781 l 257
 396 664 l 257
 457 664 l 257
 552 778 l 257
687 536 m 257
 687 606 l 257
 247 606 l 257
 -1 0 l 257
 77 0 l 257
 129 135 l 257
 370 135 l 257
 400 0 l 257
 692 0 l 257
 692 71 l 257
 468 71 l 257
 422 275 l 257
 648 275 l 257
 648 346 l 257
 406 346 l 257
 362 536 l 257
 687 536 l 257
286 535 m 257
 289 516 291 499 295 480 c 258
 355 206 l 257
 156 206 l 257
 263 480 l 258
 271 499 276 516 282 535 c 257
 286 535 l 257
EndSplineSet
EndChar

StartChar: Aacute
Encoding: 193 193 4
Width: 484
VWidth: 0
Flags: W
PickledData: "(dp1
S'org.robofab.postScriptHintData'
p2
(dp3
S'vHints'
p4
((I-1
I485
ttp5
sS'hHints'
p6
((I21
I-21
t(I135
I71
t(I543
I63
t(I664
I117
ttp7
ss."
LayerCount: 2
Fore
SplineSet
346 778 m 257
 345 781 l 257
 265 781 l 257
 189 664 l 257
 250 664 l 257
 346 778 l 257
484 0 m 257
 292 606 l 257
 192 606 l 257
 -1 0 l 257
 77 0 l 257
 118 135 l 257
 359 135 l 257
 400 0 l 257
 484 0 l 257
240 543 m 257
 240 543 248 496 255 476 c 258
 337 206 l 257
 140 206 l 257
 223 476 l 258
 229 495 237 543 237 543 c 257
 240 543 l 257
EndSplineSet
EndChar

StartChar: Abreve
Encoding: 258 258 5
Width: 484
VWidth: 0
Flags: W
PickledData: "(dp1
S'org.robofab.postScriptHintData'
p2
(dp3
S'vHints'
p4
((I-1
I485
ttp5
sS'hHints'
p6
((I21
I-21
t(I135
I71
t(I543
I63
t(I695
I56
ttp7
ss."
LayerCount: 2
Fore
SplineSet
294 781 m 257
 293 768 271 751 241 751 c 256
 212 751 192 768 189 781 c 257
 133 781 l 257
 133 741 174 695 241 695 c 256
 309 695 351 741 351 781 c 257
 294 781 l 257
484 0 m 257
 292 606 l 257
 192 606 l 257
 -1 0 l 257
 77 0 l 257
 118 135 l 257
 359 135 l 257
 400 0 l 257
 484 0 l 257
240 543 m 257
 240 543 248 496 255 476 c 258
 337 206 l 257
 140 206 l 257
 223 476 l 258
 229 495 237 543 237 543 c 257
 240 543 l 257
EndSplineSet
EndChar

StartChar: Acircumflex
Encoding: 194 194 6
Width: 484
VWidth: 0
Flags: W
PickledData: "(dp1
S'org.robofab.postScriptHintData'
p2
(dp3
S'vHints'
p4
((I-1
I485
ttp5
sS'hHints'
p6
((I21
I-21
t(I135
I71
t(I543
I63
t(I660
I120
ttp7
ss."
LayerCount: 2
Fore
SplineSet
352 660 m 257
 277 780 l 257
 208 780 l 257
 132 660 l 257
 202 660 l 257
 242 730 l 257
 281 660 l 257
 352 660 l 257
484 0 m 257
 292 606 l 257
 192 606 l 257
 -1 0 l 257
 77 0 l 257
 118 135 l 257
 359 135 l 257
 400 0 l 257
 484 0 l 257
240 543 m 257
 240 543 248 496 255 476 c 258
 337 206 l 257
 140 206 l 257
 223 476 l 258
 229 495 237 543 237 543 c 257
 240 543 l 257
EndSplineSet
EndChar

StartChar: Adieresis
Encoding: 196 196 7
Width: 484
VWidth: 0
Flags: W
PickledData: "(dp1
S'org.robofab.postScriptHintData'
p2
(dp3
S'vHints'
p4
((I137
I77
t(I270
I77
ttp5
sS'hHints'
p6
((I21
I-21
t(I135
I71
t(I543
I63
t(I697
I84
ttp7
ss."
LayerCount: 2
Fore
SplineSet
214 697 m 257
 214 781 l 257
 137 781 l 257
 137 697 l 257
 214 697 l 257
347 697 m 257
 347 781 l 257
 270 781 l 257
 270 697 l 257
 347 697 l 257
484 0 m 257
 292 606 l 257
 192 606 l 257
 -1 0 l 257
 77 0 l 257
 118 135 l 257
 359 135 l 257
 400 0 l 257
 484 0 l 257
240 543 m 257
 240 543 248 496 255 476 c 258
 337 206 l 257
 140 206 l 257
 223 476 l 258
 229 495 237 543 237 543 c 257
 240 543 l 257
EndSplineSet
EndChar

StartChar: Agrave
Encoding: 192 192 8
Width: 484
VWidth: 0
Flags: W
PickledData: "(dp1
S'org.robofab.postScriptHintData'
p2
(dp3
S'vHints'
p4
((I-1
I485
ttp5
sS'hHints'
p6
((I21
I-21
t(I135
I71
t(I543
I63
t(I664
I117
ttp7
ss."
LayerCount: 2
Fore
SplineSet
294 664 m 257
 218 781 l 257
 139 781 l 257
 138 778 l 257
 233 664 l 257
 294 664 l 257
484 0 m 257
 292 606 l 257
 192 606 l 257
 -1 0 l 257
 77 0 l 257
 118 135 l 257
 359 135 l 257
 400 0 l 257
 484 0 l 257
240 543 m 257
 240 543 248 496 255 476 c 258
 337 206 l 257
 140 206 l 257
 223 476 l 258
 229 495 237 543 237 543 c 257
 240 543 l 257
EndSplineSet
EndChar

StartChar: Amacron
Encoding: 256 256 9
Width: 484
VWidth: 0
Flags: W
PickledData: "(dp1
S'org.robofab.postScriptHintData'
p2
(dp3
S'vHints'
p4
((I131
I222
ttp5
sS'hHints'
p6
((I21
I-21
t(I135
I71
t(I543
I63
t(I671
I64
ttp7
ss."
LayerCount: 2
Fore
SplineSet
353 671 m 257
 353 735 l 257
 131 735 l 257
 131 671 l 257
 353 671 l 257
484 0 m 257
 292 606 l 257
 192 606 l 257
 -1 0 l 257
 77 0 l 257
 118 135 l 257
 359 135 l 257
 400 0 l 257
 484 0 l 257
240 543 m 257
 240 543 248 496 255 476 c 258
 337 206 l 257
 140 206 l 257
 223 476 l 258
 229 495 237 543 237 543 c 257
 240 543 l 257
EndSplineSet
EndChar

StartChar: Aogonek
Encoding: 260 260 10
Width: 484
VWidth: 0
Flags: W
PickledData: "(dp1
S'org.robofab.postScriptHintData'
p2
(dp3
S'replaceTable'
p4
((dp5
S'index'
p6
I0
sS'type'
p7
I255
s(dp8
g6
I0
sg7
I2
s(dp9
g6
I0
sg7
I1
s(dp10
g6
I1
sg7
I1
s(dp11
g6
I2
sg7
I1
s(dp12
g6
I3
sg7
I1
s(dp13
g6
I12
sg7
I255
s(dp14
g6
I0
sg7
I2
s(dp15
g6
I4
sg7
I1
s(dp16
g6
I1
sg7
I1
s(dp17
g6
I2
sg7
I1
s(dp18
g6
I3
sg7
I1
s(dp19
g6
I14
sg7
I255
s(dp20
g6
I0
sg7
I2
s(dp21
g6
I5
sg7
I1
s(dp22
g6
I1
sg7
I1
s(dp23
g6
I2
sg7
I1
s(dp24
g6
I3
sg7
I1
stp25
sS'vHints'
p26
((I394
I69
ttp27
sS'hHints'
p28
((I-149
I46
t(I21
I-21
t(I135
I71
t(I543
I63
t(I-161
I58
t(I-128
I-21
ttp29
ss."
LayerCount: 2
Fore
SplineSet
531 -103 m 257
 504 -103 l 258
 474 -103 463 -80 463 -55 c 256
 463 -30 475 -13 484 0 c 257
 292 606 l 257
 192 606 l 257
 -1 0 l 257
 77 0 l 257
 118 135 l 257
 359 135 l 257
 400 0 l 257
 429 0 l 257
 412 -21 394 -41 394 -81 c 256
 394 -142 439 -161 477 -161 c 256
 495 -161 513 -156 531 -149 c 257
 531 -103 l 257
337 206 m 257
 140 206 l 257
 223 476 l 258
 229 495 237 543 237 543 c 257
 240 543 l 257
 240 543 248 496 255 476 c 258
 337 206 l 257
EndSplineSet
EndChar

StartChar: Aring
Encoding: 197 197 11
Width: 484
VWidth: 0
Flags: W
PickledData: "(dp1
S'org.robofab.postScriptHintData'
p2
(dp3
S'vHints'
p4
((I156
I40
t(I286
I40
ttp5
sS'hHints'
p6
((I21
I-21
t(I135
I71
t(I543
I63
t(I639
I40
t(I769
I40
ttp7
ss."
LayerCount: 2
Fore
SplineSet
241 809 m 256
 194 809 156 771 156 724 c 256
 156 676 195 639 241 639 c 256
 289 639 326 677 326 724 c 256
 326 770 290 809 241 809 c 256
241 769 m 256
 265 769 286 749 286 724 c 256
 286 699 265 679 241 679 c 256
 217 679 196 699 196 724 c 256
 196 749 217 769 241 769 c 256
484 0 m 257
 292 606 l 257
 192 606 l 257
 -1 0 l 257
 77 0 l 257
 118 135 l 257
 359 135 l 257
 400 0 l 257
 484 0 l 257
240 543 m 257
 240 543 248 496 255 476 c 258
 337 206 l 257
 140 206 l 257
 223 476 l 258
 229 495 237 543 237 543 c 257
 240 543 l 257
EndSplineSet
EndChar

StartChar: Aringacute
Encoding: 506 506 12
Width: 484
VWidth: 0
Flags: W
PickledData: "(dp1
S'org.robofab.postScriptHintData'
p2
(dp3
S'replaceTable'
p4
((dp5
S'index'
p6
I0
sS'type'
p7
I255
s(dp8
g6
I0
sg7
I2
s(dp9
g6
I1
sg7
I2
s(dp10
g6
I0
sg7
I1
s(dp11
g6
I1
sg7
I1
s(dp12
g6
I2
sg7
I1
s(dp13
g6
I3
sg7
I1
s(dp14
g6
I12
sg7
I255
s(dp15
g6
I0
sg7
I2
s(dp16
g6
I1
sg7
I2
s(dp17
g6
I0
sg7
I1
s(dp18
g6
I1
sg7
I1
s(dp19
g6
I2
sg7
I1
stp20
sS'vHints'
p21
((I157
I40
t(I287
I40
ttp22
sS'hHints'
p23
((I21
I-21
t(I135
I71
t(I688
I38
t(I750
I96
ttp24
ss."
LayerCount: 2
Fore
SplineSet
358 842 m 257
 357 846 l 257
 278 846 l 257
 215 750 l 257
 276 750 l 257
 358 842 l 257
-1 0 m 257
 77 0 l 257
 118 135 l 257
 359 135 l 257
 400 0 l 257
 484 0 l 257
 299 583 l 257
 316 598 327 620 327 644 c 256
 327 689 290 726 242 726 c 256
 195 726 157 690 157 644 c 256
 157 620 168 598 185 584 c 257
 -1 0 l 257
242 688 m 256
 266 688 287 668 287 644 c 256
 287 621 266 601 242 601 c 256
 217 601 197 621 197 644 c 256
 197 668 217 688 242 688 c 256
240 543 m 257
 240 543 248 496 255 476 c 258
 337 206 l 257
 140 206 l 257
 223 476 l 258
 229 495 237 543 237 543 c 257
 240 543 l 257
EndSplineSet
EndChar

StartChar: Atilde
Encoding: 195 195 13
Width: 484
VWidth: 0
Flags: W
PickledData: "(dp1
S'org.robofab.postScriptHintData'
p2
(dp3
S'replaceTable'
p4
((dp5
S'index'
p6
I0
sS'type'
p7
I255
s(dp8
g6
I0
sg7
I2
s(dp9
g6
I0
sg7
I1
s(dp10
g6
I1
sg7
I1
s(dp11
g6
I2
sg7
I1
s(dp12
g6
I3
sg7
I1
s(dp13
g6
I1
sg7
I255
s(dp14
g6
I0
sg7
I2
s(dp15
g6
I0
sg7
I1
s(dp16
g6
I1
sg7
I1
s(dp17
g6
I2
sg7
I1
s(dp18
g6
I4
sg7
I1
s(dp19
g6
I2
sg7
I255
s(dp20
g6
I0
sg7
I2
s(dp21
g6
I0
sg7
I1
s(dp22
g6
I1
sg7
I1
s(dp23
g6
I2
sg7
I1
s(dp24
g6
I3
sg7
I1
s(dp25
g6
I3
sg7
I255
s(dp26
g6
I0
sg7
I2
s(dp27
g6
I0
sg7
I1
s(dp28
g6
I1
sg7
I1
s(dp29
g6
I2
sg7
I1
s(dp30
g6
I4
sg7
I1
s(dp31
g6
I5
sg7
I255
s(dp32
g6
I0
sg7
I2
s(dp33
g6
I0
sg7
I1
s(dp34
g6
I1
sg7
I1
s(dp35
g6
I2
sg7
I1
s(dp36
g6
I3
sg7
I1
s(dp37
g6
I6
sg7
I255
s(dp38
g6
I0
sg7
I2
s(dp39
g6
I0
sg7
I1
s(dp40
g6
I1
sg7
I1
s(dp41
g6
I2
sg7
I1
s(dp42
g6
I4
sg7
I1
s(dp43
g6
I7
sg7
I255
s(dp44
g6
I0
sg7
I2
s(dp45
g6
I0
sg7
I1
s(dp46
g6
I1
sg7
I1
s(dp47
g6
I2
sg7
I1
s(dp48
g6
I3
sg7
I1
stp49
sS'vHints'
p50
((I-1
I485
ttp51
sS'hHints'
p52
((I21
I-21
t(I135
I71
t(I543
I63
t(I716
I65
t(I689
I65
ttp53
ss."
LayerCount: 2
Fore
SplineSet
319 781 m 257
 316 760 305 754 289 754 c 256
 255 754 225 781 187 781 c 256
 134 781 112 729 112 689 c 257
 164 689 l 257
 166 709 178 716 194 716 c 256
 228 716 257 689 295 689 c 256
 349 689 370 740 370 781 c 257
 319 781 l 257
484 0 m 257
 292 606 l 257
 192 606 l 257
 -1 0 l 257
 77 0 l 257
 118 135 l 257
 359 135 l 257
 400 0 l 257
 484 0 l 257
240 543 m 257
 240 543 248 496 255 476 c 258
 337 206 l 257
 140 206 l 257
 223 476 l 258
 229 495 237 543 237 543 c 257
 240 543 l 257
EndSplineSet
EndChar

StartChar: B
Encoding: 66 66 14
Width: 484
VWidth: 0
Flags: W
PickledData: "(dp1
S'org.robofab.postScriptHintData'
p2
(dp3
S'replaceTable'
p4
((dp5
S'index'
p6
I0
sS'type'
p7
I255
s(dp8
g6
I0
sg7
I2
s(dp9
g6
I1
sg7
I2
s(dp10
g6
I0
sg7
I1
s(dp11
g6
I1
sg7
I1
s(dp12
g6
I2
sg7
I1
s(dp13
g6
I6
sg7
I255
s(dp14
g6
I0
sg7
I2
s(dp15
g6
I2
sg7
I2
s(dp16
g6
I0
sg7
I1
s(dp17
g6
I1
sg7
I1
s(dp18
g6
I2
sg7
I1
s(dp19
g6
I15
sg7
I255
s(dp20
g6
I0
sg7
I2
s(dp21
g6
I1
sg7
I2
s(dp22
g6
I0
sg7
I1
s(dp23
g6
I1
sg7
I1
s(dp24
g6
I2
sg7
I1
stp25
sS'vHints'
p26
((I57
I78
t(I377
I81
t(I362
I82
ttp27
sS'hHints'
p28
((I0
I71
t(I275
I71
t(I536
I70
ttp29
ss."
LayerCount: 2
Fore
SplineSet
57 606 m 257
 57 0 l 257
 287 0 l 258
 380 0 458 59 458 161 c 256
 458 239 411 296 351 315 c 257
 351 318 l 257
 403 337 444 388 444 458 c 256
 444 547 377 606 287 606 c 258
 57 606 l 257
135 536 m 257
 270 536 l 258
 325 536 362 505 362 441 c 256
 362 390 324 346 264 346 c 258
 135 346 l 257
 135 536 l 257
135 275 m 257
 271 275 l 258
 336 275 377 226 377 171 c 256
 377 106 334 71 277 71 c 258
 135 71 l 257
 135 275 l 257
EndSplineSet
EndChar

StartChar: C
Encoding: 67 67 15
Width: 523
VWidth: 0
Flags: W
PickledData: "(dp1
S'org.robofab.postScriptHintData'
p2
(dp3
S'vHints'
p4
((I37
I81
t(I410
I77
ttp5
sS'hHints'
p6
((I-11
I72
t(I545
I72
ttp7
ss."
AnchorPoint: "top" 262 606 basechar 0
AnchorPoint: "bottom" 262 0 basechar 0
LayerCount: 2
Fore
SplineSet
410 217 m 257
 410 112 357 61 276 61 c 256
 170 61 118 133 118 281 c 258
 118 325 l 258
 118 473 170 545 276 545 c 256
 355 545 408 493 408 387 c 257
 487 387 l 257
 487 542 400 617 276 617 c 256
 118 617 37 514 37 303 c 256
 37 93 118 -11 276 -11 c 256
 400 -11 487 61 487 217 c 257
 410 217 l 257
EndSplineSet
EndChar

StartChar: Cacute
Encoding: 262 262 17
Width: 523
VWidth: 0
Flags: W
PickledData: "(dp1
S'org.robofab.postScriptHintData'
p2
(dp3
S'vHints'
p4
((I37
I81
t(I410
I77
ttp5
sS'hHints'
p6
((I-11
I72
t(I545
I72
t(I664
I117
ttp7
ss."
LayerCount: 2
Fore
SplineSet
378 778 m 257
 377 781 l 257
 298 781 l 257
 222 664 l 257
 283 664 l 257
 378 778 l 257
410 217 m 257
 410 112 357 61 276 61 c 256
 170 61 118 133 118 281 c 258
 118 325 l 258
 118 473 170 545 276 545 c 256
 355 545 408 493 408 387 c 257
 487 387 l 257
 487 542 400 617 276 617 c 256
 118 617 37 514 37 303 c 256
 37 93 118 -11 276 -11 c 256
 400 -11 487 61 487 217 c 257
 410 217 l 257
EndSplineSet
EndChar

StartChar: Ccaron
Encoding: 268 268 18
Width: 523
VWidth: 0
Flags: W
PickledData: "(dp1
S'org.robofab.postScriptHintData'
p2
(dp3
S'vHints'
p4
((I37
I81
t(I410
I77
ttp5
sS'hHints'
p6
((I-11
I72
t(I545
I72
t(I661
I120
ttp7
ss."
LayerCount: 2
Fore
SplineSet
295 661 m 257
 372 781 l 257
 301 781 l 257
 262 711 l 257
 222 781 l 257
 151 781 l 257
 226 661 l 257
 295 661 l 257
410 217 m 257
 410 112 357 61 276 61 c 256
 170 61 118 133 118 281 c 258
 118 325 l 258
 118 473 170 545 276 545 c 256
 355 545 408 493 408 387 c 257
 487 387 l 257
 487 542 400 617 276 617 c 256
 118 617 37 514 37 303 c 256
 37 93 118 -11 276 -11 c 256
 400 -11 487 61 487 217 c 257
 410 217 l 257
EndSplineSet
EndChar

StartChar: Ccedilla
Encoding: 199 199 19
Width: 523
VWidth: 0
Flags: W
PickledData: "(dp1
S'org.robofab.postScriptHintData'
p2
(dp3
S'replaceTable'
p4
((dp5
S'index'
p6
I0
sS'type'
p7
I255
s(dp8
g6
I0
sg7
I2
s(dp9
g6
I1
sg7
I2
s(dp10
g6
I2
sg7
I2
s(dp11
g6
I0
sg7
I1
s(dp12
g6
I1
sg7
I1
s(dp13
g6
I2
sg7
I1
s(dp14
g6
I3
sg7
I1
s(dp15
g6
I9
sg7
I255
s(dp16
g6
I0
sg7
I2
s(dp17
g6
I1
sg7
I2
s(dp18
g6
I2
sg7
I2
s(dp19
g6
I0
sg7
I1
s(dp20
g6
I2
sg7
I1
s(dp21
g6
I3
sg7
I1
s(dp22
g6
I20
sg7
I255
s(dp23
g6
I0
sg7
I2
s(dp24
g6
I1
sg7
I2
s(dp25
g6
I2
sg7
I2
s(dp26
g6
I0
sg7
I1
s(dp27
g6
I4
sg7
I1
s(dp28
g6
I3
sg7
I1
stp29
sS'vHints'
p30
((I37
I81
t(I278
I67
t(I410
I77
ttp31
sS'hHints'
p32
((I-154
I43
t(I-68
I36
t(I-11
I72
t(I545
I72
t(I14
I-21
ttp33
ss."
LayerCount: 2
Fore
SplineSet
218 -68 m 257
 248 -68 l 258
 271 -68 278 -75 278 -89 c 256
 278 -106 265 -111 246 -111 c 258
 179 -111 l 257
 179 -154 l 257
 200 -158 228 -161 253 -161 c 256
 289 -161 345 -149 345 -89 c 256
 345 -49 311 -34 273 -32 c 257
 276 -11 l 257
 400 -11 487 61 487 217 c 257
 410 217 l 257
 410 112 357 61 276 61 c 256
 170 61 118 133 118 281 c 258
 118 325 l 258
 118 473 170 545 276 545 c 256
 355 545 408 493 408 387 c 257
 487 387 l 257
 487 542 400 617 276 617 c 256
 118 617 37 514 37 303 c 256
 37 115 102 12 228 -7 c 257
 218 -68 l 257
EndSplineSet
EndChar

StartChar: Ccircumflex
Encoding: 264 264 20
Width: 523
VWidth: 0
Flags: W
PickledData: "(dp1
S'org.robofab.postScriptHintData'
p2
(dp3
S'vHints'
p4
((I37
I81
t(I410
I77
ttp5
sS'hHints'
p6
((I-11
I72
t(I545
I72
t(I660
I120
ttp7
ss."
LayerCount: 2
Fore
SplineSet
372 660 m 257
 296 780 l 257
 227 780 l 257
 151 660 l 257
 222 660 l 257
 263 730 l 257
 301 660 l 257
 372 660 l 257
410 217 m 257
 410 112 357 61 276 61 c 256
 170 61 118 133 118 281 c 258
 118 325 l 258
 118 473 170 545 276 545 c 256
 355 545 408 493 408 387 c 257
 487 387 l 257
 487 542 400 617 276 617 c 256
 118 617 37 514 37 303 c 256
 37 93 118 -11 276 -11 c 256
 400 -11 487 61 487 217 c 257
 410 217 l 257
EndSplineSet
EndChar

StartChar: Cdotaccent
Encoding: 266 266 21
Width: 523
VWidth: 0
Flags: W
PickledData: "(dp1
S'org.robofab.postScriptHintData'
p2
(dp3
S'vHints'
p4
((I37
I81
t(I223
I78
t(I410
I77
ttp5
sS'hHints'
p6
((I-11
I72
t(I545
I72
t(I697
I84
ttp7
ss."
LayerCount: 2
Fore
SplineSet
301 697 m 257
 301 781 l 257
 223 781 l 257
 223 697 l 257
 301 697 l 257
410 217 m 257
 410 112 357 61 276 61 c 256
 170 61 118 133 118 281 c 258
 118 325 l 258
 118 473 170 545 276 545 c 256
 355 545 408 493 408 387 c 257
 487 387 l 257
 487 542 400 617 276 617 c 256
 118 617 37 514 37 303 c 256
 37 93 118 -11 276 -11 c 256
 400 -11 487 61 487 217 c 257
 410 217 l 257
EndSplineSet
EndChar

StartChar: D
Encoding: 68 68 22
Width: 523
VWidth: 0
Flags: W
PickledData: "(dp1
S'org.robofab.postScriptHintData'
p2
(dp3
S'vHints'
p4
((I62
I78
t(I399
I81
ttp5
sS'hHints'
p6
((I0
I71
t(I536
I70
ttp7
ss."
AnchorPoint: "top" 262 606 basechar 0
AnchorPoint: "center" 262 303 basechar 0
LayerCount: 2
Fore
SplineSet
62 606 m 257
 62 0 l 257
 250 0 l 258
 393 0 480 104 480 312 c 256
 480 507 393 606 250 606 c 258
 62 606 l 257
140 536 m 257
 243 536 l 258
 339 536 399 469 399 334 c 258
 399 290 l 258
 399 142 339 71 243 71 c 258
 140 71 l 257
 140 536 l 257
EndSplineSet
EndChar

StartChar: Dcaron
Encoding: 270 270 23
Width: 523
VWidth: 0
Flags: W
PickledData: "(dp1
S'org.robofab.postScriptHintData'
p2
(dp3
S'vHints'
p4
((I62
I78
t(I399
I81
ttp5
sS'hHints'
p6
((I0
I71
t(I536
I70
t(I661
I120
ttp7
ss."
LayerCount: 2
Fore
SplineSet
295 661 m 257
 372 781 l 257
 301 781 l 257
 262 711 l 257
 222 781 l 257
 151 781 l 257
 226 661 l 257
 295 661 l 257
62 606 m 257
 62 0 l 257
 250 0 l 258
 393 0 480 104 480 312 c 256
 480 507 393 606 250 606 c 258
 62 606 l 257
140 536 m 257
 243 536 l 258
 339 536 399 469 399 334 c 258
 399 290 l 258
 399 142 339 71 243 71 c 258
 140 71 l 257
 140 536 l 257
EndSplineSet
EndChar

StartChar: Dcroat
Encoding: 272 272 24
Width: 523
VWidth: 0
Flags: W
PickledData: "(dp1
S'org.robofab.postScriptHintData'
p2
(dp3
S'vHints'
p4
((I62
I78
t(I399
I81
ttp5
sS'hHints'
p6
((I0
I71
t(I286
I56
t(I536
I70
ttp7
ss."
LayerCount: 2
Fore
SplineSet
62 606 m 257
 62 342 l 257
 4 342 l 257
 4 286 l 257
 62 286 l 257
 62 0 l 257
 250 0 l 258
 393 0 480 104 480 312 c 256
 480 507 393 606 250 606 c 258
 62 606 l 257
140 536 m 257
 243 536 l 258
 339 536 399 469 399 334 c 258
 399 290 l 258
 399 142 339 71 243 71 c 258
 140 71 l 257
 140 286 l 257
 278 286 l 257
 278 342 l 257
 140 342 l 257
 140 536 l 257
EndSplineSet
EndChar

StartChar: Delta
Encoding: 916 916 25
Width: 494
VWidth: 0
Flags: W
PickledData: "(dp1
S'org.robofab.postScriptHintData'
p2
(dp3
S'replaceTable'
p4
((dp5
S'index'
p6
I0
sS'type'
p7
I255
s(dp8
g6
I0
sg7
I2
s(dp9
g6
I0
sg7
I1
s(dp10
g6
I1
sg7
I1
s(dp11
g6
I6
sg7
I255
s(dp12
g6
I0
sg7
I2
s(dp13
g6
I0
sg7
I1
s(dp14
g6
I2
sg7
I1
stp15
sS'vHints'
p16
((I14
I470
ttp17
sS'hHints'
p18
((I0
I74
t(I606
I-20
t(I521
I85
ttp19
ss."
LayerCount: 2
Fore
SplineSet
484 34 m 257
 299 606 l 257
 199 606 l 257
 14 34 l 257
 14 0 l 257
 484 0 l 257
 484 34 l 257
245 521 m 257
 248 521 l 257
 385 74 l 257
 103 74 l 257
 245 521 l 257
EndSplineSet
EndChar

StartChar: E
Encoding: 69 69 26
Width: 484
VWidth: 0
Flags: W
PickledData: "(dp1
S'org.robofab.postScriptHintData'
p2
(dp3
S'vHints'
p4
((I62
I78
ttp5
sS'hHints'
p6
((I0
I71
t(I275
I71
t(I536
I70
ttp7
ss."
AnchorPoint: "top" 242 606 basechar 0
AnchorPoint: "ogonek" 435 9 basechar 0
AnchorPoint: "bottom" 242 0 basechar 0
LayerCount: 2
Fore
SplineSet
436 536 m 257
 436 606 l 257
 62 606 l 257
 62 0 l 257
 441 0 l 257
 441 71 l 257
 140 71 l 257
 140 275 l 257
 397 275 l 257
 397 346 l 257
 140 346 l 257
 140 536 l 257
 436 536 l 257
EndSplineSet
EndChar

StartChar: Eacute
Encoding: 201 201 27
Width: 484
VWidth: 0
Flags: W
PickledData: "(dp1
S'org.robofab.postScriptHintData'
p2
(dp3
S'vHints'
p4
((I62
I78
ttp5
sS'hHints'
p6
((I0
I71
t(I275
I71
t(I536
I70
t(I664
I117
ttp7
ss."
LayerCount: 2
Fore
SplineSet
346 778 m 257
 345 781 l 257
 265 781 l 257
 189 664 l 257
 250 664 l 257
 346 778 l 257
436 536 m 257
 436 606 l 257
 62 606 l 257
 62 0 l 257
 441 0 l 257
 441 71 l 257
 140 71 l 257
 140 275 l 257
 397 275 l 257
 397 346 l 257
 140 346 l 257
 140 536 l 257
 436 536 l 257
EndSplineSet
EndChar

StartChar: Ebreve
Encoding: 276 276 28
Width: 484
VWidth: 0
Flags: W
PickledData: "(dp1
S'org.robofab.postScriptHintData'
p2
(dp3
S'vHints'
p4
((I62
I78
ttp5
sS'hHints'
p6
((I0
I71
t(I275
I71
t(I536
I70
t(I695
I56
ttp7
ss."
LayerCount: 2
Fore
SplineSet
294 781 m 257
 293 768 271 751 241 751 c 256
 212 751 192 768 189 781 c 257
 133 781 l 257
 133 741 174 695 241 695 c 256
 309 695 351 741 351 781 c 257
 294 781 l 257
436 536 m 257
 436 606 l 257
 62 606 l 257
 62 0 l 257
 441 0 l 257
 441 71 l 257
 140 71 l 257
 140 275 l 257
 397 275 l 257
 397 346 l 257
 140 346 l 257
 140 536 l 257
 436 536 l 257
EndSplineSet
EndChar

StartChar: Ecaron
Encoding: 282 282 29
Width: 484
VWidth: 0
Flags: W
PickledData: "(dp1
S'org.robofab.postScriptHintData'
p2
(dp3
S'vHints'
p4
((I62
I78
ttp5
sS'hHints'
p6
((I0
I71
t(I275
I71
t(I536
I70
t(I661
I120
ttp7
ss."
LayerCount: 2
Fore
SplineSet
276 661 m 257
 352 781 l 257
 281 781 l 257
 241 711 l 257
 202 781 l 257
 132 781 l 257
 207 661 l 257
 276 661 l 257
436 536 m 257
 436 606 l 257
 62 606 l 257
 62 0 l 257
 441 0 l 257
 441 71 l 257
 140 71 l 257
 140 275 l 257
 397 275 l 257
 397 346 l 257
 140 346 l 257
 140 536 l 257
 436 536 l 257
EndSplineSet
EndChar

StartChar: Ecircumflex
Encoding: 202 202 30
Width: 484
VWidth: 0
Flags: W
PickledData: "(dp1
S'org.robofab.postScriptHintData'
p2
(dp3
S'vHints'
p4
((I62
I78
ttp5
sS'hHints'
p6
((I0
I71
t(I275
I71
t(I536
I70
t(I660
I120
ttp7
ss."
LayerCount: 2
Fore
SplineSet
352 660 m 257
 277 780 l 257
 208 780 l 257
 132 660 l 257
 202 660 l 257
 242 730 l 257
 281 660 l 257
 352 660 l 257
436 536 m 257
 436 606 l 257
 62 606 l 257
 62 0 l 257
 441 0 l 257
 441 71 l 257
 140 71 l 257
 140 275 l 257
 397 275 l 257
 397 346 l 257
 140 346 l 257
 140 536 l 257
 436 536 l 257
EndSplineSet
EndChar

StartChar: Edieresis
Encoding: 203 203 31
Width: 484
VWidth: 0
Flags: W
PickledData: "(dp1
S'org.robofab.postScriptHintData'
p2
(dp3
S'replaceTable'
p4
((dp5
S'index'
p6
I0
sS'type'
p7
I255
s(dp8
g6
I0
sg7
I2
s(dp9
g6
I1
sg7
I2
s(dp10
g6
I0
sg7
I1
s(dp11
g6
I1
sg7
I1
s(dp12
g6
I2
sg7
I1
s(dp13
g6
I3
sg7
I1
s(dp14
g6
I10
sg7
I255
s(dp15
g6
I2
sg7
I2
s(dp16
g6
I1
sg7
I2
s(dp17
g6
I0
sg7
I1
s(dp18
g6
I1
sg7
I1
s(dp19
g6
I2
sg7
I1
s(dp20
g6
I3
sg7
I1
stp21
sS'vHints'
p22
((I137
I77
t(I270
I77
t(I62
I78
ttp23
sS'hHints'
p24
((I0
I71
t(I275
I71
t(I536
I70
t(I697
I84
ttp25
ss."
LayerCount: 2
Fore
SplineSet
214 697 m 257
 214 781 l 257
 137 781 l 257
 137 697 l 257
 214 697 l 257
347 697 m 257
 347 781 l 257
 270 781 l 257
 270 697 l 257
 347 697 l 257
436 536 m 257
 436 606 l 257
 62 606 l 257
 62 0 l 257
 441 0 l 257
 441 71 l 257
 140 71 l 257
 140 275 l 257
 397 275 l 257
 397 346 l 257
 140 346 l 257
 140 536 l 257
 436 536 l 257
EndSplineSet
EndChar

StartChar: Edotaccent
Encoding: 278 278 32
Width: 484
VWidth: 0
Flags: W
PickledData: "(dp1
S'org.robofab.postScriptHintData'
p2
(dp3
S'vHints'
p4
((I62
I78
t(I203
I77
ttp5
sS'hHints'
p6
((I0
I71
t(I275
I71
t(I536
I70
t(I697
I84
ttp7
ss."
LayerCount: 2
Fore
SplineSet
280 697 m 257
 280 781 l 257
 203 781 l 257
 203 697 l 257
 280 697 l 257
436 536 m 257
 436 606 l 257
 62 606 l 257
 62 0 l 257
 441 0 l 257
 441 71 l 257
 140 71 l 257
 140 275 l 257
 397 275 l 257
 397 346 l 257
 140 346 l 257
 140 536 l 257
 436 536 l 257
EndSplineSet
EndChar

StartChar: Egrave
Encoding: 200 200 33
Width: 484
VWidth: 0
Flags: W
PickledData: "(dp1
S'org.robofab.postScriptHintData'
p2
(dp3
S'vHints'
p4
((I62
I78
ttp5
sS'hHints'
p6
((I0
I71
t(I275
I71
t(I536
I70
t(I664
I117
ttp7
ss."
LayerCount: 2
Fore
SplineSet
294 664 m 257
 218 781 l 257
 139 781 l 257
 138 778 l 257
 233 664 l 257
 294 664 l 257
436 536 m 257
 436 606 l 257
 62 606 l 257
 62 0 l 257
 441 0 l 257
 441 71 l 257
 140 71 l 257
 140 275 l 257
 397 275 l 257
 397 346 l 257
 140 346 l 257
 140 536 l 257
 436 536 l 257
EndSplineSet
EndChar

StartChar: Emacron
Encoding: 274 274 34
Width: 484
VWidth: 0
Flags: W
PickledData: "(dp1
S'org.robofab.postScriptHintData'
p2
(dp3
S'replaceTable'
p4
((dp5
S'index'
p6
I0
sS'type'
p7
I255
s(dp8
g6
I0
sg7
I2
s(dp9
g6
I0
sg7
I1
s(dp10
g6
I1
sg7
I1
s(dp11
g6
I2
sg7
I1
s(dp12
g6
I3
sg7
I1
s(dp13
g6
I6
sg7
I255
s(dp14
g6
I1
sg7
I2
s(dp15
g6
I0
sg7
I1
s(dp16
g6
I1
sg7
I1
s(dp17
g6
I2
sg7
I1
s(dp18
g6
I3
sg7
I1
stp19
sS'vHints'
p20
((I131
I222
t(I62
I78
ttp21
sS'hHints'
p22
((I0
I71
t(I275
I71
t(I536
I70
t(I671
I64
ttp23
ss."
LayerCount: 2
Fore
SplineSet
353 671 m 257
 353 735 l 257
 131 735 l 257
 131 671 l 257
 353 671 l 257
436 536 m 257
 436 606 l 257
 62 606 l 257
 62 0 l 257
 441 0 l 257
 441 71 l 257
 140 71 l 257
 140 275 l 257
 397 275 l 257
 397 346 l 257
 140 346 l 257
 140 536 l 257
 436 536 l 257
EndSplineSet
EndChar

StartChar: Eng
Encoding: 330 330 35
Width: 523
VWidth: 0
Flags: W
PickledData: "(dp1
S'org.robofab.postScriptHintData'
p2
(dp3
S'replaceTable'
p4
((dp5
S'index'
p6
I0
sS'type'
p7
I255
s(dp8
g6
I0
sg7
I2
s(dp9
g6
I1
sg7
I2
s(dp10
g6
I0
sg7
I1
s(dp11
g6
I1
sg7
I1
s(dp12
g6
I2
sg7
I1
s(dp13
g6
I15
sg7
I255
s(dp14
g6
I0
sg7
I2
s(dp15
g6
I1
sg7
I2
s(dp16
g6
I3
sg7
I1
s(dp17
g6
I1
sg7
I1
s(dp18
g6
I2
sg7
I1
s(dp19
g6
I19
sg7
I255
s(dp20
g6
I0
sg7
I2
s(dp21
g6
I1
sg7
I2
s(dp22
g6
I4
sg7
I1
s(dp23
g6
I1
sg7
I1
s(dp24
g6
I2
sg7
I1
stp25
sS'vHints'
p26
((I62
I70
t(I389
I72
ttp27
sS'hHints'
p28
((I-129
I-21
t(I21
I-21
t(I606
I-20
t(I-150
I50
t(I-161
I61
ttp29
ss."
LayerCount: 2
Fore
SplineSet
461 606 m 257
 389 606 l 257
 389 225 l 257
 392 206 394 145 394 145 c 257
 392 144 l 257
 392 144 368 202 354 225 c 258
 129 606 l 257
 62 606 l 257
 62 0 l 257
 132 0 l 257
 132 386 l 258
 132 411 128 467 128 467 c 257
 131 468 l 257
 131 468 155 412 170 386 c 258
 389 13 l 257
 389 -57 l 258
 389 -85 375 -100 347 -100 c 258
 309 -100 l 257
 309 -150 l 257
 324 -156 348 -161 370 -161 c 256
 440 -161 461 -107 461 -54 c 258
 461 606 l 257
EndSplineSet
EndChar

StartChar: Eogonek
Encoding: 280 280 36
Width: 484
VWidth: 0
Flags: W
PickledData: "(dp1
S'org.robofab.postScriptHintData'
p2
(dp3
S'replaceTable'
p4
((dp5
S'index'
p6
I0
sS'type'
p7
I255
s(dp8
g6
I0
sg7
I2
s(dp9
g6
I1
sg7
I2
s(dp10
g6
I0
sg7
I1
s(dp11
g6
I1
sg7
I1
s(dp12
g6
I2
sg7
I1
s(dp13
g6
I3
sg7
I1
s(dp14
g6
I5
sg7
I255
s(dp15
g6
I0
sg7
I2
s(dp16
g6
I1
sg7
I2
s(dp17
g6
I4
sg7
I1
s(dp18
g6
I1
sg7
I1
s(dp19
g6
I2
sg7
I1
s(dp20
g6
I3
sg7
I1
s(dp21
g6
I7
sg7
I255
s(dp22
g6
I0
sg7
I2
s(dp23
g6
I1
sg7
I2
s(dp24
g6
I0
sg7
I1
s(dp25
g6
I1
sg7
I1
s(dp26
g6
I2
sg7
I1
s(dp27
g6
I3
sg7
I1
s(dp28
g6
I8
sg7
I255
s(dp29
g6
I0
sg7
I2
s(dp30
g6
I1
sg7
I2
s(dp31
g6
I5
sg7
I1
s(dp32
g6
I1
sg7
I1
s(dp33
g6
I2
sg7
I1
s(dp34
g6
I3
sg7
I1
stp35
sS'vHints'
p36
((I62
I78
t(I351
I69
ttp37
sS'hHints'
p38
((I-128
I-21
t(I0
I71
t(I275
I71
t(I536
I70
t(I-161
I58
t(I-149
I46
ttp39
ss."
LayerCount: 2
Fore
SplineSet
436 536 m 257
 436 606 l 257
 62 606 l 257
 62 0 l 257
 384 0 l 257
 365 -20 351 -44 351 -81 c 256
 351 -142 396 -161 434 -161 c 256
 452 -161 469 -156 488 -149 c 257
 488 -103 l 257
 461 -103 l 258
 431 -103 420 -80 420 -55 c 256
 420 -34 431 -13 441 0 c 257
 441 71 l 257
 140 71 l 257
 140 275 l 257
 397 275 l 257
 397 346 l 257
 140 346 l 257
 140 536 l 257
 436 536 l 257
EndSplineSet
EndChar

StartChar: Eth
Encoding: 208 208 37
Width: 523
VWidth: 0
Flags: W
PickledData: "(dp1
S'org.robofab.postScriptHintData'
p2
(dp3
S'vHints'
p4
((I62
I78
t(I399
I81
ttp5
sS'hHints'
p6
((I0
I71
t(I286
I56
t(I536
I70
ttp7
ss."
LayerCount: 2
Fore
SplineSet
62 606 m 257
 62 342 l 257
 4 342 l 257
 4 286 l 257
 62 286 l 257
 62 0 l 257
 250 0 l 258
 393 0 480 104 480 312 c 256
 480 507 393 606 250 606 c 258
 62 606 l 257
140 536 m 257
 243 536 l 258
 339 536 399 469 399 334 c 258
 399 290 l 258
 399 142 339 71 243 71 c 258
 140 71 l 257
 140 286 l 257
 278 286 l 257
 278 342 l 257
 140 342 l 257
 140 536 l 257
EndSplineSet
EndChar

StartChar: Euro
Encoding: 8364 8364 38
Width: 403
VWidth: 0
Flags: W
PickledData: "(dp1
S'org.robofab.postScriptHintData'
p2
(dp3
S'vHints'
p4
((I66
I74
ttp5
sS'hHints'
p6
((I-11
I65
t(I215
I57
t(I334
I58
t(I552
I65
ttp7
ss."
LayerCount: 2
Fore
SplineSet
17 392 m 257
 17 334 l 257
 66 334 l 257
 65 324 65 314 65 303 c 256
 65 293 65 282 66 272 c 257
 17 272 l 257
 17 215 l 257
 72 215 l 257
 97 71 185 -11 318 -11 c 256
 339 -11 358 -7 377 -2 c 257
 377 61 l 257
 362 57 346 54 329 54 c 256
 244 54 172 104 148 215 c 257
 326 215 l 257
 326 272 l 257
 140 272 l 257
 139 282 139 293 139 303 c 256
 139 314 139 324 140 334 c 257
 326 334 l 257
 326 392 l 257
 148 392 l 257
 172 502 244 552 329 552 c 256
 346 552 362 550 377 545 c 257
 377 608 l 257
 358 614 339 617 318 617 c 256
 185 617 97 536 72 392 c 257
 17 392 l 257
EndSplineSet
EndChar

StartChar: F
Encoding: 70 70 39
Width: 443
VWidth: 0
Flags: W
PickledData: "(dp1
S'org.robofab.postScriptHintData'
p2
(dp3
S'vHints'
p4
((I62
I78
ttp5
sS'hHints'
p6
((I21
I-21
t(I269
I70
t(I536
I70
ttp7
ss."
LayerCount: 2
Fore
SplineSet
412 536 m 257
 412 606 l 257
 62 606 l 257
 62 0 l 257
 140 0 l 257
 140 269 l 257
 380 269 l 257
 380 339 l 257
 140 339 l 257
 140 536 l 257
 412 536 l 257
EndSplineSet
EndChar

StartChar: G
Encoding: 71 71 40
Width: 564
VWidth: 0
Flags: W
PickledData: "(dp1
S'org.robofab.postScriptHintData'
p2
(dp3
S'replaceTable'
p4
((dp5
S'index'
p6
I0
sS'type'
p7
I255
s(dp8
g6
I0
sg7
I2
s(dp9
g6
I1
sg7
I2
s(dp10
g6
I0
sg7
I1
s(dp11
g6
I1
sg7
I1
s(dp12
g6
I2
sg7
I1
s(dp13
g6
I14
sg7
I255
s(dp14
g6
I0
sg7
I2
s(dp15
g6
I1
sg7
I2
s(dp16
g6
I3
sg7
I1
s(dp17
g6
I1
sg7
I1
s(dp18
g6
I2
sg7
I1
stp19
sS'vHints'
p20
((I43
I82
t(I427
I80
ttp21
sS'hHints'
p22
((I-11
I72
t(I248
I68
t(I545
I72
t(I21
I-21
ttp23
ss."
AnchorPoint: "top" 282 606 basechar 0
AnchorPoint: "bottom" 282 0 basechar 0
LayerCount: 2
Fore
SplineSet
270 316 m 257
 270 248 l 257
 427 248 l 257
 427 233 l 258
 427 118 383 61 282 61 c 256
 180 61 125 133 125 281 c 258
 125 325 l 258
 125 473 187 545 286 545 c 256
 370 545 427 500 427 400 c 257
 507 400 l 257
 507 546 413 617 286 617 c 256
 135 617 43 514 43 303 c 256
 43 93 129 -11 282 -11 c 256
 347 -11 401 12 438 67 c 257
 455 0 l 257
 507 0 l 257
 507 316 l 257
 270 316 l 257
EndSplineSet
EndChar

StartChar: Gbreve
Encoding: 286 286 41
Width: 564
VWidth: 0
Flags: W
PickledData: "(dp1
S'org.robofab.postScriptHintData'
p2
(dp3
S'replaceTable'
p4
((dp5
S'index'
p6
I0
sS'type'
p7
I255
s(dp8
g6
I0
sg7
I2
s(dp9
g6
I1
sg7
I2
s(dp10
g6
I0
sg7
I1
s(dp11
g6
I1
sg7
I1
s(dp12
g6
I2
sg7
I1
s(dp13
g6
I3
sg7
I1
s(dp14
g6
I20
sg7
I255
s(dp15
g6
I0
sg7
I2
s(dp16
g6
I1
sg7
I2
s(dp17
g6
I4
sg7
I1
s(dp18
g6
I1
sg7
I1
s(dp19
g6
I2
sg7
I1
s(dp20
g6
I3
sg7
I1
stp21
sS'vHints'
p22
((I43
I82
t(I427
I80
ttp23
sS'hHints'
p24
((I-11
I72
t(I248
I68
t(I545
I72
t(I695
I56
t(I21
I-21
ttp25
ss."
LayerCount: 2
Fore
SplineSet
335 781 m 257
 333 768 312 751 282 751 c 256
 253 751 232 768 230 781 c 257
 173 781 l 257
 173 741 215 695 282 695 c 256
 350 695 392 741 392 781 c 257
 335 781 l 257
270 316 m 257
 270 248 l 257
 427 248 l 257
 427 233 l 258
 427 118 383 61 282 61 c 256
 180 61 125 133 125 281 c 258
 125 325 l 258
 125 473 187 545 286 545 c 256
 370 545 427 500 427 400 c 257
 507 400 l 257
 507 546 413 617 286 617 c 256
 135 617 43 514 43 303 c 256
 43 93 129 -11 282 -11 c 256
 347 -11 401 12 438 67 c 257
 455 0 l 257
 507 0 l 257
 507 316 l 257
 270 316 l 257
EndSplineSet
EndChar

StartChar: Gcircumflex
Encoding: 284 284 42
Width: 564
VWidth: 0
Flags: W
PickledData: "(dp1
S'org.robofab.postScriptHintData'
p2
(dp3
S'replaceTable'
p4
((dp5
S'index'
p6
I0
sS'type'
p7
I255
s(dp8
g6
I0
sg7
I2
s(dp9
g6
I1
sg7
I2
s(dp10
g6
I0
sg7
I1
s(dp11
g6
I1
sg7
I1
s(dp12
g6
I2
sg7
I1
s(dp13
g6
I3
sg7
I1
s(dp14
g6
I21
sg7
I255
s(dp15
g6
I0
sg7
I2
s(dp16
g6
I1
sg7
I2
s(dp17
g6
I4
sg7
I1
s(dp18
g6
I1
sg7
I1
s(dp19
g6
I2
sg7
I1
s(dp20
g6
I3
sg7
I1
stp21
sS'vHints'
p22
((I43
I82
t(I427
I80
ttp23
sS'hHints'
p24
((I-11
I72
t(I248
I68
t(I545
I72
t(I660
I120
t(I21
I-21
ttp25
ss."
LayerCount: 2
Fore
SplineSet
243 660 m 257
 283 730 l 257
 322 660 l 257
 392 660 l 257
 317 780 l 257
 248 780 l 257
 172 660 l 257
 243 660 l 257
270 316 m 257
 270 248 l 257
 427 248 l 257
 427 233 l 258
 427 118 383 61 282 61 c 256
 180 61 125 133 125 281 c 258
 125 325 l 258
 125 473 187 545 286 545 c 256
 370 545 427 500 427 400 c 257
 507 400 l 257
 507 546 413 617 286 617 c 256
 135 617 43 514 43 303 c 256
 43 93 129 -11 282 -11 c 256
 347 -11 401 12 438 67 c 257
 455 0 l 257
 507 0 l 257
 507 316 l 257
 270 316 l 257
EndSplineSet
EndChar

StartChar: Gcommaaccent
Encoding: 290 290 43
Width: 564
VWidth: 0
Flags: W
PickledData: "(dp1
S'org.robofab.postScriptHintData'
p2
(dp3
S'replaceTable'
p4
((dp5
S'index'
p6
I0
sS'type'
p7
I255
s(dp8
g6
I0
sg7
I2
s(dp9
g6
I1
sg7
I2
s(dp10
g6
I2
sg7
I2
s(dp11
g6
I0
sg7
I1
s(dp12
g6
I1
sg7
I1
s(dp13
g6
I2
sg7
I1
s(dp14
g6
I3
sg7
I1
s(dp15
g6
I14
sg7
I255
s(dp16
g6
I0
sg7
I2
s(dp17
g6
I1
sg7
I2
s(dp18
g6
I2
sg7
I2
s(dp19
g6
I0
sg7
I1
s(dp20
g6
I4
sg7
I1
s(dp21
g6
I2
sg7
I1
s(dp22
g6
I3
sg7
I1
stp23
sS'vHints'
p24
((I43
I82
t(I245
I75
t(I427
I80
ttp25
sS'hHints'
p26
((I-133
I80
t(I-11
I72
t(I248
I68
t(I545
I72
t(I21
I-21
ttp27
ss."
LayerCount: 2
Fore
SplineSet
270 316 m 257
 270 248 l 257
 427 248 l 257
 427 233 l 258
 427 118 383 61 282 61 c 256
 180 61 125 133 125 281 c 258
 125 325 l 258
 125 473 187 545 286 545 c 256
 370 545 427 500 427 400 c 257
 507 400 l 257
 507 546 413 617 286 617 c 256
 135 617 43 514 43 303 c 256
 43 93 129 -11 282 -11 c 256
 347 -11 401 12 438 67 c 257
 455 0 l 257
 507 0 l 257
 507 316 l 257
 270 316 l 257
245 -53 m 257
 245 -133 l 257
 275 -133 l 257
 255 -196 l 257
 294 -196 l 257
 320 -127 l 257
 320 -53 l 257
 245 -53 l 257
EndSplineSet
EndChar

StartChar: Gdotaccent
Encoding: 288 288 44
Width: 564
VWidth: 0
Flags: W
PickledData: "(dp1
S'org.robofab.postScriptHintData'
p2
(dp3
S'replaceTable'
p4
((dp5
S'index'
p6
I0
sS'type'
p7
I255
s(dp8
g6
I0
sg7
I2
s(dp9
g6
I1
sg7
I2
s(dp10
g6
I2
sg7
I2
s(dp11
g6
I0
sg7
I1
s(dp12
g6
I1
sg7
I1
s(dp13
g6
I2
sg7
I1
s(dp14
g6
I3
sg7
I1
s(dp15
g6
I18
sg7
I255
s(dp16
g6
I0
sg7
I2
s(dp17
g6
I1
sg7
I2
s(dp18
g6
I2
sg7
I2
s(dp19
g6
I4
sg7
I1
s(dp20
g6
I1
sg7
I1
s(dp21
g6
I2
sg7
I1
s(dp22
g6
I3
sg7
I1
stp23
sS'vHints'
p24
((I43
I82
t(I244
I77
t(I427
I80
ttp25
sS'hHints'
p26
((I-11
I72
t(I248
I68
t(I545
I72
t(I697
I84
t(I21
I-21
ttp27
ss."
LayerCount: 2
Fore
SplineSet
321 697 m 257
 321 781 l 257
 244 781 l 257
 244 697 l 257
 321 697 l 257
270 316 m 257
 270 248 l 257
 427 248 l 257
 427 233 l 258
 427 118 383 61 282 61 c 256
 180 61 125 133 125 281 c 258
 125 325 l 258
 125 473 187 545 286 545 c 256
 370 545 427 500 427 400 c 257
 507 400 l 257
 507 546 413 617 286 617 c 256
 135 617 43 514 43 303 c 256
 43 93 129 -11 282 -11 c 256
 347 -11 401 12 438 67 c 257
 455 0 l 257
 507 0 l 257
 507 316 l 257
 270 316 l 257
EndSplineSet
EndChar

StartChar: H
Encoding: 72 72 45
Width: 523
VWidth: 0
Flags: W
PickledData: "(dp1
S'org.robofab.postScriptHintData'
p2
(dp3
S'vHints'
p4
((I62
I78
t(I384
I77
ttp5
sS'hHints'
p6
((I21
I-21
t(I275
I71
t(I606
I-20
ttp7
ss."
AnchorPoint: "top" 262 606 basechar 0
AnchorPoint: "center" 262 303 basechar 0
LayerCount: 2
Fore
SplineSet
461 0 m 257
 461 606 l 257
 384 606 l 257
 384 346 l 257
 140 346 l 257
 140 606 l 257
 62 606 l 257
 62 0 l 257
 140 0 l 257
 140 275 l 257
 384 275 l 257
 384 0 l 257
 461 0 l 257
EndSplineSet
EndChar

StartChar: Hbar
Encoding: 294 294 46
Width: 523
VWidth: 0
Flags: W
PickledData: "(dp1
S'org.robofab.postScriptHintData'
p2
(dp3
S'replaceTable'
p4
((dp5
S'index'
p6
I0
sS'type'
p7
I255
s(dp8
g6
I0
sg7
I2
s(dp9
g6
I1
sg7
I2
s(dp10
g6
I0
sg7
I1
s(dp11
g6
I1
sg7
I1
s(dp12
g6
I2
sg7
I1
s(dp13
g6
I1
sg7
I255
s(dp14
g6
I0
sg7
I2
s(dp15
g6
I1
sg7
I2
s(dp16
g6
I0
sg7
I1
s(dp17
g6
I1
sg7
I1
s(dp18
g6
I3
sg7
I1
s(dp19
g6
I3
sg7
I255
s(dp20
g6
I0
sg7
I2
s(dp21
g6
I1
sg7
I2
s(dp22
g6
I0
sg7
I1
s(dp23
g6
I1
sg7
I1
s(dp24
g6
I2
sg7
I1
s(dp25
g6
I5
sg7
I255
s(dp26
g6
I0
sg7
I2
s(dp27
g6
I1
sg7
I2
s(dp28
g6
I0
sg7
I1
s(dp29
g6
I1
sg7
I1
s(dp30
g6
I3
sg7
I1
s(dp31
g6
I7
sg7
I255
s(dp32
g6
I0
sg7
I2
s(dp33
g6
I1
sg7
I2
s(dp34
g6
I0
sg7
I1
s(dp35
g6
I1
sg7
I1
s(dp36
g6
I2
sg7
I1
s(dp37
g6
I9
sg7
I255
s(dp38
g6
I0
sg7
I2
s(dp39
g6
I1
sg7
I2
s(dp40
g6
I0
sg7
I1
s(dp41
g6
I1
sg7
I1
s(dp42
g6
I3
sg7
I1
s(dp43
g6
I19
sg7
I255
s(dp44
g6
I0
sg7
I2
s(dp45
g6
I1
sg7
I2
s(dp46
g6
I0
sg7
I1
s(dp47
g6
I1
sg7
I1
s(dp48
g6
I2
sg7
I1
s(dp49
g6
I20
sg7
I255
s(dp50
g6
I0
sg7
I2
s(dp51
g6
I1
sg7
I2
s(dp52
g6
I0
sg7
I1
s(dp53
g6
I1
sg7
I1
s(dp54
g6
I3
sg7
I1
stp55
sS'vHints'
p56
((I62
I78
t(I384
I77
ttp57
sS'hHints'
p58
((I21
I-21
t(I271
I70
t(I433
I64
t(I433
I173
ttp59
ss."
LayerCount: 2
Fore
SplineSet
461 497 m 257
 461 606 l 257
 384 606 l 257
 384 497 l 257
 140 497 l 257
 140 606 l 257
 62 606 l 257
 62 497 l 257
 18 497 l 257
 18 433 l 257
 62 433 l 257
 62 0 l 257
 140 0 l 257
 140 271 l 257
 384 271 l 257
 384 0 l 257
 461 0 l 257
 461 433 l 257
 506 433 l 257
 506 497 l 257
 461 497 l 257
140 433 m 257
 384 433 l 257
 384 341 l 257
 140 341 l 257
 140 433 l 257
EndSplineSet
EndChar

StartChar: Hcircumflex
Encoding: 292 292 47
Width: 523
VWidth: 0
Flags: W
PickledData: "(dp1
S'org.robofab.postScriptHintData'
p2
(dp3
S'vHints'
p4
((I62
I78
t(I384
I77
ttp5
sS'hHints'
p6
((I21
I-21
t(I275
I71
t(I606
I-20
t(I660
I120
ttp7
ss."
LayerCount: 2
Fore
SplineSet
372 660 m 257
 296 780 l 257
 227 780 l 257
 151 660 l 257
 222 660 l 257
 263 730 l 257
 301 660 l 257
 372 660 l 257
461 0 m 257
 461 606 l 257
 384 606 l 257
 384 346 l 257
 140 346 l 257
 140 606 l 257
 62 606 l 257
 62 0 l 257
 140 0 l 257
 140 275 l 257
 384 275 l 257
 384 0 l 257
 461 0 l 257
EndSplineSet
EndChar

StartChar: I
Encoding: 73 73 48
Width: 202
VWidth: 0
Flags: W
PickledData: "(dp1
S'org.robofab.postScriptHintData'
p2
(dp3
S'vHints'
p4
((I62
I78
ttp5
sS'hHints'
p6
((I21
I-21
t(I606
I-20
ttp7
ss."
AnchorPoint: "top" 101 606 basechar 0
AnchorPoint: "ogonek" 181 9 basechar 0
LayerCount: 2
Fore
SplineSet
140 0 m 257
 140 606 l 257
 62 606 l 257
 62 0 l 257
 140 0 l 257
EndSplineSet
EndChar

StartChar: IJ
Encoding: 306 306 49
Width: 564
VWidth: 0
Flags: W
PickledData: "(dp1
S'org.robofab.postScriptHintData'
p2
(dp3
S'replaceTable'
p4
((dp5
S'index'
p6
I0
sS'type'
p7
I255
s(dp8
g6
I0
sg7
I2
s(dp9
g6
I1
sg7
I2
s(dp10
g6
I2
sg7
I2
s(dp11
g6
I0
sg7
I1
s(dp12
g6
I1
sg7
I1
s(dp13
g6
I6
sg7
I255
s(dp14
g6
I0
sg7
I2
s(dp15
g6
I1
sg7
I2
s(dp16
g6
I2
sg7
I2
s(dp17
g6
I2
sg7
I1
s(dp18
g6
I1
sg7
I1
s(dp19
g6
I9
sg7
I255
s(dp20
g6
I0
sg7
I2
s(dp21
g6
I1
sg7
I2
s(dp22
g6
I2
sg7
I2
s(dp23
g6
I3
sg7
I1
s(dp24
g6
I1
sg7
I1
s(dp25
g6
I12
sg7
I255
s(dp26
g6
I0
sg7
I2
s(dp27
g6
I1
sg7
I2
s(dp28
g6
I2
sg7
I2
s(dp29
g6
I2
sg7
I1
s(dp30
g6
I1
sg7
I1
stp31
sS'vHints'
p32
((I62
I78
t(I213
I78
t(I429
I78
ttp33
sS'hHints'
p34
((I21
I-21
t(I606
I-20
t(I-11
I72
t(I0
I184
ttp35
ss."
LayerCount: 2
Fore
SplineSet
140 0 m 257
 140 606 l 257
 62 606 l 257
 62 0 l 257
 140 0 l 257
507 606 m 257
 429 606 l 257
 429 140 l 258
 429 88 404 61 360 61 c 256
 316 61 291 88 291 140 c 258
 291 184 l 257
 213 184 l 257
 213 144 l 258
 213 43 267 -11 360 -11 c 256
 453 -11 507 43 507 144 c 258
 507 606 l 257
EndSplineSet
EndChar

StartChar: Iacute
Encoding: 205 205 50
Width: 202
VWidth: 0
Flags: W
PickledData: "(dp1
S'org.robofab.postScriptHintData'
p2
(dp3
S'vHints'
p4
((I62
I78
ttp5
sS'hHints'
p6
((I21
I-21
t(I606
I-20
t(I664
I117
ttp7
ss."
LayerCount: 2
Fore
SplineSet
204 778 m 257
 203 781 l 257
 125 781 l 257
 49 664 l 257
 110 664 l 257
 204 778 l 257
140 0 m 257
 140 606 l 257
 62 606 l 257
 62 0 l 257
 140 0 l 257
EndSplineSet
EndChar

StartChar: Ibreve
Encoding: 300 300 51
Width: 202
VWidth: 0
Flags: W
PickledData: "(dp1
S'org.robofab.postScriptHintData'
p2
(dp3
S'vHints'
p4
((I62
I78
ttp5
sS'hHints'
p6
((I21
I-21
t(I606
I-20
t(I695
I56
ttp7
ss."
LayerCount: 2
Fore
SplineSet
154 781 m 257
 152 768 131 751 101 751 c 256
 72 751 51 768 49 781 c 257
 -9 781 l 257
 -9 741 34 695 101 695 c 256
 169 695 210 741 210 781 c 257
 154 781 l 257
140 0 m 257
 140 606 l 257
 62 606 l 257
 62 0 l 257
 140 0 l 257
EndSplineSet
EndChar

StartChar: Icircumflex
Encoding: 206 206 52
Width: 202
VWidth: 0
Flags: W
PickledData: "(dp1
S'org.robofab.postScriptHintData'
p2
(dp3
S'vHints'
p4
((I62
I78
ttp5
sS'hHints'
p6
((I21
I-21
t(I606
I-20
t(I660
I120
ttp7
ss."
LayerCount: 2
Fore
SplineSet
211 660 m 257
 136 780 l 257
 67 780 l 257
 -10 660 l 257
 62 660 l 257
 102 730 l 257
 141 660 l 257
 211 660 l 257
140 0 m 257
 140 606 l 257
 62 606 l 257
 62 0 l 257
 140 0 l 257
EndSplineSet
EndChar

StartChar: Idieresis
Encoding: 207 207 53
Width: 202
VWidth: 0
Flags: W
PickledData: "(dp1
S'org.robofab.postScriptHintData'
p2
(dp3
S'replaceTable'
p4
((dp5
S'index'
p6
I0
sS'type'
p7
I255
s(dp8
g6
I0
sg7
I2
s(dp9
g6
I1
sg7
I2
s(dp10
g6
I0
sg7
I1
s(dp11
g6
I1
sg7
I1
s(dp12
g6
I2
sg7
I1
s(dp13
g6
I8
sg7
I255
s(dp14
g6
I2
sg7
I2
s(dp15
g6
I0
sg7
I1
s(dp16
g6
I1
sg7
I1
s(dp17
g6
I2
sg7
I1
stp18
sS'vHints'
p19
((I-4
I77
t(I129
I77
t(I62
I78
ttp20
sS'hHints'
p21
((I21
I-21
t(I606
I-20
t(I697
I84
ttp22
ss."
LayerCount: 2
Fore
SplineSet
73 697 m 257
 73 781 l 257
 -4 781 l 257
 -4 697 l 257
 73 697 l 257
206 697 m 257
 206 781 l 257
 129 781 l 257
 129 697 l 257
 206 697 l 257
140 0 m 257
 140 606 l 257
 62 606 l 257
 62 0 l 257
 140 0 l 257
EndSplineSet
EndChar

StartChar: Idotaccent
Encoding: 304 304 54
Width: 202
VWidth: 0
Flags: W
PickledData: "(dp1
S'org.robofab.postScriptHintData'
p2
(dp3
S'vHints'
p4
((I62
I78
ttp5
sS'hHints'
p6
((I21
I-21
t(I606
I-20
t(I697
I84
ttp7
ss."
LayerCount: 2
Fore
SplineSet
140 697 m 257
 140 781 l 257
 63 781 l 257
 63 697 l 257
 140 697 l 257
140 0 m 257
 140 606 l 257
 62 606 l 257
 62 0 l 257
 140 0 l 257
EndSplineSet
EndChar

StartChar: Igrave
Encoding: 204 204 55
Width: 202
VWidth: 0
Flags: W
PickledData: "(dp1
S'org.robofab.postScriptHintData'
p2
(dp3
S'vHints'
p4
((I62
I78
ttp5
sS'hHints'
p6
((I21
I-21
t(I606
I-20
t(I664
I117
ttp7
ss."
LayerCount: 2
Fore
SplineSet
154 664 m 257
 78 781 l 257
 -2 781 l 257
 -3 778 l 257
 93 664 l 257
 154 664 l 257
140 0 m 257
 140 606 l 257
 62 606 l 257
 62 0 l 257
 140 0 l 257
EndSplineSet
EndChar

StartChar: Imacron
Encoding: 298 298 56
Width: 202
VWidth: 0
Flags: W
PickledData: "(dp1
S'org.robofab.postScriptHintData'
p2
(dp3
S'vHints'
p4
((I62
I78
ttp5
sS'hHints'
p6
((I21
I-21
t(I606
I-20
t(I671
I64
ttp7
ss."
LayerCount: 2
Fore
SplineSet
212 671 m 257
 212 735 l 257
 -10 735 l 257
 -10 671 l 257
 212 671 l 257
140 0 m 257
 140 606 l 257
 62 606 l 257
 62 0 l 257
 140 0 l 257
EndSplineSet
EndChar

StartChar: Iogonek
Encoding: 302 302 57
Width: 202
VWidth: 0
Flags: W
PickledData: "(dp1
S'org.robofab.postScriptHintData'
p2
(dp3
S'replaceTable'
p4
((dp5
S'index'
p6
I0
sS'type'
p7
I255
s(dp8
g6
I0
sg7
I2
s(dp9
g6
I0
sg7
I1
s(dp10
g6
I1
sg7
I1
s(dp11
g6
I2
sg7
I1
s(dp12
g6
I4
sg7
I255
s(dp13
g6
I0
sg7
I2
s(dp14
g6
I3
sg7
I1
s(dp15
g6
I1
sg7
I1
s(dp16
g6
I2
sg7
I1
s(dp17
g6
I6
sg7
I255
s(dp18
g6
I0
sg7
I2
s(dp19
g6
I0
sg7
I1
s(dp20
g6
I1
sg7
I1
s(dp21
g6
I2
sg7
I1
s(dp22
g6
I7
sg7
I255
s(dp23
g6
I0
sg7
I2
s(dp24
g6
I4
sg7
I1
s(dp25
g6
I1
sg7
I1
s(dp26
g6
I2
sg7
I1
stp27
sS'vHints'
p28
((I62
I78
ttp29
sS'hHints'
p30
((I-128
I-21
t(I21
I-21
t(I606
I-20
t(I-161
I58
t(I-149
I46
ttp31
ss."
LayerCount: 2
Fore
SplineSet
140 606 m 257
 62 606 l 257
 62 0 l 257
 82 0 l 257
 64 -20 50 -43 50 -81 c 256
 50 -142 95 -161 133 -161 c 256
 151 -161 169 -156 187 -149 c 257
 187 -103 l 257
 159 -103 l 258
 130 -103 118 -80 118 -55 c 256
 118 -30 131 -13 140 0 c 257
 140 606 l 257
EndSplineSet
EndChar

StartChar: Itilde
Encoding: 296 296 58
Width: 202
VWidth: 0
Flags: W
PickledData: "(dp1
S'org.robofab.postScriptHintData'
p2
(dp3
S'replaceTable'
p4
((dp5
S'index'
p6
I0
sS'type'
p7
I255
s(dp8
g6
I0
sg7
I2
s(dp9
g6
I0
sg7
I1
s(dp10
g6
I1
sg7
I1
s(dp11
g6
I2
sg7
I1
s(dp12
g6
I1
sg7
I255
s(dp13
g6
I0
sg7
I2
s(dp14
g6
I0
sg7
I1
s(dp15
g6
I1
sg7
I1
s(dp16
g6
I3
sg7
I1
s(dp17
g6
I2
sg7
I255
s(dp18
g6
I0
sg7
I2
s(dp19
g6
I0
sg7
I1
s(dp20
g6
I1
sg7
I1
s(dp21
g6
I2
sg7
I1
s(dp22
g6
I3
sg7
I255
s(dp23
g6
I0
sg7
I2
s(dp24
g6
I0
sg7
I1
s(dp25
g6
I1
sg7
I1
s(dp26
g6
I3
sg7
I1
s(dp27
g6
I5
sg7
I255
s(dp28
g6
I0
sg7
I2
s(dp29
g6
I0
sg7
I1
s(dp30
g6
I1
sg7
I1
s(dp31
g6
I2
sg7
I1
s(dp32
g6
I6
sg7
I255
s(dp33
g6
I0
sg7
I2
s(dp34
g6
I0
sg7
I1
s(dp35
g6
I1
sg7
I1
s(dp36
g6
I3
sg7
I1
s(dp37
g6
I7
sg7
I255
s(dp38
g6
I0
sg7
I2
s(dp39
g6
I0
sg7
I1
s(dp40
g6
I1
sg7
I1
s(dp41
g6
I2
sg7
I1
stp42
sS'vHints'
p43
((I62
I78
ttp44
sS'hHints'
p45
((I21
I-21
t(I606
I-20
t(I716
I65
t(I689
I65
ttp46
ss."
LayerCount: 2
Fore
SplineSet
179 781 m 257
 176 760 164 754 149 754 c 256
 114 754 85 781 47 781 c 256
 -6 781 -28 729 -28 689 c 257
 23 689 l 257
 26 709 37 716 53 716 c 256
 88 716 117 689 155 689 c 256
 208 689 230 740 230 781 c 257
 179 781 l 257
140 0 m 257
 140 606 l 257
 62 606 l 257
 62 0 l 257
 140 0 l 257
EndSplineSet
EndChar

StartChar: J
Encoding: 74 74 59
Width: 362
VWidth: 0
Flags: W
PickledData: "(dp1
S'org.robofab.postScriptHintData'
p2
(dp3
S'vHints'
p4
((I11
I78
t(I227
I78
ttp5
sS'hHints'
p6
((I-11
I72
t(I606
I-20
ttp7
ss."
AnchorPoint: "top" 181 606 basechar 0
LayerCount: 2
Fore
SplineSet
305 606 m 257
 227 606 l 257
 227 140 l 258
 227 88 202 61 158 61 c 256
 114 61 89 88 89 140 c 258
 89 184 l 257
 11 184 l 257
 11 144 l 258
 11 43 65 -11 158 -11 c 256
 251 -11 305 43 305 144 c 258
 305 606 l 257
EndSplineSet
EndChar

StartChar: Jcircumflex
Encoding: 308 308 60
Width: 362
VWidth: 0
Flags: W
PickledData: "(dp1
S'org.robofab.postScriptHintData'
p2
(dp3
S'vHints'
p4
((I11
I78
t(I227
I78
ttp5
sS'hHints'
p6
((I-11
I72
t(I606
I-20
t(I660
I120
ttp7
ss."
LayerCount: 2
Fore
SplineSet
377 660 m 257
 301 780 l 257
 232 780 l 257
 156 660 l 257
 227 660 l 257
 268 730 l 257
 307 660 l 257
 377 660 l 257
305 606 m 257
 227 606 l 257
 227 140 l 258
 227 88 202 61 158 61 c 256
 114 61 89 88 89 140 c 258
 89 184 l 257
 11 184 l 257
 11 144 l 258
 11 43 65 -11 158 -11 c 256
 251 -11 305 43 305 144 c 258
 305 606 l 257
EndSplineSet
EndChar

StartChar: K
Encoding: 75 75 61
Width: 484
VWidth: 0
Flags: W
PickledData: "(dp1
S'org.robofab.postScriptHintData'
p2
(dp3
S'vHints'
p4
((I62
I78
ttp5
sS'hHints'
p6
((I21
I-21
t(I606
I-20
ttp7
ss."
AnchorPoint: "top" 242 606 basechar 0
AnchorPoint: "bottom" 242 0 basechar 0
LayerCount: 2
Fore
SplineSet
285 362 m 257
 467 606 l 257
 380 606 l 257
 140 286 l 257
 140 606 l 257
 62 606 l 257
 62 0 l 257
 140 0 l 257
 140 188 l 257
 237 296 l 257
 385 0 l 257
 473 0 l 257
 285 362 l 257
EndSplineSet
EndChar

StartChar: Kcommaaccent
Encoding: 310 310 62
Width: 484
VWidth: 0
Flags: W
PickledData: "(dp1
S'org.robofab.postScriptHintData'
p2
(dp3
S'vHints'
p4
((I62
I78
t(I204
I75
ttp5
sS'hHints'
p6
((I-133
I80
t(I21
I-21
t(I606
I-20
ttp7
ss."
LayerCount: 2
Fore
SplineSet
285 362 m 257
 467 606 l 257
 380 606 l 257
 140 286 l 257
 140 606 l 257
 62 606 l 257
 62 0 l 257
 140 0 l 257
 140 188 l 257
 237 296 l 257
 385 0 l 257
 473 0 l 257
 285 362 l 257
279 -127 m 257
 279 -53 l 257
 204 -53 l 257
 204 -133 l 257
 234 -133 l 257
 215 -196 l 257
 254 -196 l 257
 279 -127 l 257
EndSplineSet
EndChar

StartChar: L
Encoding: 76 76 63
Width: 403
VWidth: 0
Flags: W
PickledData: "(dp1
S'org.robofab.postScriptHintData'
p2
(dp3
S'vHints'
p4
((I62
I78
ttp5
sS'hHints'
p6
((I0
I71
t(I606
I-20
ttp7
ss."
AnchorPoint: "top" 202 606 basechar 0
AnchorPoint: "bottom" 202 0 basechar 0
LayerCount: 2
Fore
SplineSet
140 71 m 257
 140 606 l 257
 62 606 l 257
 62 0 l 257
 387 0 l 257
 387 71 l 257
 140 71 l 257
EndSplineSet
EndChar

StartChar: Lacute
Encoding: 313 313 64
Width: 403
VWidth: 0
Flags: W
PickledData: "(dp1
S'org.robofab.postScriptHintData'
p2
(dp3
S'vHints'
p4
((I62
I78
ttp5
sS'hHints'
p6
((I0
I71
t(I606
I-20
t(I664
I117
ttp7
ss."
LayerCount: 2
Fore
SplineSet
202 778 m 257
 201 781 l 257
 121 781 l 257
 45 664 l 257
 107 664 l 257
 202 778 l 257
140 71 m 257
 140 606 l 257
 62 606 l 257
 62 0 l 257
 387 0 l 257
 387 71 l 257
 140 71 l 257
EndSplineSet
EndChar

StartChar: Lcaron
Encoding: 317 317 65
Width: 403
VWidth: 0
Flags: W
PickledData: "(dp1
S'org.robofab.postScriptHintData'
p2
(dp3
S'vHints'
p4
((I62
I78
t(I282
I88
ttp5
sS'hHints'
p6
((I0
I71
t(I511
I95
ttp7
ss."
LayerCount: 2
Fore
SplineSet
140 71 m 257
 140 606 l 257
 62 606 l 257
 62 0 l 257
 387 0 l 257
 387 71 l 257
 140 71 l 257
370 519 m 257
 370 606 l 257
 282 606 l 257
 282 511 l 257
 317 511 l 257
 282 401 l 257
 328 401 l 257
 370 519 l 257
EndSplineSet
EndChar

StartChar: Lcommaaccent
Encoding: 315 315 66
Width: 403
VWidth: 0
Flags: W
PickledData: "(dp1
S'org.robofab.postScriptHintData'
p2
(dp3
S'replaceTable'
p4
((dp5
S'index'
p6
I0
sS'type'
p7
I255
s(dp8
g6
I0
sg7
I2
s(dp9
g6
I0
sg7
I1
s(dp10
g6
I1
sg7
I1
s(dp11
g6
I2
sg7
I1
s(dp12
g6
I6
sg7
I255
s(dp13
g6
I0
sg7
I2
s(dp14
g6
I1
sg7
I2
s(dp15
g6
I0
sg7
I1
s(dp16
g6
I1
sg7
I1
s(dp17
g6
I2
sg7
I1
stp18
sS'vHints'
p19
((I62
I78
t(I164
I76
ttp20
sS'hHints'
p21
((I-133
I80
t(I0
I71
t(I606
I-20
ttp22
ss."
LayerCount: 2
Fore
SplineSet
140 71 m 257
 140 606 l 257
 62 606 l 257
 62 0 l 257
 387 0 l 257
 387 71 l 257
 140 71 l 257
240 -127 m 257
 240 -53 l 257
 164 -53 l 257
 164 -133 l 257
 194 -133 l 257
 174 -196 l 257
 214 -196 l 257
 240 -127 l 257
EndSplineSet
EndChar

StartChar: Ldot
Encoding: 319 319 67
Width: 403
VWidth: 0
Flags: W
PickledData: "(dp1
S'org.robofab.postScriptHintData'
p2
(dp3
S'vHints'
p4
((I62
I78
t(I261
I89
ttp5
sS'hHints'
p6
((I0
I71
t(I366
I98
t(I606
I-20
ttp7
ss."
LayerCount: 2
Fore
SplineSet
140 71 m 257
 140 606 l 257
 62 606 l 257
 62 0 l 257
 387 0 l 257
 387 71 l 257
 140 71 l 257
350 366 m 257
 350 464 l 257
 261 464 l 257
 261 366 l 257
 350 366 l 257
EndSplineSet
EndChar

StartChar: Lslash
Encoding: 321 321 68
Width: 403
VWidth: 0
Flags: W
PickledData: "(dp1
S'org.robofab.postScriptHintData'
p2
(dp3
S'vHints'
p4
((I62
I78
ttp5
sS'hHints'
p6
((I0
I71
t(I606
I-20
ttp7
ss."
LayerCount: 2
Fore
SplineSet
140 349 m 257
 140 606 l 257
 62 606 l 257
 62 280 l 257
 0 225 l 257
 0 163 l 257
 62 217 l 257
 62 0 l 257
 387 0 l 257
 387 71 l 257
 140 71 l 257
 140 286 l 257
 261 392 l 257
 261 457 l 257
 140 349 l 257
EndSplineSet
EndChar

StartChar: M
Encoding: 77 77 69
Width: 604
VWidth: 0
Flags: W
PickledData: "(dp1
S'org.robofab.postScriptHintData'
p2
(dp3
S'replaceTable'
p4
((dp5
S'index'
p6
I0
sS'type'
p7
I255
s(dp8
g6
I0
sg7
I2
s(dp9
g6
I1
sg7
I2
s(dp10
g6
I0
sg7
I1
s(dp11
g6
I1
sg7
I1
s(dp12
g6
I4
sg7
I255
s(dp13
g6
I0
sg7
I2
s(dp14
g6
I1
sg7
I2
s(dp15
g6
I2
sg7
I1
s(dp16
g6
I1
sg7
I1
stp17
sS'vHints'
p18
((I55
I70
t(I471
I78
ttp19
sS'hHints'
p20
((I21
I-21
t(I534
I72
t(I0
I72
ttp21
ss."
LayerCount: 2
Fore
SplineSet
549 0 m 257
 549 606 l 257
 431 606 l 257
 324 209 l 258
 312 166 304 72 304 72 c 257
 301 72 l 257
 301 72 292 164 280 209 c 258
 173 606 l 257
 55 606 l 257
 55 0 l 257
 125 0 l 257
 125 440 l 258
 125 458 119 534 119 534 c 257
 123 534 l 257
 129 503 133 470 141 440 c 258
 263 0 l 257
 332 0 l 257
 453 440 l 258
 462 471 467 503 474 534 c 257
 477 534 l 257
 477 534 471 461 471 440 c 258
 471 0 l 257
 549 0 l 257
EndSplineSet
EndChar

StartChar: N
Encoding: 78 78 70
Width: 523
VWidth: 0
Flags: W
PickledData: "(dp1
S'org.robofab.postScriptHintData'
p2
(dp3
S'vHints'
p4
((I62
I70
t(I392
I69
ttp5
sS'hHints'
p6
((I21
I-21
t(I606
I-20
ttp7
ss."
AnchorPoint: "top" 262 606 basechar 0
AnchorPoint: "bottom" 262 0 basechar 0
LayerCount: 2
Fore
SplineSet
461 0 m 257
 461 606 l 257
 392 606 l 257
 392 225 l 258
 392 206 394 145 394 145 c 257
 392 144 l 257
 392 144 368 202 354 225 c 258
 129 606 l 257
 62 606 l 257
 62 0 l 257
 132 0 l 257
 132 386 l 258
 132 411 128 467 128 467 c 257
 131 468 l 257
 131 468 155 412 170 386 c 258
 397 0 l 257
 461 0 l 257
EndSplineSet
EndChar

StartChar: Nacute
Encoding: 323 323 72
Width: 523
VWidth: 0
Flags: W
PickledData: "(dp1
S'org.robofab.postScriptHintData'
p2
(dp3
S'vHints'
p4
((I62
I70
t(I392
I69
ttp5
sS'hHints'
p6
((I21
I-21
t(I606
I-20
t(I664
I117
ttp7
ss."
LayerCount: 2
Fore
SplineSet
365 778 m 257
 364 781 l 257
 285 781 l 257
 209 664 l 257
 271 664 l 257
 365 778 l 257
461 0 m 257
 461 606 l 257
 392 606 l 257
 392 225 l 258
 392 206 394 145 394 145 c 257
 392 144 l 257
 392 144 368 202 354 225 c 258
 129 606 l 257
 62 606 l 257
 62 0 l 257
 132 0 l 257
 132 386 l 258
 132 411 128 467 128 467 c 257
 131 468 l 257
 131 468 155 412 170 386 c 258
 397 0 l 257
 461 0 l 257
EndSplineSet
EndChar

StartChar: Ncaron
Encoding: 327 327 73
Width: 523
VWidth: 0
Flags: W
PickledData: "(dp1
S'org.robofab.postScriptHintData'
p2
(dp3
S'vHints'
p4
((I62
I70
t(I392
I69
ttp5
sS'hHints'
p6
((I21
I-21
t(I606
I-20
t(I661
I120
ttp7
ss."
LayerCount: 2
Fore
SplineSet
295 661 m 257
 372 781 l 257
 301 781 l 257
 262 711 l 257
 222 781 l 257
 151 781 l 257
 226 661 l 257
 295 661 l 257
461 0 m 257
 461 606 l 257
 392 606 l 257
 392 225 l 258
 392 206 394 145 394 145 c 257
 392 144 l 257
 392 144 368 202 354 225 c 258
 129 606 l 257
 62 606 l 257
 62 0 l 257
 132 0 l 257
 132 386 l 258
 132 411 128 467 128 467 c 257
 131 468 l 257
 131 468 155 412 170 386 c 258
 397 0 l 257
 461 0 l 257
EndSplineSet
EndChar

StartChar: Ncommaaccent
Encoding: 325 325 74
Width: 523
VWidth: 0
Flags: W
PickledData: "(dp1
S'org.robofab.postScriptHintData'
p2
(dp3
S'vHints'
p4
((I62
I70
t(I224
I76
t(I392
I69
ttp5
sS'hHints'
p6
((I-133
I80
t(I21
I-21
t(I606
I-20
ttp7
ss."
LayerCount: 2
Fore
SplineSet
461 0 m 257
 461 606 l 257
 392 606 l 257
 392 225 l 258
 392 206 394 145 394 145 c 257
 392 144 l 257
 392 144 368 202 354 225 c 258
 129 606 l 257
 62 606 l 257
 62 0 l 257
 132 0 l 257
 132 386 l 258
 132 411 128 467 128 467 c 257
 131 468 l 257
 131 468 155 412 170 386 c 258
 397 0 l 257
 461 0 l 257
300 -127 m 257
 300 -53 l 257
 224 -53 l 257
 224 -133 l 257
 255 -133 l 257
 234 -196 l 257
 274 -196 l 257
 300 -127 l 257
EndSplineSet
EndChar

StartChar: Ntilde
Encoding: 209 209 75
Width: 523
VWidth: 0
Flags: W
PickledData: "(dp1
S'org.robofab.postScriptHintData'
p2
(dp3
S'replaceTable'
p4
((dp5
S'index'
p6
I0
sS'type'
p7
I255
s(dp8
g6
I0
sg7
I2
s(dp9
g6
I1
sg7
I2
s(dp10
g6
I0
sg7
I1
s(dp11
g6
I1
sg7
I1
s(dp12
g6
I2
sg7
I1
s(dp13
g6
I1
sg7
I255
s(dp14
g6
I0
sg7
I2
s(dp15
g6
I1
sg7
I2
s(dp16
g6
I0
sg7
I1
s(dp17
g6
I1
sg7
I1
s(dp18
g6
I3
sg7
I1
s(dp19
g6
I2
sg7
I255
s(dp20
g6
I0
sg7
I2
s(dp21
g6
I1
sg7
I2
s(dp22
g6
I0
sg7
I1
s(dp23
g6
I1
sg7
I1
s(dp24
g6
I2
sg7
I1
s(dp25
g6
I3
sg7
I255
s(dp26
g6
I0
sg7
I2
s(dp27
g6
I1
sg7
I2
s(dp28
g6
I0
sg7
I1
s(dp29
g6
I1
sg7
I1
s(dp30
g6
I3
sg7
I1
s(dp31
g6
I5
sg7
I255
s(dp32
g6
I0
sg7
I2
s(dp33
g6
I1
sg7
I2
s(dp34
g6
I0
sg7
I1
s(dp35
g6
I1
sg7
I1
s(dp36
g6
I2
sg7
I1
s(dp37
g6
I6
sg7
I255
s(dp38
g6
I0
sg7
I2
s(dp39
g6
I1
sg7
I2
s(dp40
g6
I0
sg7
I1
s(dp41
g6
I1
sg7
I1
s(dp42
g6
I3
sg7
I1
s(dp43
g6
I7
sg7
I255
s(dp44
g6
I0
sg7
I2
s(dp45
g6
I1
sg7
I2
s(dp46
g6
I0
sg7
I1
s(dp47
g6
I1
sg7
I1
s(dp48
g6
I2
sg7
I1
stp49
sS'vHints'
p50
((I62
I70
t(I392
I69
ttp51
sS'hHints'
p52
((I21
I-21
t(I606
I-20
t(I716
I65
t(I689
I65
ttp53
ss."
LayerCount: 2
Fore
SplineSet
339 781 m 257
 337 760 325 754 309 754 c 256
 275 754 246 781 208 781 c 256
 155 781 133 729 133 689 c 257
 184 689 l 257
 187 709 198 716 214 716 c 256
 248 716 277 689 316 689 c 256
 369 689 391 740 391 781 c 257
 339 781 l 257
461 0 m 257
 461 606 l 257
 392 606 l 257
 392 225 l 258
 392 206 394 145 394 145 c 257
 392 144 l 257
 392 144 368 202 354 225 c 258
 129 606 l 257
 62 606 l 257
 62 0 l 257
 132 0 l 257
 132 386 l 258
 132 411 128 467 128 467 c 257
 131 468 l 257
 131 468 155 412 170 386 c 258
 397 0 l 257
 461 0 l 257
EndSplineSet
EndChar

StartChar: O
Encoding: 79 79 76
Width: 564
VWidth: 0
Flags: W
PickledData: "(dp1
S'org.robofab.postScriptHintData'
p2
(dp3
S'vHints'
p4
((I43
I82
t(I439
I82
ttp5
sS'hHints'
p6
((I-11
I72
t(I545
I72
ttp7
ss."
AnchorPoint: "top" 282 606 basechar 0
LayerCount: 2
Fore
SplineSet
282 617 m 256
 133 617 43 514 43 303 c 256
 43 93 133 -11 282 -11 c 256
 431 -11 521 93 521 303 c 256
 521 514 431 617 282 617 c 256
439 281 m 258
 439 133 379 61 282 61 c 256
 185 61 125 133 125 281 c 258
 125 325 l 258
 125 473 185 545 282 545 c 256
 379 545 439 473 439 325 c 258
 439 281 l 258
EndSplineSet
EndChar

StartChar: OE
Encoding: 338 338 77
Width: 725
VWidth: 0
Flags: W
PickledData: "(dp1
S'org.robofab.postScriptHintData'
p2
(dp3
S'replaceTable'
p4
((dp5
S'index'
p6
I0
sS'type'
p7
I255
s(dp8
g6
I0
sg7
I2
s(dp9
g6
I1
sg7
I2
s(dp10
g6
I0
sg7
I1
s(dp11
g6
I1
sg7
I1
s(dp12
g6
I2
sg7
I1
s(dp13
g6
I12
sg7
I255
s(dp14
g6
I0
sg7
I2
s(dp15
g6
I1
sg7
I2
s(dp16
g6
I3
sg7
I1
s(dp17
g6
I1
sg7
I1
s(dp18
g6
I4
sg7
I1
stp19
sS'vHints'
p20
((I43
I82
t(I376
I77
ttp21
sS'hHints'
p22
((I0
I71
t(I275
I71
t(I536
I70
t(I-11
I72
t(I545
I72
ttp23
ss."
AnchorPoint: "top" 362 606 basechar 0
LayerCount: 2
Fore
SplineSet
376 0 m 257
 693 0 l 257
 693 71 l 257
 453 71 l 257
 453 275 l 257
 648 275 l 257
 648 346 l 257
 453 346 l 257
 453 536 l 257
 688 536 l 257
 688 606 l 257
 376 606 l 257
 376 546 l 257
 343 593 298 617 241 617 c 256
 117 617 43 514 43 303 c 256
 43 93 117 -11 241 -11 c 256
 298 -11 343 12 376 60 c 257
 376 0 l 257
376 281 m 258
 376 133 328 61 250 61 c 256
 172 61 125 133 125 281 c 258
 125 325 l 258
 125 473 172 545 250 545 c 256
 328 545 376 473 376 325 c 258
 376 281 l 258
EndSplineSet
EndChar

StartChar: Oacute
Encoding: 211 211 78
Width: 564
VWidth: 0
Flags: W
PickledData: "(dp1
S'org.robofab.postScriptHintData'
p2
(dp3
S'vHints'
p4
((I43
I82
t(I439
I82
ttp5
sS'hHints'
p6
((I-11
I72
t(I545
I72
t(I664
I117
ttp7
ss."
LayerCount: 2
Fore
SplineSet
386 778 m 257
 385 781 l 257
 306 781 l 257
 230 664 l 257
 291 664 l 257
 386 778 l 257
282 617 m 256
 133 617 43 514 43 303 c 256
 43 93 133 -11 282 -11 c 256
 431 -11 521 93 521 303 c 256
 521 514 431 617 282 617 c 256
439 281 m 258
 439 133 379 61 282 61 c 256
 185 61 125 133 125 281 c 258
 125 325 l 258
 125 473 185 545 282 545 c 256
 379 545 439 473 439 325 c 258
 439 281 l 258
EndSplineSet
EndChar

StartChar: Obreve
Encoding: 334 334 79
Width: 564
VWidth: 0
Flags: W
PickledData: "(dp1
S'org.robofab.postScriptHintData'
p2
(dp3
S'vHints'
p4
((I43
I82
t(I439
I82
ttp5
sS'hHints'
p6
((I-11
I72
t(I545
I72
t(I695
I56
ttp7
ss."
LayerCount: 2
Fore
SplineSet
335 781 m 257
 333 768 312 751 282 751 c 256
 253 751 232 768 230 781 c 257
 173 781 l 257
 173 741 215 695 282 695 c 256
 350 695 392 741 392 781 c 257
 335 781 l 257
282 617 m 256
 133 617 43 514 43 303 c 256
 43 93 133 -11 282 -11 c 256
 431 -11 521 93 521 303 c 256
 521 514 431 617 282 617 c 256
439 281 m 258
 439 133 379 61 282 61 c 256
 185 61 125 133 125 281 c 258
 125 325 l 258
 125 473 185 545 282 545 c 256
 379 545 439 473 439 325 c 258
 439 281 l 258
EndSplineSet
EndChar

StartChar: Ocircumflex
Encoding: 212 212 80
Width: 564
VWidth: 0
Flags: W
PickledData: "(dp1
S'org.robofab.postScriptHintData'
p2
(dp3
S'vHints'
p4
((I43
I82
t(I439
I82
ttp5
sS'hHints'
p6
((I-11
I72
t(I545
I72
t(I660
I120
ttp7
ss."
LayerCount: 2
Fore
SplineSet
392 660 m 257
 317 780 l 257
 248 780 l 257
 172 660 l 257
 243 660 l 257
 283 730 l 257
 322 660 l 257
 392 660 l 257
282 617 m 256
 133 617 43 514 43 303 c 256
 43 93 133 -11 282 -11 c 256
 431 -11 521 93 521 303 c 256
 521 514 431 617 282 617 c 256
439 281 m 258
 439 133 379 61 282 61 c 256
 185 61 125 133 125 281 c 258
 125 325 l 258
 125 473 185 545 282 545 c 256
 379 545 439 473 439 325 c 258
 439 281 l 258
EndSplineSet
EndChar

StartChar: Odieresis
Encoding: 214 214 81
Width: 564
VWidth: 0
Flags: W
PickledData: "(dp1
S'org.robofab.postScriptHintData'
p2
(dp3
S'vHints'
p4
((I43
I82
t(I178
I77
t(I310
I77
t(I439
I82
ttp5
sS'hHints'
p6
((I-11
I72
t(I545
I72
t(I697
I84
ttp7
ss."
LayerCount: 2
Fore
SplineSet
255 697 m 257
 255 781 l 257
 178 781 l 257
 178 697 l 257
 255 697 l 257
387 697 m 257
 387 781 l 257
 310 781 l 257
 310 697 l 257
 387 697 l 257
282 617 m 256
 133 617 43 514 43 303 c 256
 43 93 133 -11 282 -11 c 256
 431 -11 521 93 521 303 c 256
 521 514 431 617 282 617 c 256
439 281 m 258
 439 133 379 61 282 61 c 256
 185 61 125 133 125 281 c 258
 125 325 l 258
 125 473 185 545 282 545 c 256
 379 545 439 473 439 325 c 258
 439 281 l 258
EndSplineSet
EndChar

StartChar: Ograve
Encoding: 210 210 82
Width: 564
VWidth: 0
Flags: W
PickledData: "(dp1
S'org.robofab.postScriptHintData'
p2
(dp3
S'vHints'
p4
((I43
I82
t(I439
I82
ttp5
sS'hHints'
p6
((I-11
I72
t(I545
I72
t(I664
I117
ttp7
ss."
LayerCount: 2
Fore
SplineSet
335 664 m 257
 259 781 l 257
 179 781 l 257
 179 778 l 257
 274 664 l 257
 335 664 l 257
282 617 m 256
 133 617 43 514 43 303 c 256
 43 93 133 -11 282 -11 c 256
 431 -11 521 93 521 303 c 256
 521 514 431 617 282 617 c 256
439 281 m 258
 439 133 379 61 282 61 c 256
 185 61 125 133 125 281 c 258
 125 325 l 258
 125 473 185 545 282 545 c 256
 379 545 439 473 439 325 c 258
 439 281 l 258
EndSplineSet
EndChar

StartChar: Ohm
Encoding: 8486 8486 83
Width: 679
VWidth: 0
Flags: W
PickledData: "(dp1
S'org.robofab.postScriptHintData'
p2
(dp3
S'vHints'
p4
((I101
I81
t(I497
I81
ttp5
sS'hHints'
p6
((I0
I74
t(I545
I72
ttp7
ss."
LayerCount: 2
Fore
SplineSet
101 74 m 257
 101 0 l 257
 310 0 l 257
 310 54 l 257
 231 72 182 143 182 270 c 258
 182 325 l 258
 182 473 242 545 339 545 c 256
 437 545 497 473 497 325 c 258
 497 266 l 258
 497 141 448 71 368 54 c 257
 368 0 l 257
 578 0 l 257
 578 74 l 257
 556 74 l 258
 534 74 515 72 496 71 c 257
 548 123 578 200 578 303 c 256
 578 514 488 617 339 617 c 256
 191 617 101 514 101 303 c 256
 101 200 130 123 182 71 c 257
 157 72 137 74 123 74 c 258
 101 74 l 257
EndSplineSet
EndChar

StartChar: Ohungarumlaut
Encoding: 336 336 84
Width: 564
VWidth: 0
Flags: W
PickledData: "(dp1
S'org.robofab.postScriptHintData'
p2
(dp3
S'vHints'
p4
((I43
I82
t(I439
I82
ttp5
sS'hHints'
p6
((I-11
I72
t(I545
I72
t(I664
I117
ttp7
ss."
LayerCount: 2
Fore
SplineSet
332 778 m 257
 331 781 l 257
 253 781 l 257
 198 664 l 257
 258 664 l 257
 332 778 l 257
448 778 m 257
 447 781 l 257
 368 781 l 257
 313 664 l 257
 374 664 l 257
 448 778 l 257
282 617 m 256
 133 617 43 514 43 303 c 256
 43 93 133 -11 282 -11 c 256
 431 -11 521 93 521 303 c 256
 521 514 431 617 282 617 c 256
439 281 m 258
 439 133 379 61 282 61 c 256
 185 61 125 133 125 281 c 258
 125 325 l 258
 125 473 185 545 282 545 c 256
 379 545 439 473 439 325 c 258
 439 281 l 258
EndSplineSet
EndChar

StartChar: Omacron
Encoding: 332 332 85
Width: 564
VWidth: 0
Flags: W
PickledData: "(dp1
S'org.robofab.postScriptHintData'
p2
(dp3
S'vHints'
p4
((I43
I82
t(I171
I222
t(I439
I82
ttp5
sS'hHints'
p6
((I-11
I72
t(I545
I72
t(I671
I64
ttp7
ss."
LayerCount: 2
Fore
SplineSet
393 671 m 257
 393 735 l 257
 171 735 l 257
 171 671 l 257
 393 671 l 257
282 617 m 256
 133 617 43 514 43 303 c 256
 43 93 133 -11 282 -11 c 256
 431 -11 521 93 521 303 c 256
 521 514 431 617 282 617 c 256
439 281 m 258
 439 133 379 61 282 61 c 256
 185 61 125 133 125 281 c 258
 125 325 l 258
 125 473 185 545 282 545 c 256
 379 545 439 473 439 325 c 258
 439 281 l 258
EndSplineSet
EndChar

StartChar: Omega
Encoding: 937 937 86
Width: 679
VWidth: 0
Flags: W
PickledData: "(dp1
S'org.robofab.postScriptHintData'
p2
(dp3
S'vHints'
p4
((I101
I81
t(I497
I81
ttp5
sS'hHints'
p6
((I0
I74
t(I545
I72
ttp7
ss."
AnchorPoint: "topleft" 18 606 basechar 0
LayerCount: 2
Fore
SplineSet
101 74 m 257
 101 0 l 257
 310 0 l 257
 310 54 l 257
 231 72 182 143 182 270 c 258
 182 325 l 258
 182 473 242 545 339 545 c 256
 437 545 497 473 497 325 c 258
 497 266 l 258
 497 141 448 71 368 54 c 257
 368 0 l 257
 578 0 l 257
 578 74 l 257
 556 74 l 258
 534 74 515 72 496 71 c 257
 548 123 578 200 578 303 c 256
 578 514 488 617 339 617 c 256
 191 617 101 514 101 303 c 256
 101 200 130 123 182 71 c 257
 157 72 137 74 123 74 c 258
 101 74 l 257
EndSplineSet
EndChar

StartChar: Oslash
Encoding: 216 216 87
Width: 564
VWidth: 0
Flags: W
PickledData: "(dp1
S'org.robofab.postScriptHintData'
p2
(dp3
S'replaceTable'
p4
((dp5
S'index'
p6
I0
sS'type'
p7
I255
s(dp8
g6
I0
sg7
I2
s(dp9
g6
I1
sg7
I2
s(dp10
g6
I0
sg7
I1
s(dp11
g6
I1
sg7
I1
s(dp12
g6
I2
sg7
I255
s(dp13
g6
I0
sg7
I2
s(dp14
g6
I1
sg7
I2
s(dp15
g6
I0
sg7
I1
s(dp16
g6
I2
sg7
I1
stp17
sS'vHints'
p18
((I43
I82
t(I439
I82
ttp19
sS'hHints'
p20
((I-11
I72
t(I639
I-20
t(I545
I72
ttp21
ss."
AnchorPoint: "top" 282 606 basechar 0
LayerCount: 2
Fore
SplineSet
521 639 m 257
 464 639 l 257
 423 573 l 257
 385 602 338 617 282 617 c 256
 133 617 43 514 43 303 c 256
 43 198 65 119 107 67 c 257
 44 -33 l 257
 101 -33 l 257
 141 33 l 257
 179 4 226 -11 282 -11 c 256
 431 -11 521 93 521 303 c 256
 521 408 498 486 457 538 c 257
 521 639 l 257
152 140 m 257
 134 175 125 222 125 281 c 258
 125 325 l 258
 125 473 185 545 282 545 c 256
 322 545 355 533 382 507 c 257
 152 140 l 257
412 466 m 257
 430 431 439 384 439 325 c 258
 439 281 l 258
 439 133 379 61 282 61 c 256
 241 61 208 73 182 98 c 257
 412 466 l 257
EndSplineSet
EndChar

StartChar: Oslashacute
Encoding: 510 510 88
Width: 564
VWidth: 0
Flags: W
PickledData: "(dp1
S'org.robofab.postScriptHintData'
p2
(dp3
S'replaceTable'
p4
((dp5
S'index'
p6
I0
sS'type'
p7
I255
s(dp8
g6
I0
sg7
I2
s(dp9
g6
I1
sg7
I2
s(dp10
g6
I0
sg7
I1
s(dp11
g6
I1
sg7
I1
s(dp12
g6
I2
sg7
I1
s(dp13
g6
I5
sg7
I255
s(dp14
g6
I0
sg7
I2
s(dp15
g6
I1
sg7
I2
s(dp16
g6
I0
sg7
I1
s(dp17
g6
I3
sg7
I1
s(dp18
g6
I2
sg7
I1
s(dp19
g6
I7
sg7
I255
s(dp20
g6
I0
sg7
I2
s(dp21
g6
I1
sg7
I2
s(dp22
g6
I0
sg7
I1
s(dp23
g6
I1
sg7
I1
s(dp24
g6
I2
sg7
I1
stp25
sS'vHints'
p26
((I43
I82
t(I439
I82
ttp27
sS'hHints'
p28
((I-11
I72
t(I545
I72
t(I664
I117
t(I639
I-20
ttp29
ss."
LayerCount: 2
Fore
SplineSet
386 778 m 257
 385 781 l 257
 306 781 l 257
 230 664 l 257
 291 664 l 257
 386 778 l 257
521 639 m 257
 464 639 l 257
 423 573 l 257
 385 602 338 617 282 617 c 256
 133 617 43 514 43 303 c 256
 43 198 65 119 107 67 c 257
 44 -33 l 257
 101 -33 l 257
 141 33 l 257
 179 4 226 -11 282 -11 c 256
 431 -11 521 93 521 303 c 256
 521 408 498 486 457 538 c 257
 521 639 l 257
152 140 m 257
 134 175 125 222 125 281 c 258
 125 325 l 258
 125 473 185 545 282 545 c 256
 322 545 355 533 382 507 c 257
 152 140 l 257
412 466 m 257
 430 431 439 384 439 325 c 258
 439 281 l 258
 439 133 379 61 282 61 c 256
 241 61 208 73 182 98 c 257
 412 466 l 257
EndSplineSet
EndChar

StartChar: Otilde
Encoding: 213 213 89
Width: 564
VWidth: 0
Flags: W
PickledData: "(dp1
S'org.robofab.postScriptHintData'
p2
(dp3
S'replaceTable'
p4
((dp5
S'index'
p6
I0
sS'type'
p7
I255
s(dp8
g6
I0
sg7
I2
s(dp9
g6
I1
sg7
I2
s(dp10
g6
I0
sg7
I1
s(dp11
g6
I1
sg7
I1
s(dp12
g6
I2
sg7
I1
s(dp13
g6
I1
sg7
I255
s(dp14
g6
I0
sg7
I2
s(dp15
g6
I1
sg7
I2
s(dp16
g6
I0
sg7
I1
s(dp17
g6
I1
sg7
I1
s(dp18
g6
I3
sg7
I1
s(dp19
g6
I2
sg7
I255
s(dp20
g6
I0
sg7
I2
s(dp21
g6
I1
sg7
I2
s(dp22
g6
I0
sg7
I1
s(dp23
g6
I1
sg7
I1
s(dp24
g6
I2
sg7
I1
s(dp25
g6
I3
sg7
I255
s(dp26
g6
I0
sg7
I2
s(dp27
g6
I1
sg7
I2
s(dp28
g6
I0
sg7
I1
s(dp29
g6
I1
sg7
I1
s(dp30
g6
I3
sg7
I1
s(dp31
g6
I5
sg7
I255
s(dp32
g6
I0
sg7
I2
s(dp33
g6
I1
sg7
I2
s(dp34
g6
I0
sg7
I1
s(dp35
g6
I1
sg7
I1
s(dp36
g6
I2
sg7
I1
s(dp37
g6
I6
sg7
I255
s(dp38
g6
I0
sg7
I2
s(dp39
g6
I1
sg7
I2
s(dp40
g6
I0
sg7
I1
s(dp41
g6
I1
sg7
I1
s(dp42
g6
I3
sg7
I1
s(dp43
g6
I7
sg7
I255
s(dp44
g6
I0
sg7
I2
s(dp45
g6
I1
sg7
I2
s(dp46
g6
I0
sg7
I1
s(dp47
g6
I1
sg7
I1
s(dp48
g6
I2
sg7
I1
stp49
sS'vHints'
p50
((I43
I82
t(I439
I82
ttp51
sS'hHints'
p52
((I-11
I72
t(I545
I72
t(I716
I65
t(I689
I65
ttp53
ss."
LayerCount: 2
Fore
SplineSet
360 781 m 257
 357 760 346 754 330 754 c 256
 295 754 266 781 228 781 c 256
 175 781 153 729 153 689 c 257
 204 689 l 257
 207 709 218 716 234 716 c 256
 269 716 298 689 336 689 c 256
 389 689 411 740 411 781 c 257
 360 781 l 257
282 617 m 256
 133 617 43 514 43 303 c 256
 43 93 133 -11 282 -11 c 256
 431 -11 521 93 521 303 c 256
 521 514 431 617 282 617 c 256
439 281 m 258
 439 133 379 61 282 61 c 256
 185 61 125 133 125 281 c 258
 125 325 l 258
 125 473 185 545 282 545 c 256
 379 545 439 473 439 325 c 258
 439 281 l 258
EndSplineSet
EndChar

StartChar: P
Encoding: 80 80 90
Width: 484
VWidth: 0
Flags: W
PickledData: "(dp1
S'org.robofab.postScriptHintData'
p2
(dp3
S'vHints'
p4
((I62
I78
t(I378
I82
ttp5
sS'hHints'
p6
((I21
I-21
t(I250
I71
t(I536
I70
ttp7
ss."
LayerCount: 2
Fore
SplineSet
62 606 m 257
 62 0 l 257
 140 0 l 257
 140 250 l 257
 278 250 l 258
 391 250 460 323 460 430 c 256
 460 535 398 606 278 606 c 258
 62 606 l 257
140 536 m 257
 276 536 l 258
 342 536 378 495 378 430 c 256
 378 364 338 321 276 321 c 258
 140 321 l 257
 140 536 l 257
EndSplineSet
EndChar

StartChar: Q
Encoding: 81 81 91
Width: 564
VWidth: 0
Flags: W
PickledData: "(dp1
S'org.robofab.postScriptHintData'
p2
(dp3
S'vHints'
p4
((I43
I82
t(I439
I82
ttp5
sS'hHints'
p6
((I-11
I72
t(I545
I72
ttp7
ss."
LayerCount: 2
Fore
SplineSet
293 -11 m 257
 398 -110 l 257
 502 -110 l 257
 377 6 l 257
 468 43 521 142 521 303 c 256
 521 514 431 617 282 617 c 256
 133 617 43 514 43 303 c 256
 43 93 133 -11 282 -11 c 258
 293 -11 l 257
439 281 m 258
 439 133 379 61 282 61 c 256
 185 61 125 133 125 281 c 258
 125 325 l 258
 125 473 185 545 282 545 c 256
 379 545 439 473 439 325 c 258
 439 281 l 258
EndSplineSet
EndChar

StartChar: R
Encoding: 82 82 92
Width: 523
VWidth: 0
Flags: W
PickledData: "(dp1
S'org.robofab.postScriptHintData'
p2
(dp3
S'vHints'
p4
((I62
I78
t(I406
I81
ttp5
sS'hHints'
p6
((I21
I-21
t(I268
I71
t(I536
I70
ttp7
ss."
AnchorPoint: "top" 262 606 basechar 0
AnchorPoint: "bottom" 262 0 basechar 0
LayerCount: 2
Fore
SplineSet
62 606 m 257
 62 0 l 257
 140 0 l 257
 140 268 l 257
 302 268 l 257
 415 0 l 257
 501 0 l 257
 379 282 l 257
 447 305 487 363 487 438 c 256
 487 538 425 606 306 606 c 258
 62 606 l 257
140 536 m 257
 303 536 l 258
 370 536 406 499 406 438 c 256
 406 378 365 339 303 339 c 258
 140 339 l 257
 140 536 l 257
EndSplineSet
EndChar

StartChar: Racute
Encoding: 340 340 93
Width: 523
VWidth: 0
Flags: W
PickledData: "(dp1
S'org.robofab.postScriptHintData'
p2
(dp3
S'vHints'
p4
((I62
I78
t(I406
I81
ttp5
sS'hHints'
p6
((I21
I-21
t(I268
I71
t(I536
I70
t(I664
I117
ttp7
ss."
LayerCount: 2
Fore
SplineSet
346 778 m 257
 345 781 l 257
 265 781 l 257
 189 664 l 257
 251 664 l 257
 346 778 l 257
62 606 m 257
 62 0 l 257
 140 0 l 257
 140 268 l 257
 302 268 l 257
 415 0 l 257
 501 0 l 257
 379 282 l 257
 447 305 487 363 487 438 c 256
 487 538 425 606 306 606 c 258
 62 606 l 257
140 536 m 257
 303 536 l 258
 370 536 406 499 406 438 c 256
 406 378 365 339 303 339 c 258
 140 339 l 257
 140 536 l 257
EndSplineSet
EndChar

StartChar: Rcaron
Encoding: 344 344 94
Width: 523
VWidth: 0
Flags: W
PickledData: "(dp1
S'org.robofab.postScriptHintData'
p2
(dp3
S'vHints'
p4
((I62
I78
t(I406
I81
ttp5
sS'hHints'
p6
((I21
I-21
t(I268
I71
t(I536
I70
t(I661
I120
ttp7
ss."
LayerCount: 2
Fore
SplineSet
295 661 m 257
 372 781 l 257
 301 781 l 257
 262 711 l 257
 222 781 l 257
 151 781 l 257
 226 661 l 257
 295 661 l 257
62 606 m 257
 62 0 l 257
 140 0 l 257
 140 268 l 257
 302 268 l 257
 415 0 l 257
 501 0 l 257
 379 282 l 257
 447 305 487 363 487 438 c 256
 487 538 425 606 306 606 c 258
 62 606 l 257
140 536 m 257
 303 536 l 258
 370 536 406 499 406 438 c 256
 406 378 365 339 303 339 c 258
 140 339 l 257
 140 536 l 257
EndSplineSet
EndChar

StartChar: Rcommaaccent
Encoding: 342 342 95
Width: 523
VWidth: 0
Flags: W
PickledData: "(dp1
S'org.robofab.postScriptHintData'
p2
(dp3
S'vHints'
p4
((I62
I78
t(I224
I76
t(I406
I81
ttp5
sS'hHints'
p6
((I-133
I80
t(I21
I-21
t(I268
I71
t(I536
I70
ttp7
ss."
LayerCount: 2
Fore
SplineSet
62 606 m 257
 62 0 l 257
 140 0 l 257
 140 268 l 257
 302 268 l 257
 415 0 l 257
 501 0 l 257
 379 282 l 257
 447 305 487 363 487 438 c 256
 487 538 425 606 306 606 c 258
 62 606 l 257
140 536 m 257
 303 536 l 258
 370 536 406 499 406 438 c 256
 406 378 365 339 303 339 c 258
 140 339 l 257
 140 536 l 257
300 -127 m 257
 300 -53 l 257
 224 -53 l 257
 224 -133 l 257
 255 -133 l 257
 234 -196 l 257
 274 -196 l 257
 300 -127 l 257
EndSplineSet
EndChar

StartChar: S
Encoding: 83 83 96
Width: 484
VWidth: 0
Flags: W
PickledData: "(dp1
S'org.robofab.postScriptHintData'
p2
(dp3
S'replaceTable'
p4
((dp5
S'index'
p6
I0
sS'type'
p7
I255
s(dp8
g6
I0
sg7
I2
s(dp9
g6
I1
sg7
I2
s(dp10
g6
I0
sg7
I1
s(dp11
g6
I1
sg7
I1
s(dp12
g6
I5
sg7
I255
s(dp13
g6
I2
sg7
I2
s(dp14
g6
I1
sg7
I2
s(dp15
g6
I0
sg7
I1
s(dp16
g6
I1
sg7
I1
s(dp17
g6
I7
sg7
I255
s(dp18
g6
I2
sg7
I2
s(dp19
g6
I3
sg7
I2
s(dp20
g6
I0
sg7
I1
s(dp21
g6
I1
sg7
I1
s(dp22
g6
I13
sg7
I255
s(dp23
g6
I2
sg7
I2
s(dp24
g6
I1
sg7
I2
s(dp25
g6
I0
sg7
I1
s(dp26
g6
I1
sg7
I1
s(dp27
g6
I15
sg7
I255
s(dp28
g6
I0
sg7
I2
s(dp29
g6
I1
sg7
I2
s(dp30
g6
I0
sg7
I1
s(dp31
g6
I1
sg7
I1
stp32
sS'vHints'
p33
((I36
I81
t(I364
I82
t(I49
I82
t(I351
I80
ttp34
sS'hHints'
p35
((I-11
I72
t(I545
I72
ttp36
ss."
AnchorPoint: "top" 242 606 basechar 0
AnchorPoint: "bottom" 242 0 basechar 0
LayerCount: 2
Fore
SplineSet
118 189 m 257
 37 189 l 257
 37 187 36 178 36 171 c 256
 36 38 130 -11 240 -11 c 256
 358 -11 446 39 446 175 c 256
 446 388 131 316 131 461 c 256
 131 519 179 545 243 545 c 256
 304 545 351 511 351 449 c 258
 351 436 l 257
 431 436 l 257
 431 446 l 258
 431 568 347 617 241 617 c 256
 135 617 49 566 49 454 c 256
 49 235 364 315 364 162 c 256
 364 96 318 61 237 61 c 256
 168 61 117 96 117 171 c 257
 118 189 l 257
EndSplineSet
EndChar

StartChar: Sacute
Encoding: 346 346 97
Width: 484
VWidth: 0
Flags: W
PickledData: "(dp1
S'org.robofab.postScriptHintData'
p2
(dp3
S'replaceTable'
p4
((dp5
S'index'
p6
I0
sS'type'
p7
I255
s(dp8
g6
I0
sg7
I2
s(dp9
g6
I1
sg7
I2
s(dp10
g6
I0
sg7
I1
s(dp11
g6
I1
sg7
I1
s(dp12
g6
I2
sg7
I1
s(dp13
g6
I10
sg7
I255
s(dp14
g6
I2
sg7
I2
s(dp15
g6
I1
sg7
I2
s(dp16
g6
I0
sg7
I1
s(dp17
g6
I1
sg7
I1
s(dp18
g6
I2
sg7
I1
s(dp19
g6
I12
sg7
I255
s(dp20
g6
I2
sg7
I2
s(dp21
g6
I3
sg7
I2
s(dp22
g6
I0
sg7
I1
s(dp23
g6
I1
sg7
I1
s(dp24
g6
I2
sg7
I1
s(dp25
g6
I18
sg7
I255
s(dp26
g6
I2
sg7
I2
s(dp27
g6
I1
sg7
I2
s(dp28
g6
I0
sg7
I1
s(dp29
g6
I1
sg7
I1
s(dp30
g6
I2
sg7
I1
s(dp31
g6
I20
sg7
I255
s(dp32
g6
I0
sg7
I2
s(dp33
g6
I1
sg7
I2
s(dp34
g6
I0
sg7
I1
s(dp35
g6
I1
sg7
I1
s(dp36
g6
I2
sg7
I1
stp37
sS'vHints'
p38
((I36
I81
t(I364
I82
t(I49
I82
t(I351
I80
ttp39
sS'hHints'
p40
((I-11
I72
t(I545
I72
t(I664
I117
ttp41
ss."
LayerCount: 2
Fore
SplineSet
346 778 m 257
 345 781 l 257
 265 781 l 257
 189 664 l 257
 250 664 l 257
 346 778 l 257
118 189 m 257
 37 189 l 257
 37 187 36 178 36 171 c 256
 36 38 130 -11 240 -11 c 256
 358 -11 446 39 446 175 c 256
 446 388 131 316 131 461 c 256
 131 519 179 545 243 545 c 256
 304 545 351 511 351 449 c 258
 351 436 l 257
 431 436 l 257
 431 446 l 258
 431 568 347 617 241 617 c 256
 135 617 49 566 49 454 c 256
 49 235 364 315 364 162 c 256
 364 96 318 61 237 61 c 256
 168 61 117 96 117 171 c 257
 118 189 l 257
EndSplineSet
EndChar

StartChar: Scaron
Encoding: 352 352 98
Width: 484
VWidth: 0
Flags: W
PickledData: "(dp1
S'org.robofab.postScriptHintData'
p2
(dp3
S'replaceTable'
p4
((dp5
S'index'
p6
I0
sS'type'
p7
I255
s(dp8
g6
I0
sg7
I2
s(dp9
g6
I1
sg7
I2
s(dp10
g6
I0
sg7
I1
s(dp11
g6
I1
sg7
I1
s(dp12
g6
I2
sg7
I1
s(dp13
g6
I12
sg7
I255
s(dp14
g6
I2
sg7
I2
s(dp15
g6
I1
sg7
I2
s(dp16
g6
I0
sg7
I1
s(dp17
g6
I1
sg7
I1
s(dp18
g6
I2
sg7
I1
s(dp19
g6
I14
sg7
I255
s(dp20
g6
I2
sg7
I2
s(dp21
g6
I3
sg7
I2
s(dp22
g6
I0
sg7
I1
s(dp23
g6
I1
sg7
I1
s(dp24
g6
I2
sg7
I1
s(dp25
g6
I20
sg7
I255
s(dp26
g6
I2
sg7
I2
s(dp27
g6
I1
sg7
I2
s(dp28
g6
I0
sg7
I1
s(dp29
g6
I1
sg7
I1
s(dp30
g6
I2
sg7
I1
s(dp31
g6
I22
sg7
I255
s(dp32
g6
I0
sg7
I2
s(dp33
g6
I1
sg7
I2
s(dp34
g6
I0
sg7
I1
s(dp35
g6
I1
sg7
I1
s(dp36
g6
I2
sg7
I1
stp37
sS'vHints'
p38
((I36
I81
t(I364
I82
t(I49
I82
t(I351
I80
ttp39
sS'hHints'
p40
((I-11
I72
t(I545
I72
t(I661
I120
ttp41
ss."
LayerCount: 2
Fore
SplineSet
276 661 m 257
 352 781 l 257
 281 781 l 257
 241 711 l 257
 202 781 l 257
 132 781 l 257
 207 661 l 257
 276 661 l 257
118 189 m 257
 37 189 l 257
 37 187 36 178 36 171 c 256
 36 38 130 -11 240 -11 c 256
 358 -11 446 39 446 175 c 256
 446 388 131 316 131 461 c 256
 131 519 179 545 243 545 c 256
 304 545 351 511 351 449 c 258
 351 436 l 257
 431 436 l 257
 431 446 l 258
 431 568 347 617 241 617 c 256
 135 617 49 566 49 454 c 256
 49 235 364 315 364 162 c 256
 364 96 318 61 237 61 c 256
 168 61 117 96 117 171 c 257
 118 189 l 257
EndSplineSet
EndChar

StartChar: Scedilla
Encoding: 350 350 99
Width: 484
VWidth: 0
Flags: W
PickledData: "(dp1
S'org.robofab.postScriptHintData'
p2
(dp3
S'replaceTable'
p4
((dp5
S'index'
p6
I0
sS'type'
p7
I255
s(dp8
g6
I0
sg7
I2
s(dp9
g6
I1
sg7
I2
s(dp10
g6
I0
sg7
I1
s(dp11
g6
I1
sg7
I1
s(dp12
g6
I2
sg7
I1
s(dp13
g6
I3
sg7
I255
s(dp14
g6
I0
sg7
I2
s(dp15
g6
I1
sg7
I2
s(dp16
g6
I0
sg7
I1
s(dp17
g6
I1
sg7
I1
s(dp18
g6
I3
sg7
I1
s(dp19
g6
I2
sg7
I1
s(dp20
g6
I4
sg7
I255
s(dp21
g6
I0
sg7
I2
s(dp22
g6
I2
sg7
I2
s(dp23
g6
I1
sg7
I2
s(dp24
g6
I0
sg7
I1
s(dp25
g6
I1
sg7
I1
s(dp26
g6
I2
sg7
I1
s(dp27
g6
I5
sg7
I255
s(dp28
g6
I0
sg7
I2
s(dp29
g6
I3
sg7
I2
s(dp30
g6
I1
sg7
I2
s(dp31
g6
I0
sg7
I1
s(dp32
g6
I1
sg7
I1
s(dp33
g6
I2
sg7
I1
s(dp34
g6
I8
sg7
I255
s(dp35
g6
I0
sg7
I2
s(dp36
g6
I2
sg7
I2
s(dp37
g6
I1
sg7
I2
s(dp38
g6
I0
sg7
I1
s(dp39
g6
I1
sg7
I1
s(dp40
g6
I2
sg7
I1
s(dp41
g6
I10
sg7
I255
s(dp42
g6
I0
sg7
I2
s(dp43
g6
I3
sg7
I2
s(dp44
g6
I1
sg7
I2
s(dp45
g6
I0
sg7
I1
s(dp46
g6
I1
sg7
I1
s(dp47
g6
I2
sg7
I1
s(dp48
g6
I13
sg7
I255
s(dp49
g6
I4
sg7
I2
s(dp50
g6
I2
sg7
I2
s(dp51
g6
I1
sg7
I2
s(dp52
g6
I0
sg7
I1
s(dp53
g6
I1
sg7
I1
s(dp54
g6
I2
sg7
I1
s(dp55
g6
I17
sg7
I255
s(dp56
g6
I4
sg7
I2
s(dp57
g6
I5
sg7
I2
s(dp58
g6
I0
sg7
I1
s(dp59
g6
I1
sg7
I1
s(dp60
g6
I2
sg7
I1
s(dp61
g6
I23
sg7
I255
s(dp62
g6
I4
sg7
I2
s(dp63
g6
I1
sg7
I2
s(dp64
g6
I0
sg7
I1
s(dp65
g6
I1
sg7
I1
s(dp66
g6
I2
sg7
I1
s(dp67
g6
I25
sg7
I255
s(dp68
g6
I0
sg7
I2
s(dp69
g6
I1
sg7
I2
s(dp70
g6
I0
sg7
I1
s(dp71
g6
I1
sg7
I1
s(dp72
g6
I2
sg7
I1
stp73
sS'vHints'
p74
((I36
I81
t(I364
I82
t(I203
I51
t(I258
I67
t(I49
I82
t(I351
I80
ttp75
sS'hHints'
p76
((I-154
I43
t(I-68
I36
t(I545
I72
t(I-9
I70
ttp77
ss."
LayerCount: 2
Fore
SplineSet
118 189 m 257
 37 189 l 257
 37 187 36 178 36 171 c 256
 36 51 111 0 208 -9 c 257
 199 -68 l 257
 228 -68 l 258
 251 -68 258 -75 258 -89 c 256
 258 -106 246 -111 226 -111 c 258
 159 -111 l 257
 159 -154 l 257
 180 -158 208 -161 233 -161 c 256
 269 -161 325 -149 325 -89 c 256
 325 -49 292 -34 254 -32 c 257
 256 -10 l 257
 366 -5 446 45 446 175 c 256
 446 388 131 316 131 461 c 256
 131 519 179 545 243 545 c 256
 304 545 351 511 351 449 c 258
 351 436 l 257
 431 436 l 257
 431 446 l 258
 431 568 347 617 241 617 c 256
 135 617 49 566 49 454 c 256
 49 235 364 315 364 162 c 256
 364 96 318 61 237 61 c 256
 168 61 117 96 117 171 c 257
 118 189 l 257
EndSplineSet
EndChar

StartChar: Scircumflex
Encoding: 348 348 100
Width: 484
VWidth: 0
Flags: W
PickledData: "(dp1
S'org.robofab.postScriptHintData'
p2
(dp3
S'replaceTable'
p4
((dp5
S'index'
p6
I0
sS'type'
p7
I255
s(dp8
g6
I0
sg7
I2
s(dp9
g6
I1
sg7
I2
s(dp10
g6
I0
sg7
I1
s(dp11
g6
I1
sg7
I1
s(dp12
g6
I2
sg7
I1
s(dp13
g6
I12
sg7
I255
s(dp14
g6
I2
sg7
I2
s(dp15
g6
I1
sg7
I2
s(dp16
g6
I0
sg7
I1
s(dp17
g6
I1
sg7
I1
s(dp18
g6
I2
sg7
I1
s(dp19
g6
I14
sg7
I255
s(dp20
g6
I2
sg7
I2
s(dp21
g6
I3
sg7
I2
s(dp22
g6
I0
sg7
I1
s(dp23
g6
I1
sg7
I1
s(dp24
g6
I2
sg7
I1
s(dp25
g6
I20
sg7
I255
s(dp26
g6
I2
sg7
I2
s(dp27
g6
I1
sg7
I2
s(dp28
g6
I0
sg7
I1
s(dp29
g6
I1
sg7
I1
s(dp30
g6
I2
sg7
I1
s(dp31
g6
I22
sg7
I255
s(dp32
g6
I0
sg7
I2
s(dp33
g6
I1
sg7
I2
s(dp34
g6
I0
sg7
I1
s(dp35
g6
I1
sg7
I1
s(dp36
g6
I2
sg7
I1
stp37
sS'vHints'
p38
((I36
I81
t(I364
I82
t(I49
I82
t(I351
I80
ttp39
sS'hHints'
p40
((I-11
I72
t(I545
I72
t(I660
I120
ttp41
ss."
LayerCount: 2
Fore
SplineSet
352 660 m 257
 277 780 l 257
 208 780 l 257
 132 660 l 257
 202 660 l 257
 242 730 l 257
 281 660 l 257
 352 660 l 257
118 189 m 257
 37 189 l 257
 37 187 36 178 36 171 c 256
 36 38 130 -11 240 -11 c 256
 358 -11 446 39 446 175 c 256
 446 388 131 316 131 461 c 256
 131 519 179 545 243 545 c 256
 304 545 351 511 351 449 c 258
 351 436 l 257
 431 436 l 257
 431 446 l 258
 431 568 347 617 241 617 c 256
 135 617 49 566 49 454 c 256
 49 235 364 315 364 162 c 256
 364 96 318 61 237 61 c 256
 168 61 117 96 117 171 c 257
 118 189 l 257
EndSplineSet
EndChar

StartChar: Scommaaccent
Encoding: 536 536 101
Width: 484
VWidth: 0
Flags: W
PickledData: "(dp1
S'org.robofab.postScriptHintData'
p2
(dp3
S'replaceTable'
p4
((dp5
S'index'
p6
I0
sS'type'
p7
I255
s(dp8
g6
I0
sg7
I2
s(dp9
g6
I1
sg7
I2
s(dp10
g6
I2
sg7
I2
s(dp11
g6
I0
sg7
I1
s(dp12
g6
I1
sg7
I1
s(dp13
g6
I2
sg7
I1
s(dp14
g6
I5
sg7
I255
s(dp15
g6
I3
sg7
I2
s(dp16
g6
I1
sg7
I2
s(dp17
g6
I2
sg7
I2
s(dp18
g6
I0
sg7
I1
s(dp19
g6
I1
sg7
I1
s(dp20
g6
I2
sg7
I1
s(dp21
g6
I7
sg7
I255
s(dp22
g6
I3
sg7
I2
s(dp23
g6
I1
sg7
I2
s(dp24
g6
I4
sg7
I2
s(dp25
g6
I0
sg7
I1
s(dp26
g6
I1
sg7
I1
s(dp27
g6
I2
sg7
I1
s(dp28
g6
I13
sg7
I255
s(dp29
g6
I3
sg7
I2
s(dp30
g6
I1
sg7
I2
s(dp31
g6
I2
sg7
I2
s(dp32
g6
I0
sg7
I1
s(dp33
g6
I1
sg7
I1
s(dp34
g6
I2
sg7
I1
s(dp35
g6
I15
sg7
I255
s(dp36
g6
I0
sg7
I2
s(dp37
g6
I1
sg7
I2
s(dp38
g6
I2
sg7
I2
s(dp39
g6
I0
sg7
I1
s(dp40
g6
I1
sg7
I1
s(dp41
g6
I2
sg7
I1
stp42
sS'vHints'
p43
((I36
I81
t(I204
I75
t(I364
I82
t(I49
I82
t(I351
I80
ttp44
sS'hHints'
p45
((I-133
I80
t(I-11
I72
t(I545
I72
ttp46
ss."
LayerCount: 2
Fore
SplineSet
118 189 m 257
 37 189 l 257
 37 187 36 178 36 171 c 256
 36 38 130 -11 240 -11 c 256
 358 -11 446 39 446 175 c 256
 446 388 131 316 131 461 c 256
 131 519 179 545 243 545 c 256
 304 545 351 511 351 449 c 258
 351 436 l 257
 431 436 l 257
 431 446 l 258
 431 568 347 617 241 617 c 256
 135 617 49 566 49 454 c 256
 49 235 364 315 364 162 c 256
 364 96 318 61 237 61 c 256
 168 61 117 96 117 171 c 257
 118 189 l 257
279 -127 m 257
 279 -53 l 257
 204 -53 l 257
 204 -133 l 257
 234 -133 l 257
 213 -196 l 257
 253 -196 l 257
 279 -127 l 257
EndSplineSet
EndChar

StartChar: T
Encoding: 84 84 102
Width: 443
VWidth: 0
Flags: W
PickledData: "(dp1
S'org.robofab.postScriptHintData'
p2
(dp3
S'vHints'
p4
((I182
I78
ttp5
sS'hHints'
p6
((I21
I-21
t(I536
I70
ttp7
ss."
AnchorPoint: "top" 222 606 basechar 0
AnchorPoint: "center" 222 303 basechar 0
AnchorPoint: "bottom" 222 0 basechar 0
LayerCount: 2
Fore
SplineSet
425 536 m 257
 425 606 l 257
 17 606 l 257
 17 536 l 257
 182 536 l 257
 182 0 l 257
 260 0 l 257
 260 536 l 257
 425 536 l 257
EndSplineSet
EndChar

StartChar: Tbar
Encoding: 358 358 103
Width: 443
VWidth: 0
Flags: W
PickledData: "(dp1
S'org.robofab.postScriptHintData'
p2
(dp3
S'vHints'
p4
((I182
I78
ttp5
sS'hHints'
p6
((I21
I-21
t(I283
I64
t(I536
I70
ttp7
ss."
LayerCount: 2
Fore
SplineSet
425 536 m 257
 425 606 l 257
 17 606 l 257
 17 536 l 257
 182 536 l 257
 182 347 l 257
 68 347 l 257
 68 283 l 257
 182 283 l 257
 182 0 l 257
 260 0 l 257
 260 283 l 257
 376 283 l 257
 376 347 l 257
 260 347 l 257
 260 536 l 257
 425 536 l 257
EndSplineSet
EndChar

StartChar: Tcaron
Encoding: 356 356 104
Width: 443
VWidth: 0
Flags: W
PickledData: "(dp1
S'org.robofab.postScriptHintData'
p2
(dp3
S'vHints'
p4
((I182
I78
ttp5
sS'hHints'
p6
((I21
I-21
t(I536
I70
t(I661
I120
ttp7
ss."
LayerCount: 2
Fore
SplineSet
255 661 m 257
 331 781 l 257
 261 781 l 257
 221 711 l 257
 182 781 l 257
 111 781 l 257
 187 661 l 257
 255 661 l 257
425 536 m 257
 425 606 l 257
 17 606 l 257
 17 536 l 257
 182 536 l 257
 182 0 l 257
 260 0 l 257
 260 536 l 257
 425 536 l 257
EndSplineSet
EndChar

StartChar: Tcedilla
Encoding: 354 354 105
Width: 443
VWidth: 0
Flags: W
PickledData: "(dp1
S'org.robofab.postScriptHintData'
p2
(dp3
S'replaceTable'
p4
((dp5
S'index'
p6
I0
sS'type'
p7
I255
s(dp8
g6
I0
sg7
I2
s(dp9
g6
I0
sg7
I1
s(dp10
g6
I1
sg7
I1
s(dp11
g6
I2
sg7
I1
s(dp12
g6
I3
sg7
I1
s(dp13
g6
I8
sg7
I255
s(dp14
g6
I1
sg7
I2
s(dp15
g6
I0
sg7
I1
s(dp16
g6
I1
sg7
I1
s(dp17
g6
I2
sg7
I1
s(dp18
g6
I3
sg7
I1
s(dp19
g6
I16
sg7
I255
s(dp20
g6
I0
sg7
I2
s(dp21
g6
I0
sg7
I1
s(dp22
g6
I1
sg7
I1
s(dp23
g6
I2
sg7
I1
s(dp24
g6
I3
sg7
I1
stp25
sS'vHints'
p26
((I182
I78
t(I238
I67
ttp27
sS'hHints'
p28
((I-154
I43
t(I-68
I36
t(I21
I-21
t(I536
I70
ttp29
ss."
LayerCount: 2
Fore
SplineSet
425 536 m 257
 425 606 l 257
 17 606 l 257
 17 536 l 257
 182 536 l 257
 182 0 l 257
 189 0 l 257
 179 -68 l 257
 208 -68 l 258
 231 -68 238 -75 238 -89 c 256
 238 -106 225 -111 206 -111 c 258
 139 -111 l 257
 139 -154 l 257
 160 -158 188 -161 213 -161 c 256
 249 -161 305 -149 305 -89 c 256
 305 -49 271 -34 233 -32 c 257
 238 0 l 257
 260 0 l 257
 260 536 l 257
 425 536 l 257
EndSplineSet
EndChar

StartChar: Thorn
Encoding: 222 222 106
Width: 484
VWidth: 0
Flags: W
PickledData: "(dp1
S'org.robofab.postScriptHintData'
p2
(dp3
S'vHints'
p4
((I62
I78
t(I378
I82
ttp5
sS'hHints'
p6
((I21
I-21
t(I130
I71
t(I415
I71
t(I606
I-20
ttp7
ss."
LayerCount: 2
Fore
SplineSet
140 486 m 257
 140 606 l 257
 62 606 l 257
 62 0 l 257
 140 0 l 257
 140 130 l 257
 278 130 l 258
 391 130 460 202 460 309 c 256
 460 415 398 486 278 486 c 258
 140 486 l 257
140 415 m 257
 276 415 l 258
 342 415 378 375 378 309 c 256
 378 244 338 201 276 201 c 258
 140 201 l 257
 140 415 l 257
EndSplineSet
EndChar

StartChar: U
Encoding: 85 85 107
Width: 523
VWidth: 0
Flags: W
PickledData: "(dp1
S'org.robofab.postScriptHintData'
p2
(dp3
S'vHints'
p4
((I62
I78
t(I384
I77
ttp5
sS'hHints'
p6
((I-11
I72
t(I606
I-20
ttp7
ss."
AnchorPoint: "top" 262 606 basechar 0
AnchorPoint: "ogonek" 471 9 basechar 0
LayerCount: 2
Fore
SplineSet
461 606 m 257
 384 606 l 257
 384 193 l 258
 384 107 338 61 262 61 c 256
 186 61 140 107 140 193 c 258
 140 606 l 257
 62 606 l 257
 62 197 l 258
 62 61 137 -11 262 -11 c 256
 386 -11 461 61 461 197 c 258
 461 606 l 257
EndSplineSet
EndChar

StartChar: Uacute
Encoding: 218 218 108
Width: 523
VWidth: 0
Flags: W
PickledData: "(dp1
S'org.robofab.postScriptHintData'
p2
(dp3
S'vHints'
p4
((I62
I78
t(I384
I77
ttp5
sS'hHints'
p6
((I-11
I72
t(I606
I-20
t(I664
I117
ttp7
ss."
LayerCount: 2
Fore
SplineSet
365 778 m 257
 364 781 l 257
 285 781 l 257
 209 664 l 257
 271 664 l 257
 365 778 l 257
461 606 m 257
 384 606 l 257
 384 193 l 258
 384 107 338 61 262 61 c 256
 186 61 140 107 140 193 c 258
 140 606 l 257
 62 606 l 257
 62 197 l 258
 62 61 137 -11 262 -11 c 256
 386 -11 461 61 461 197 c 258
 461 606 l 257
EndSplineSet
EndChar

StartChar: Ubreve
Encoding: 364 364 109
Width: 523
VWidth: 0
Flags: W
PickledData: "(dp1
S'org.robofab.postScriptHintData'
p2
(dp3
S'vHints'
p4
((I62
I78
t(I384
I77
ttp5
sS'hHints'
p6
((I-11
I72
t(I606
I-20
t(I695
I56
ttp7
ss."
LayerCount: 2
Fore
SplineSet
315 781 m 257
 313 768 292 751 262 751 c 256
 232 751 212 768 210 781 c 257
 152 781 l 257
 152 741 194 695 262 695 c 256
 330 695 371 741 371 781 c 257
 315 781 l 257
461 606 m 257
 384 606 l 257
 384 193 l 258
 384 107 338 61 262 61 c 256
 186 61 140 107 140 193 c 258
 140 606 l 257
 62 606 l 257
 62 197 l 258
 62 61 137 -11 262 -11 c 256
 386 -11 461 61 461 197 c 258
 461 606 l 257
EndSplineSet
EndChar

StartChar: Ucircumflex
Encoding: 219 219 110
Width: 523
VWidth: 0
Flags: W
PickledData: "(dp1
S'org.robofab.postScriptHintData'
p2
(dp3
S'vHints'
p4
((I62
I78
t(I384
I77
ttp5
sS'hHints'
p6
((I-11
I72
t(I606
I-20
t(I660
I120
ttp7
ss."
LayerCount: 2
Fore
SplineSet
372 660 m 257
 296 780 l 257
 227 780 l 257
 151 660 l 257
 222 660 l 257
 263 730 l 257
 301 660 l 257
 372 660 l 257
461 606 m 257
 384 606 l 257
 384 193 l 258
 384 107 338 61 262 61 c 256
 186 61 140 107 140 193 c 258
 140 606 l 257
 62 606 l 257
 62 197 l 258
 62 61 137 -11 262 -11 c 256
 386 -11 461 61 461 197 c 258
 461 606 l 257
EndSplineSet
EndChar

StartChar: Udieresis
Encoding: 220 220 111
Width: 523
VWidth: 0
Flags: W
PickledData: "(dp1
S'org.robofab.postScriptHintData'
p2
(dp3
S'replaceTable'
p4
((dp5
S'index'
p6
I0
sS'type'
p7
I255
s(dp8
g6
I0
sg7
I2
s(dp9
g6
I1
sg7
I2
s(dp10
g6
I2
sg7
I2
s(dp11
g6
I0
sg7
I1
s(dp12
g6
I1
sg7
I1
s(dp13
g6
I2
sg7
I1
s(dp14
g6
I8
sg7
I255
s(dp15
g6
I0
sg7
I2
s(dp16
g6
I2
sg7
I2
s(dp17
g6
I3
sg7
I2
s(dp18
g6
I0
sg7
I1
s(dp19
g6
I1
sg7
I1
s(dp20
g6
I2
sg7
I1
stp21
sS'vHints'
p22
((I62
I78
t(I156
I77
t(I289
I78
t(I384
I77
ttp23
sS'hHints'
p24
((I-11
I72
t(I606
I-20
t(I697
I84
ttp25
ss."
LayerCount: 2
Fore
SplineSet
233 697 m 257
 233 781 l 257
 156 781 l 257
 156 697 l 257
 233 697 l 257
367 697 m 257
 367 781 l 257
 289 781 l 257
 289 697 l 257
 367 697 l 257
461 606 m 257
 384 606 l 257
 384 193 l 258
 384 107 338 61 262 61 c 256
 186 61 140 107 140 193 c 258
 140 606 l 257
 62 606 l 257
 62 197 l 258
 62 61 137 -11 262 -11 c 256
 386 -11 461 61 461 197 c 258
 461 606 l 257
EndSplineSet
EndChar

StartChar: Ugrave
Encoding: 217 217 112
Width: 523
VWidth: 0
Flags: W
PickledData: "(dp1
S'org.robofab.postScriptHintData'
p2
(dp3
S'vHints'
p4
((I62
I78
t(I384
I77
ttp5
sS'hHints'
p6
((I-11
I72
t(I606
I-20
t(I664
I117
ttp7
ss."
LayerCount: 2
Fore
SplineSet
314 664 m 257
 239 781 l 257
 158 781 l 257
 157 778 l 257
 254 664 l 257
 314 664 l 257
461 606 m 257
 384 606 l 257
 384 193 l 258
 384 107 338 61 262 61 c 256
 186 61 140 107 140 193 c 258
 140 606 l 257
 62 606 l 257
 62 197 l 258
 62 61 137 -11 262 -11 c 256
 386 -11 461 61 461 197 c 258
 461 606 l 257
EndSplineSet
EndChar

StartChar: Uhungarumlaut
Encoding: 368 368 113
Width: 523
VWidth: 0
Flags: W
PickledData: "(dp1
S'org.robofab.postScriptHintData'
p2
(dp3
S'vHints'
p4
((I62
I78
t(I384
I77
ttp5
sS'hHints'
p6
((I-11
I72
t(I606
I-20
t(I664
I117
ttp7
ss."
LayerCount: 2
Fore
SplineSet
312 778 m 257
 311 781 l 257
 232 781 l 257
 177 664 l 257
 238 664 l 257
 312 778 l 257
427 778 m 257
 426 781 l 257
 347 781 l 257
 293 664 l 257
 353 664 l 257
 427 778 l 257
461 606 m 257
 384 606 l 257
 384 193 l 258
 384 107 338 61 262 61 c 256
 186 61 140 107 140 193 c 258
 140 606 l 257
 62 606 l 257
 62 197 l 258
 62 61 137 -11 262 -11 c 256
 386 -11 461 61 461 197 c 258
 461 606 l 257
EndSplineSet
EndChar

StartChar: Umacron
Encoding: 362 362 114
Width: 523
VWidth: 0
Flags: W
PickledData: "(dp1
S'org.robofab.postScriptHintData'
p2
(dp3
S'replaceTable'
p4
((dp5
S'index'
p6
I0
sS'type'
p7
I255
s(dp8
g6
I0
sg7
I2
s(dp9
g6
I1
sg7
I2
s(dp10
g6
I2
sg7
I2
s(dp11
g6
I0
sg7
I1
s(dp12
g6
I1
sg7
I1
s(dp13
g6
I2
sg7
I1
s(dp14
g6
I4
sg7
I255
s(dp15
g6
I0
sg7
I2
s(dp16
g6
I2
sg7
I2
s(dp17
g6
I0
sg7
I1
s(dp18
g6
I1
sg7
I1
s(dp19
g6
I2
sg7
I1
stp20
sS'vHints'
p21
((I62
I78
t(I151
I221
t(I384
I77
ttp22
sS'hHints'
p23
((I-11
I72
t(I606
I-20
t(I671
I64
ttp24
ss."
LayerCount: 2
Fore
SplineSet
372 671 m 257
 372 735 l 257
 151 735 l 257
 151 671 l 257
 372 671 l 257
461 606 m 257
 384 606 l 257
 384 193 l 258
 384 107 338 61 262 61 c 256
 186 61 140 107 140 193 c 258
 140 606 l 257
 62 606 l 257
 62 197 l 258
 62 61 137 -11 262 -11 c 256
 386 -11 461 61 461 197 c 258
 461 606 l 257
EndSplineSet
EndChar

StartChar: Uogonek
Encoding: 370 370 115
Width: 523
VWidth: 0
Flags: W
PickledData: "(dp1
S'org.robofab.postScriptHintData'
p2
(dp3
S'replaceTable'
p4
((dp5
S'index'
p6
I0
sS'type'
p7
I255
s(dp8
g6
I0
sg7
I2
s(dp9
g6
I1
sg7
I2
s(dp10
g6
I2
sg7
I2
s(dp11
g6
I0
sg7
I1
s(dp12
g6
I1
sg7
I1
s(dp13
g6
I2
sg7
I1
s(dp14
g6
I10
sg7
I255
s(dp15
g6
I0
sg7
I2
s(dp16
g6
I1
sg7
I2
s(dp17
g6
I2
sg7
I2
s(dp18
g6
I3
sg7
I1
s(dp19
g6
I1
sg7
I1
s(dp20
g6
I2
sg7
I1
s(dp21
g6
I12
sg7
I255
s(dp22
g6
I0
sg7
I2
s(dp23
g6
I1
sg7
I2
s(dp24
g6
I2
sg7
I2
s(dp25
g6
I0
sg7
I1
s(dp26
g6
I1
sg7
I1
s(dp27
g6
I2
sg7
I1
s(dp28
g6
I13
sg7
I255
s(dp29
g6
I0
sg7
I2
s(dp30
g6
I1
sg7
I2
s(dp31
g6
I2
sg7
I2
s(dp32
g6
I4
sg7
I1
s(dp33
g6
I1
sg7
I1
s(dp34
g6
I2
sg7
I1
stp35
sS'vHints'
p36
((I62
I78
t(I258
I69
t(I384
I77
ttp37
sS'hHints'
p38
((I-128
I-21
t(I-11
I72
t(I606
I-20
t(I-161
I58
t(I-149
I46
ttp39
ss."
LayerCount: 2
Fore
SplineSet
461 606 m 257
 384 606 l 257
 384 193 l 258
 384 107 338 61 262 61 c 256
 186 61 140 107 140 193 c 258
 140 606 l 257
 62 606 l 257
 62 197 l 258
 62 61 137 -11 262 -11 c 256
 270 -11 276 -11 282 -10 c 257
 268 -29 258 -51 258 -81 c 256
 258 -142 303 -161 341 -161 c 256
 359 -161 377 -156 395 -149 c 257
 395 -103 l 257
 368 -103 l 258
 338 -103 327 -80 327 -55 c 256
 327 -31 340 -8 351 4 c 257
 421 33 461 97 461 197 c 258
 461 606 l 257
EndSplineSet
EndChar

StartChar: Uring
Encoding: 366 366 116
Width: 523
VWidth: 0
Flags: W
PickledData: "(dp1
S'org.robofab.postScriptHintData'
p2
(dp3
S'vHints'
p4
((I62
I78
t(I177
I40
t(I307
I40
t(I384
I77
ttp5
sS'hHints'
p6
((I-11
I72
t(I606
I-20
t(I639
I40
t(I769
I40
ttp7
ss."
LayerCount: 2
Fore
SplineSet
262 809 m 256
 215 809 177 771 177 724 c 256
 177 676 216 639 262 639 c 256
 309 639 347 677 347 724 c 256
 347 770 309 809 262 809 c 256
262 769 m 256
 286 769 307 749 307 724 c 256
 307 699 286 679 262 679 c 256
 237 679 217 699 217 724 c 256
 217 749 237 769 262 769 c 256
461 606 m 257
 384 606 l 257
 384 193 l 258
 384 107 338 61 262 61 c 256
 186 61 140 107 140 193 c 258
 140 606 l 257
 62 606 l 257
 62 197 l 258
 62 61 137 -11 262 -11 c 256
 386 -11 461 61 461 197 c 258
 461 606 l 257
EndSplineSet
EndChar

StartChar: Utilde
Encoding: 360 360 117
Width: 523
VWidth: 0
Flags: W
PickledData: "(dp1
S'org.robofab.postScriptHintData'
p2
(dp3
S'replaceTable'
p4
((dp5
S'index'
p6
I0
sS'type'
p7
I255
s(dp8
g6
I0
sg7
I2
s(dp9
g6
I1
sg7
I2
s(dp10
g6
I0
sg7
I1
s(dp11
g6
I1
sg7
I1
s(dp12
g6
I2
sg7
I1
s(dp13
g6
I1
sg7
I255
s(dp14
g6
I0
sg7
I2
s(dp15
g6
I1
sg7
I2
s(dp16
g6
I0
sg7
I1
s(dp17
g6
I1
sg7
I1
s(dp18
g6
I3
sg7
I1
s(dp19
g6
I2
sg7
I255
s(dp20
g6
I0
sg7
I2
s(dp21
g6
I1
sg7
I2
s(dp22
g6
I0
sg7
I1
s(dp23
g6
I1
sg7
I1
s(dp24
g6
I2
sg7
I1
s(dp25
g6
I3
sg7
I255
s(dp26
g6
I0
sg7
I2
s(dp27
g6
I1
sg7
I2
s(dp28
g6
I0
sg7
I1
s(dp29
g6
I1
sg7
I1
s(dp30
g6
I3
sg7
I1
s(dp31
g6
I5
sg7
I255
s(dp32
g6
I0
sg7
I2
s(dp33
g6
I1
sg7
I2
s(dp34
g6
I0
sg7
I1
s(dp35
g6
I1
sg7
I1
s(dp36
g6
I2
sg7
I1
s(dp37
g6
I6
sg7
I255
s(dp38
g6
I0
sg7
I2
s(dp39
g6
I1
sg7
I2
s(dp40
g6
I0
sg7
I1
s(dp41
g6
I1
sg7
I1
s(dp42
g6
I3
sg7
I1
s(dp43
g6
I7
sg7
I255
s(dp44
g6
I0
sg7
I2
s(dp45
g6
I1
sg7
I2
s(dp46
g6
I0
sg7
I1
s(dp47
g6
I1
sg7
I1
s(dp48
g6
I2
sg7
I1
stp49
sS'vHints'
p50
((I62
I78
t(I384
I77
ttp51
sS'hHints'
p52
((I-11
I72
t(I606
I-20
t(I716
I65
t(I689
I65
ttp53
ss."
LayerCount: 2
Fore
SplineSet
339 781 m 257
 337 760 325 754 309 754 c 256
 275 754 246 781 208 781 c 256
 155 781 133 729 133 689 c 257
 184 689 l 257
 187 709 198 716 214 716 c 256
 248 716 277 689 316 689 c 256
 369 689 391 740 391 781 c 257
 339 781 l 257
461 606 m 257
 384 606 l 257
 384 193 l 258
 384 107 338 61 262 61 c 256
 186 61 140 107 140 193 c 258
 140 606 l 257
 62 606 l 257
 62 197 l 258
 62 61 137 -11 262 -11 c 256
 386 -11 461 61 461 197 c 258
 461 606 l 257
EndSplineSet
EndChar

StartChar: V
Encoding: 86 86 118
Width: 484
VWidth: 0
Flags: W
PickledData: "(dp1
S'org.robofab.postScriptHintData'
p2
(dp3
S'vHints'
p4
((I7
I469
ttp5
sS'hHints'
p6
((I0
I86
t(I606
I-20
ttp7
ss."
LayerCount: 2
Fore
SplineSet
292 0 m 257
 476 606 l 257
 401 606 l 257
 247 86 l 257
 243 86 l 257
 93 606 l 257
 7 606 l 257
 192 0 l 257
 292 0 l 257
EndSplineSet
EndChar

StartChar: W
Encoding: 87 87 119
Width: 684
VWidth: 0
Flags: W
PickledData: "(dp1
S'org.robofab.postScriptHintData'
p2
(dp3
S'vHints'
p4
((I9
I666
ttp5
sS'hHints'
p6
((I0
I80
t(I533
I73
ttp7
ss."
AnchorPoint: "top" 342 606 basechar 0
LayerCount: 2
Fore
SplineSet
535 0 m 257
 675 606 l 257
 605 606 l 257
 512 187 l 258
 503 148 493 80 493 80 c 257
 490 80 l 257
 490 80 482 143 474 187 c 258
 399 606 l 257
 291 606 l 257
 221 187 l 258
 212 134 206 80 206 80 c 257
 202 80 l 257
 202 80 192 152 184 187 c 258
 91 606 l 257
 9 606 l 257
 149 0 l 257
 250 0 l 257
 323 411 l 258
 330 452 339 533 339 533 c 257
 343 533 l 257
 343 533 353 452 360 411 c 258
 434 0 l 257
 535 0 l 257
EndSplineSet
EndChar

StartChar: Wacute
Encoding: 7810 7810 120
Width: 684
VWidth: 0
Flags: W
PickledData: "(dp1
S'org.robofab.postScriptHintData'
p2
(dp3
S'vHints'
p4
((I9
I666
ttp5
sS'hHints'
p6
((I0
I80
t(I533
I73
t(I664
I117
ttp7
ss."
LayerCount: 2
Fore
SplineSet
446 778 m 257
 445 781 l 257
 366 781 l 257
 290 664 l 257
 351 664 l 257
 446 778 l 257
535 0 m 257
 675 606 l 257
 605 606 l 257
 512 187 l 258
 503 148 493 80 493 80 c 257
 490 80 l 257
 490 80 482 143 474 187 c 258
 399 606 l 257
 291 606 l 257
 221 187 l 258
 212 134 206 80 206 80 c 257
 202 80 l 257
 202 80 192 152 184 187 c 258
 91 606 l 257
 9 606 l 257
 149 0 l 257
 250 0 l 257
 323 411 l 258
 330 452 339 533 339 533 c 257
 343 533 l 257
 343 533 353 452 360 411 c 258
 434 0 l 257
 535 0 l 257
EndSplineSet
EndChar

StartChar: Wcircumflex
Encoding: 372 372 121
Width: 684
VWidth: 0
Flags: W
PickledData: "(dp1
S'org.robofab.postScriptHintData'
p2
(dp3
S'vHints'
p4
((I9
I666
ttp5
sS'hHints'
p6
((I0
I80
t(I533
I73
t(I660
I120
ttp7
ss."
LayerCount: 2
Fore
SplineSet
453 660 m 257
 377 780 l 257
 309 780 l 257
 232 660 l 257
 303 660 l 257
 343 730 l 257
 382 660 l 257
 453 660 l 257
535 0 m 257
 675 606 l 257
 605 606 l 257
 512 187 l 258
 503 148 493 80 493 80 c 257
 490 80 l 257
 490 80 482 143 474 187 c 258
 399 606 l 257
 291 606 l 257
 221 187 l 258
 212 134 206 80 206 80 c 257
 202 80 l 257
 202 80 192 152 184 187 c 258
 91 606 l 257
 9 606 l 257
 149 0 l 257
 250 0 l 257
 323 411 l 258
 330 452 339 533 339 533 c 257
 343 533 l 257
 343 533 353 452 360 411 c 258
 434 0 l 257
 535 0 l 257
EndSplineSet
EndChar

StartChar: Wdieresis
Encoding: 7812 7812 122
Width: 684
VWidth: 0
Flags: W
PickledData: "(dp1
S'org.robofab.postScriptHintData'
p2
(dp3
S'vHints'
p4
((I238
I76
t(I370
I77
ttp5
sS'hHints'
p6
((I0
I80
t(I533
I73
t(I697
I84
ttp7
ss."
LayerCount: 2
Fore
SplineSet
314 697 m 257
 314 781 l 257
 238 781 l 257
 238 697 l 257
 314 697 l 257
447 697 m 257
 447 781 l 257
 370 781 l 257
 370 697 l 257
 447 697 l 257
535 0 m 257
 675 606 l 257
 605 606 l 257
 512 187 l 258
 503 148 493 80 493 80 c 257
 490 80 l 257
 490 80 482 143 474 187 c 258
 399 606 l 257
 291 606 l 257
 221 187 l 258
 212 134 206 80 206 80 c 257
 202 80 l 257
 202 80 192 152 184 187 c 258
 91 606 l 257
 9 606 l 257
 149 0 l 257
 250 0 l 257
 323 411 l 258
 330 452 339 533 339 533 c 257
 343 533 l 257
 343 533 353 452 360 411 c 258
 434 0 l 257
 535 0 l 257
EndSplineSet
EndChar

StartChar: Wgrave
Encoding: 7808 7808 123
Width: 684
VWidth: 0
Flags: W
PickledData: "(dp1
S'org.robofab.postScriptHintData'
p2
(dp3
S'vHints'
p4
((I9
I666
ttp5
sS'hHints'
p6
((I0
I80
t(I533
I73
t(I664
I117
ttp7
ss."
LayerCount: 2
Fore
SplineSet
395 664 m 257
 319 781 l 257
 240 781 l 257
 239 778 l 257
 334 664 l 257
 395 664 l 257
535 0 m 257
 675 606 l 257
 605 606 l 257
 512 187 l 258
 503 148 493 80 493 80 c 257
 490 80 l 257
 490 80 482 143 474 187 c 258
 399 606 l 257
 291 606 l 257
 221 187 l 258
 212 134 206 80 206 80 c 257
 202 80 l 257
 202 80 192 152 184 187 c 258
 91 606 l 257
 9 606 l 257
 149 0 l 257
 250 0 l 257
 323 411 l 258
 330 452 339 533 339 533 c 257
 343 533 l 257
 343 533 353 452 360 411 c 258
 434 0 l 257
 535 0 l 257
EndSplineSet
EndChar

StartChar: X
Encoding: 88 88 124
Width: 484
VWidth: 0
Flags: W
PickledData: "(dp1
S'org.robofab.postScriptHintData'
p2
(dp3
S'vHints'
p4
((I4
I476
ttp5
sS'hHints'
p6
((I21
I-21
t(I606
I-20
ttp7
ss."
LayerCount: 2
Fore
SplineSet
388 0 m 257
 480 0 l 257
 285 322 l 257
 461 606 l 257
 377 606 l 257
 244 390 l 257
 113 606 l 257
 21 606 l 257
 197 315 l 257
 4 0 l 257
 87 0 l 257
 239 248 l 257
 388 0 l 257
EndSplineSet
EndChar

StartChar: Y
Encoding: 89 89 125
Width: 484
VWidth: 0
Flags: W
PickledData: "(dp1
S'org.robofab.postScriptHintData'
p2
(dp3
S'vHints'
p4
((I203
I78
ttp5
sS'hHints'
p6
((I21
I-21
t(I606
I-20
ttp7
ss."
AnchorPoint: "top" 242 606 basechar 0
LayerCount: 2
Fore
SplineSet
281 251 m 257
 476 606 l 257
 401 606 l 257
 250 325 l 257
 247 325 l 257
 93 606 l 257
 7 606 l 257
 203 251 l 257
 203 0 l 257
 281 0 l 257
 281 251 l 257
EndSplineSet
EndChar

StartChar: Yacute
Encoding: 221 221 126
Width: 484
VWidth: 0
Flags: W
PickledData: "(dp1
S'org.robofab.postScriptHintData'
p2
(dp3
S'vHints'
p4
((I203
I78
ttp5
sS'hHints'
p6
((I21
I-21
t(I606
I-20
t(I664
I117
ttp7
ss."
LayerCount: 2
Fore
SplineSet
346 778 m 257
 345 781 l 257
 265 781 l 257
 189 664 l 257
 250 664 l 257
 346 778 l 257
281 251 m 257
 476 606 l 257
 401 606 l 257
 250 325 l 257
 247 325 l 257
 93 606 l 257
 7 606 l 257
 203 251 l 257
 203 0 l 257
 281 0 l 257
 281 251 l 257
EndSplineSet
EndChar

StartChar: Ycircumflex
Encoding: 374 374 127
Width: 484
VWidth: 0
Flags: W
PickledData: "(dp1
S'org.robofab.postScriptHintData'
p2
(dp3
S'vHints'
p4
((I203
I78
ttp5
sS'hHints'
p6
((I21
I-21
t(I606
I-20
t(I660
I120
ttp7
ss."
LayerCount: 2
Fore
SplineSet
352 660 m 257
 277 780 l 257
 208 780 l 257
 132 660 l 257
 202 660 l 257
 242 730 l 257
 281 660 l 257
 352 660 l 257
281 251 m 257
 476 606 l 257
 401 606 l 257
 250 325 l 257
 247 325 l 257
 93 606 l 257
 7 606 l 257
 203 251 l 257
 203 0 l 257
 281 0 l 257
 281 251 l 257
EndSplineSet
EndChar

StartChar: Ydieresis
Encoding: 376 376 128
Width: 484
VWidth: 0
Flags: W
PickledData: "(dp1
S'org.robofab.postScriptHintData'
p2
(dp3
S'replaceTable'
p4
((dp5
S'index'
p6
I0
sS'type'
p7
I255
s(dp8
g6
I0
sg7
I2
s(dp9
g6
I1
sg7
I2
s(dp10
g6
I0
sg7
I1
s(dp11
g6
I1
sg7
I1
s(dp12
g6
I2
sg7
I1
s(dp13
g6
I8
sg7
I255
s(dp14
g6
I2
sg7
I2
s(dp15
g6
I0
sg7
I1
s(dp16
g6
I1
sg7
I1
s(dp17
g6
I2
sg7
I1
stp18
sS'vHints'
p19
((I137
I77
t(I270
I77
t(I203
I78
ttp20
sS'hHints'
p21
((I21
I-21
t(I606
I-20
t(I697
I84
ttp22
ss."
LayerCount: 2
Fore
SplineSet
214 697 m 257
 214 781 l 257
 137 781 l 257
 137 697 l 257
 214 697 l 257
347 697 m 257
 347 781 l 257
 270 781 l 257
 270 697 l 257
 347 697 l 257
281 251 m 257
 476 606 l 257
 401 606 l 257
 250 325 l 257
 247 325 l 257
 93 606 l 257
 7 606 l 257
 203 251 l 257
 203 0 l 257
 281 0 l 257
 281 251 l 257
EndSplineSet
EndChar

StartChar: Ygrave
Encoding: 7922 7922 129
Width: 484
VWidth: 0
Flags: W
PickledData: "(dp1
S'org.robofab.postScriptHintData'
p2
(dp3
S'vHints'
p4
((I203
I78
ttp5
sS'hHints'
p6
((I21
I-21
t(I606
I-20
t(I664
I117
ttp7
ss."
LayerCount: 2
Fore
SplineSet
294 664 m 257
 218 781 l 257
 139 781 l 257
 138 778 l 257
 233 664 l 257
 294 664 l 257
281 251 m 257
 476 606 l 257
 401 606 l 257
 250 325 l 257
 247 325 l 257
 93 606 l 257
 7 606 l 257
 203 251 l 257
 203 0 l 257
 281 0 l 257
 281 251 l 257
EndSplineSet
EndChar

StartChar: Z
Encoding: 90 90 130
Width: 443
VWidth: 0
Flags: W
PickledData: "(dp1
S'org.robofab.postScriptHintData'
p2
(dp3
S'vHints'
p4
((I18
I405
ttp5
sS'hHints'
p6
((I0
I71
t(I536
I70
ttp7
ss."
AnchorPoint: "top" 222 606 basechar 0
LayerCount: 2
Fore
SplineSet
417 573 m 257
 417 606 l 257
 36 606 l 257
 36 536 l 257
 306 536 l 257
 18 34 l 257
 18 0 l 257
 423 0 l 257
 423 71 l 257
 128 71 l 257
 417 573 l 257
EndSplineSet
EndChar

StartChar: Zacute
Encoding: 377 377 131
Width: 443
VWidth: 0
Flags: W
PickledData: "(dp1
S'org.robofab.postScriptHintData'
p2
(dp3
S'vHints'
p4
((I18
I405
ttp5
sS'hHints'
p6
((I0
I71
t(I536
I70
t(I664
I117
ttp7
ss."
LayerCount: 2
Fore
SplineSet
325 778 m 257
 324 781 l 257
 245 781 l 257
 169 664 l 257
 230 664 l 257
 325 778 l 257
417 573 m 257
 417 606 l 257
 36 606 l 257
 36 536 l 257
 306 536 l 257
 18 34 l 257
 18 0 l 257
 423 0 l 257
 423 71 l 257
 128 71 l 257
 417 573 l 257
EndSplineSet
EndChar

StartChar: Zcaron
Encoding: 381 381 132
Width: 443
VWidth: 0
Flags: W
PickledData: "(dp1
S'org.robofab.postScriptHintData'
p2
(dp3
S'vHints'
p4
((I18
I405
ttp5
sS'hHints'
p6
((I0
I71
t(I536
I70
t(I661
I120
ttp7
ss."
LayerCount: 2
Fore
SplineSet
255 661 m 257
 331 781 l 257
 261 781 l 257
 221 711 l 257
 182 781 l 257
 111 781 l 257
 187 661 l 257
 255 661 l 257
417 573 m 257
 417 606 l 257
 36 606 l 257
 36 536 l 257
 306 536 l 257
 18 34 l 257
 18 0 l 257
 423 0 l 257
 423 71 l 257
 128 71 l 257
 417 573 l 257
EndSplineSet
EndChar

StartChar: Zdotaccent
Encoding: 379 379 133
Width: 443
VWidth: 0
Flags: W
PickledData: "(dp1
S'org.robofab.postScriptHintData'
p2
(dp3
S'vHints'
p4
((I183
I77
ttp5
sS'hHints'
p6
((I0
I71
t(I536
I70
t(I697
I84
ttp7
ss."
LayerCount: 2
Fore
SplineSet
260 697 m 257
 260 781 l 257
 183 781 l 257
 183 697 l 257
 260 697 l 257
417 573 m 257
 417 606 l 257
 36 606 l 257
 36 536 l 257
 306 536 l 257
 18 34 l 257
 18 0 l 257
 423 0 l 257
 423 71 l 257
 128 71 l 257
 417 573 l 257
EndSplineSet
EndChar

StartChar: a
Encoding: 97 97 134
Width: 403
VWidth: 0
Flags: W
PickledData: "(dp1
S'org.robofab.postScriptHintData'
p2
(dp3
S'replaceTable'
p4
((dp5
S'index'
p6
I0
sS'type'
p7
I255
s(dp8
g6
I0
sg7
I2
s(dp9
g6
I1
sg7
I2
s(dp10
g6
I0
sg7
I1
s(dp11
g6
I1
sg7
I1
s(dp12
g6
I2
sg7
I1
s(dp13
g6
I5
sg7
I255
s(dp14
g6
I2
sg7
I2
s(dp15
g6
I1
sg7
I2
s(dp16
g6
I0
sg7
I1
s(dp17
g6
I1
sg7
I1
s(dp18
g6
I2
sg7
I1
s(dp19
g6
I9
sg7
I255
s(dp20
g6
I2
sg7
I2
s(dp21
g6
I1
sg7
I2
s(dp22
g6
I3
sg7
I1
s(dp23
g6
I1
sg7
I1
s(dp24
g6
I2
sg7
I1
s(dp25
g6
I11
sg7
I255
s(dp26
g6
I0
sg7
I2
s(dp27
g6
I1
sg7
I2
s(dp28
g6
I0
sg7
I1
s(dp29
g6
I1
sg7
I1
s(dp30
g6
I2
sg7
I1
s(dp31
g6
I20
sg7
I255
s(dp32
g6
I2
sg7
I2
s(dp33
g6
I1
sg7
I2
s(dp34
g6
I0
sg7
I1
s(dp35
g6
I1
sg7
I1
s(dp36
g6
I2
sg7
I1
stp37
sS'vHints'
p38
((I48
I72
t(I265
I73
t(I30
I76
ttp39
sS'hHints'
p40
((I-11
I65
t(I211
I65
t(I411
I65
t(I-7
I61
ttp41
ss."
AnchorPoint: "top" 202 465 basechar 0
AnchorPoint: "ogonek" 362 9 basechar 0
LayerCount: 2
Fore
SplineSet
120 327 m 257
 120 338 l 258
 120 373 137 411 192 411 c 256
 251 411 265 380 265 336 c 258
 265 276 l 257
 130 276 30 248 30 120 c 256
 30 8 106 -11 152 -11 c 256
 201 -11 241 12 265 50 c 257
 270 50 l 257
 278 16 305 -7 343 -7 c 256
 366 -7 383 -1 391 4 c 257
 391 54 l 257
 362 54 l 258
 350 54 338 63 338 85 c 258
 338 346 l 258
 338 428 291 476 197 476 c 256
 110 476 48 431 48 347 c 256
 48 339 48 332 49 327 c 257
 120 327 l 257
265 169 m 258
 265 92 215 54 169 54 c 256
 128 54 106 72 106 125 c 256
 106 197 171 211 265 211 c 257
 265 169 l 258
EndSplineSet
EndChar

StartChar: aacute
Encoding: 225 225 135
Width: 403
VWidth: 0
Flags: W
PickledData: "(dp1
S'org.robofab.postScriptHintData'
p2
(dp3
S'replaceTable'
p4
((dp5
S'index'
p6
I0
sS'type'
p7
I255
s(dp8
g6
I0
sg7
I2
s(dp9
g6
I1
sg7
I2
s(dp10
g6
I0
sg7
I1
s(dp11
g6
I1
sg7
I1
s(dp12
g6
I2
sg7
I1
s(dp13
g6
I3
sg7
I1
s(dp14
g6
I5
sg7
I255
s(dp15
g6
I2
sg7
I2
s(dp16
g6
I1
sg7
I2
s(dp17
g6
I0
sg7
I1
s(dp18
g6
I1
sg7
I1
s(dp19
g6
I2
sg7
I1
s(dp20
g6
I3
sg7
I1
s(dp21
g6
I10
sg7
I255
s(dp22
g6
I0
sg7
I2
s(dp23
g6
I1
sg7
I2
s(dp24
g6
I0
sg7
I1
s(dp25
g6
I1
sg7
I1
s(dp26
g6
I2
sg7
I1
s(dp27
g6
I3
sg7
I1
s(dp28
g6
I14
sg7
I255
s(dp29
g6
I0
sg7
I2
s(dp30
g6
I1
sg7
I2
s(dp31
g6
I4
sg7
I1
s(dp32
g6
I1
sg7
I1
s(dp33
g6
I2
sg7
I1
s(dp34
g6
I3
sg7
I1
s(dp35
g6
I16
sg7
I255
s(dp36
g6
I2
sg7
I2
s(dp37
g6
I1
sg7
I2
s(dp38
g6
I0
sg7
I1
s(dp39
g6
I1
sg7
I1
s(dp40
g6
I2
sg7
I1
s(dp41
g6
I3
sg7
I1
s(dp42
g6
I25
sg7
I255
s(dp43
g6
I0
sg7
I2
s(dp44
g6
I1
sg7
I2
s(dp45
g6
I0
sg7
I1
s(dp46
g6
I1
sg7
I1
s(dp47
g6
I2
sg7
I1
s(dp48
g6
I3
sg7
I1
stp49
sS'vHints'
p50
((I30
I76
t(I265
I73
t(I48
I72
ttp51
sS'hHints'
p52
((I-11
I65
t(I211
I65
t(I411
I65
t(I522
I117
t(I-7
I61
ttp53
ss."
LayerCount: 2
Fore
SplineSet
301 636 m 257
 301 639 l 257
 221 639 l 257
 145 522 l 257
 206 522 l 257
 301 636 l 257
120 327 m 257
 120 338 l 258
 120 373 137 411 192 411 c 256
 251 411 265 380 265 336 c 258
 265 276 l 257
 130 276 30 248 30 120 c 256
 30 8 106 -11 152 -11 c 256
 201 -11 241 12 265 50 c 257
 270 50 l 257
 278 16 305 -7 343 -7 c 256
 366 -7 383 -1 391 4 c 257
 391 54 l 257
 362 54 l 258
 350 54 338 63 338 85 c 258
 338 346 l 258
 338 428 291 476 197 476 c 256
 110 476 48 431 48 347 c 256
 48 339 48 332 49 327 c 257
 120 327 l 257
265 169 m 258
 265 92 215 54 169 54 c 256
 128 54 106 72 106 125 c 256
 106 197 171 211 265 211 c 257
 265 169 l 258
EndSplineSet
EndChar

StartChar: aadeva
Encoding: 2310 2310 136
Width: 811
VWidth: 0
Flags: W
PickledData: "(dp1
S'org.robofab.postScriptHintData'
p2
(dp3
S'replaceTable'
p4
((dp5
S'index'
p6
I0
sS'type'
p7
I255
s(dp8
g6
I0
sg7
I2
s(dp9
g6
I1
sg7
I2
s(dp10
g6
I2
sg7
I2
s(dp11
g6
I3
sg7
I2
s(dp12
g6
I0
sg7
I1
s(dp13
g6
I1
sg7
I1
s(dp14
g6
I2
sg7
I1
s(dp15
g6
I3
sg7
I1
s(dp16
g6
I6
sg7
I255
s(dp17
g6
I0
sg7
I2
s(dp18
g6
I4
sg7
I2
s(dp19
g6
I2
sg7
I2
s(dp20
g6
I3
sg7
I2
s(dp21
g6
I0
sg7
I1
s(dp22
g6
I1
sg7
I1
s(dp23
g6
I2
sg7
I1
s(dp24
g6
I4
sg7
I1
s(dp25
g6
I8
sg7
I255
s(dp26
g6
I5
sg7
I2
s(dp27
g6
I6
sg7
I2
s(dp28
g6
I2
sg7
I2
s(dp29
g6
I3
sg7
I2
s(dp30
g6
I0
sg7
I1
s(dp31
g6
I1
sg7
I1
s(dp32
g6
I2
sg7
I1
s(dp33
g6
I4
sg7
I1
s(dp34
g6
I17
sg7
I255
s(dp35
g6
I0
sg7
I2
s(dp36
g6
I6
sg7
I2
s(dp37
g6
I2
sg7
I2
s(dp38
g6
I3
sg7
I2
s(dp39
g6
I0
sg7
I1
s(dp40
g6
I1
sg7
I1
s(dp41
g6
I5
sg7
I1
s(dp42
g6
I4
sg7
I1
s(dp43
g6
I32
sg7
I255
s(dp44
g6
I0
sg7
I2
s(dp45
g6
I4
sg7
I2
s(dp46
g6
I2
sg7
I2
s(dp47
g6
I3
sg7
I2
s(dp48
g6
I0
sg7
I1
s(dp49
g6
I1
sg7
I1
s(dp50
g6
I5
sg7
I1
s(dp51
g6
I4
sg7
I1
s(dp52
g6
I35
sg7
I255
s(dp53
g6
I0
sg7
I2
s(dp54
g6
I1
sg7
I2
s(dp55
g6
I2
sg7
I2
s(dp56
g6
I3
sg7
I2
s(dp57
g6
I0
sg7
I1
s(dp58
g6
I1
sg7
I1
s(dp59
g6
I5
sg7
I1
s(dp60
g6
I3
sg7
I1
stp61
sS'vHints'
p62
((I42
I74
t(I255
I74
t(I465
I72
t(I671
I73
t(I139
I119
t(I32
I74
t(I264
I75
ttp63
sS'hHints'
p64
((I21
I-21
t(I52
I64
t(I308
I62
t(I554
I63
t(I541
I65
t(I241
I65
ttp65
ss."
AnchorPoint: "top" 712 606 basechar 0
AnchorPoint: "bottom" 712 0 basechar 0
LayerCount: 2
Fore
SplineSet
42 459 m 257
 116 459 l 257
 116 468 l 258
 116 527 145 554 186 554 c 256
 226 554 255 525 255 464 c 256
 255 402 224 370 182 370 c 258
 139 370 l 257
 139 308 l 257
 180 308 l 258
 228 308 264 281 264 214 c 256
 264 150 232 116 182 116 c 256
 134 116 106 147 106 205 c 258
 106 216 l 257
 32 216 l 257
 32 208 l 258
 32 110 88 52 184 52 c 256
 278 52 339 112 339 209 c 256
 339 220 338 231 337 241 c 257
 465 241 l 257
 465 0 l 257
 537 0 l 257
 537 541 l 257
 671 541 l 257
 671 0 l 257
 744 0 l 257
 744 541 l 257
 833 541 l 257
 833 606 l 257
 421 606 l 257
 421 541 l 257
 465 541 l 257
 465 306 l 257
 309 306 l 257
 295 323 278 336 258 342 c 257
 258 345 l 257
 299 366 329 402 329 470 c 256
 329 564 274 617 186 617 c 256
 101 617 42 563 42 475 c 258
 42 459 l 257
EndSplineSet
EndChar

StartChar: abreve
Encoding: 259 259 137
Width: 403
VWidth: 0
Flags: W
PickledData: "(dp1
S'org.robofab.postScriptHintData'
p2
(dp3
S'replaceTable'
p4
((dp5
S'index'
p6
I0
sS'type'
p7
I255
s(dp8
g6
I0
sg7
I2
s(dp9
g6
I1
sg7
I2
s(dp10
g6
I0
sg7
I1
s(dp11
g6
I1
sg7
I1
s(dp12
g6
I2
sg7
I1
s(dp13
g6
I3
sg7
I1
s(dp14
g6
I1
sg7
I255
s(dp15
g6
I0
sg7
I2
s(dp16
g6
I1
sg7
I2
s(dp17
g6
I0
sg7
I1
s(dp18
g6
I1
sg7
I1
s(dp19
g6
I2
sg7
I1
s(dp20
g6
I4
sg7
I1
s(dp21
g6
I2
sg7
I255
s(dp22
g6
I0
sg7
I2
s(dp23
g6
I1
sg7
I2
s(dp24
g6
I0
sg7
I1
s(dp25
g6
I1
sg7
I1
s(dp26
g6
I2
sg7
I1
s(dp27
g6
I3
sg7
I1
s(dp28
g6
I4
sg7
I255
s(dp29
g6
I0
sg7
I2
s(dp30
g6
I1
sg7
I2
s(dp31
g6
I0
sg7
I1
s(dp32
g6
I1
sg7
I1
s(dp33
g6
I2
sg7
I1
s(dp34
g6
I4
sg7
I1
s(dp35
g6
I5
sg7
I255
s(dp36
g6
I2
sg7
I2
s(dp37
g6
I1
sg7
I2
s(dp38
g6
I0
sg7
I1
s(dp39
g6
I1
sg7
I1
s(dp40
g6
I2
sg7
I1
s(dp41
g6
I3
sg7
I1
s(dp42
g6
I11
sg7
I255
s(dp43
g6
I0
sg7
I2
s(dp44
g6
I1
sg7
I2
s(dp45
g6
I0
sg7
I1
s(dp46
g6
I1
sg7
I1
s(dp47
g6
I2
sg7
I1
s(dp48
g6
I4
sg7
I1
s(dp49
g6
I15
sg7
I255
s(dp50
g6
I0
sg7
I2
s(dp51
g6
I1
sg7
I2
s(dp52
g6
I5
sg7
I1
s(dp53
g6
I1
sg7
I1
s(dp54
g6
I2
sg7
I1
s(dp55
g6
I4
sg7
I1
s(dp56
g6
I17
sg7
I255
s(dp57
g6
I2
sg7
I2
s(dp58
g6
I1
sg7
I2
s(dp59
g6
I0
sg7
I1
s(dp60
g6
I1
sg7
I1
s(dp61
g6
I2
sg7
I1
s(dp62
g6
I4
sg7
I1
s(dp63
g6
I26
sg7
I255
s(dp64
g6
I0
sg7
I2
s(dp65
g6
I1
sg7
I2
s(dp66
g6
I0
sg7
I1
s(dp67
g6
I1
sg7
I1
s(dp68
g6
I2
sg7
I1
s(dp69
g6
I4
sg7
I1
stp70
sS'vHints'
p71
((I30
I76
t(I265
I73
t(I48
I72
ttp72
sS'hHints'
p73
((I-11
I65
t(I211
I65
t(I411
I65
t(I553
I86
t(I553
I57
t(I-7
I61
ttp74
ss."
LayerCount: 2
Fore
SplineSet
255 639 m 257
 253 627 232 610 202 610 c 256
 171 610 152 627 149 639 c 257
 92 639 l 257
 92 599 134 553 202 553 c 256
 270 553 311 599 311 639 c 257
 255 639 l 257
120 327 m 257
 120 338 l 258
 120 373 137 411 192 411 c 256
 251 411 265 380 265 336 c 258
 265 276 l 257
 130 276 30 248 30 120 c 256
 30 8 106 -11 152 -11 c 256
 201 -11 241 12 265 50 c 257
 270 50 l 257
 278 16 305 -7 343 -7 c 256
 366 -7 383 -1 391 4 c 257
 391 54 l 257
 362 54 l 258
 350 54 338 63 338 85 c 258
 338 346 l 258
 338 428 291 476 197 476 c 256
 110 476 48 431 48 347 c 256
 48 339 48 332 49 327 c 257
 120 327 l 257
265 169 m 258
 265 92 215 54 169 54 c 256
 128 54 106 72 106 125 c 256
 106 197 171 211 265 211 c 257
 265 169 l 258
EndSplineSet
EndChar

StartChar: acircumflex
Encoding: 226 226 138
Width: 403
VWidth: 0
Flags: W
PickledData: "(dp1
S'org.robofab.postScriptHintData'
p2
(dp3
S'replaceTable'
p4
((dp5
S'index'
p6
I0
sS'type'
p7
I255
s(dp8
g6
I0
sg7
I2
s(dp9
g6
I1
sg7
I2
s(dp10
g6
I0
sg7
I1
s(dp11
g6
I1
sg7
I1
s(dp12
g6
I2
sg7
I1
s(dp13
g6
I3
sg7
I1
s(dp14
g6
I5
sg7
I255
s(dp15
g6
I0
sg7
I2
s(dp16
g6
I1
sg7
I2
s(dp17
g6
I0
sg7
I1
s(dp18
g6
I1
sg7
I1
s(dp19
g6
I2
sg7
I1
s(dp20
g6
I4
sg7
I1
s(dp21
g6
I6
sg7
I255
s(dp22
g6
I2
sg7
I2
s(dp23
g6
I1
sg7
I2
s(dp24
g6
I0
sg7
I1
s(dp25
g6
I1
sg7
I1
s(dp26
g6
I2
sg7
I1
s(dp27
g6
I3
sg7
I1
s(dp28
g6
I12
sg7
I255
s(dp29
g6
I0
sg7
I2
s(dp30
g6
I1
sg7
I2
s(dp31
g6
I0
sg7
I1
s(dp32
g6
I1
sg7
I1
s(dp33
g6
I2
sg7
I1
s(dp34
g6
I3
sg7
I1
s(dp35
g6
I16
sg7
I255
s(dp36
g6
I0
sg7
I2
s(dp37
g6
I1
sg7
I2
s(dp38
g6
I5
sg7
I1
s(dp39
g6
I1
sg7
I1
s(dp40
g6
I2
sg7
I1
s(dp41
g6
I3
sg7
I1
s(dp42
g6
I18
sg7
I255
s(dp43
g6
I2
sg7
I2
s(dp44
g6
I1
sg7
I2
s(dp45
g6
I0
sg7
I1
s(dp46
g6
I1
sg7
I1
s(dp47
g6
I2
sg7
I1
s(dp48
g6
I3
sg7
I1
s(dp49
g6
I27
sg7
I255
s(dp50
g6
I0
sg7
I2
s(dp51
g6
I1
sg7
I2
s(dp52
g6
I0
sg7
I1
s(dp53
g6
I1
sg7
I1
s(dp54
g6
I2
sg7
I1
s(dp55
g6
I3
sg7
I1
stp56
sS'vHints'
p57
((I30
I76
t(I265
I73
t(I48
I72
ttp58
sS'hHints'
p59
((I-11
I65
t(I211
I65
t(I411
I65
t(I519
I119
t(I589
I49
t(I-7
I61
ttp60
ss."
LayerCount: 2
Fore
SplineSet
312 519 m 257
 237 638 l 257
 167 638 l 257
 92 519 l 257
 163 519 l 257
 202 589 l 257
 241 519 l 257
 312 519 l 257
120 327 m 257
 120 338 l 258
 120 373 137 411 192 411 c 256
 251 411 265 380 265 336 c 258
 265 276 l 257
 130 276 30 248 30 120 c 256
 30 8 106 -11 152 -11 c 256
 201 -11 241 12 265 50 c 257
 270 50 l 257
 278 16 305 -7 343 -7 c 256
 366 -7 383 -1 391 4 c 257
 391 54 l 257
 362 54 l 258
 350 54 338 63 338 85 c 258
 338 346 l 258
 338 428 291 476 197 476 c 256
 110 476 48 431 48 347 c 256
 48 339 48 332 49 327 c 257
 120 327 l 257
265 169 m 258
 265 92 215 54 169 54 c 256
 128 54 106 72 106 125 c 256
 106 197 171 211 265 211 c 257
 265 169 l 258
EndSplineSet
EndChar

StartChar: acute
Encoding: 180 180 139
Width: 241
VWidth: 0
Flags: W
PickledData: "(dp1
S'org.robofab.postScriptHintData'
p2
(dp3
S'vHints'
p4
((I60
I157
ttp5
sS'hHints'
p6
((I522
I117
ttp7
ss."
AnchorPoint: "top" 139 465 mark 0
LayerCount: 2
Fore
SplineSet
217 636 m 257
 216 639 l 257
 136 639 l 257
 60 522 l 257
 121 522 l 257
 217 636 l 257
EndSplineSet
EndChar

StartChar: adeva
Encoding: 2309 2309 140
Width: 604
VWidth: 0
Flags: W
PickledData: "(dp1
S'org.robofab.postScriptHintData'
p2
(dp3
S'replaceTable'
p4
((dp5
S'index'
p6
I0
sS'type'
p7
I255
s(dp8
g6
I0
sg7
I2
s(dp9
g6
I1
sg7
I2
s(dp10
g6
I2
sg7
I2
s(dp11
g6
I0
sg7
I1
s(dp12
g6
I1
sg7
I1
s(dp13
g6
I2
sg7
I1
s(dp14
g6
I3
sg7
I1
s(dp15
g6
I6
sg7
I255
s(dp16
g6
I0
sg7
I2
s(dp17
g6
I3
sg7
I2
s(dp18
g6
I2
sg7
I2
s(dp19
g6
I0
sg7
I1
s(dp20
g6
I1
sg7
I1
s(dp21
g6
I2
sg7
I1
s(dp22
g6
I4
sg7
I1
s(dp23
g6
I8
sg7
I255
s(dp24
g6
I4
sg7
I2
s(dp25
g6
I5
sg7
I2
s(dp26
g6
I2
sg7
I2
s(dp27
g6
I0
sg7
I1
s(dp28
g6
I1
sg7
I1
s(dp29
g6
I2
sg7
I1
s(dp30
g6
I4
sg7
I1
s(dp31
g6
I17
sg7
I255
s(dp32
g6
I0
sg7
I2
s(dp33
g6
I5
sg7
I2
s(dp34
g6
I2
sg7
I2
s(dp35
g6
I0
sg7
I1
s(dp36
g6
I1
sg7
I1
s(dp37
g6
I5
sg7
I1
s(dp38
g6
I4
sg7
I1
s(dp39
g6
I28
sg7
I255
s(dp40
g6
I0
sg7
I2
s(dp41
g6
I3
sg7
I2
s(dp42
g6
I2
sg7
I2
s(dp43
g6
I0
sg7
I1
s(dp44
g6
I1
sg7
I1
s(dp45
g6
I5
sg7
I1
s(dp46
g6
I4
sg7
I1
s(dp47
g6
I31
sg7
I255
s(dp48
g6
I0
sg7
I2
s(dp49
g6
I1
sg7
I2
s(dp50
g6
I2
sg7
I2
s(dp51
g6
I0
sg7
I1
s(dp52
g6
I1
sg7
I1
s(dp53
g6
I5
sg7
I1
s(dp54
g6
I3
sg7
I1
stp55
sS'vHints'
p56
((I42
I74
t(I255
I74
t(I465
I72
t(I139
I119
t(I32
I74
t(I264
I75
ttp57
sS'hHints'
p58
((I21
I-21
t(I52
I64
t(I308
I62
t(I554
I63
t(I541
I65
t(I241
I65
ttp59
ss."
AnchorPoint: "top" 503 606 basechar 0
AnchorPoint: "bottom" 503 0 basechar 0
LayerCount: 2
Fore
SplineSet
42 459 m 257
 116 459 l 257
 116 468 l 258
 116 527 145 554 186 554 c 256
 226 554 255 525 255 464 c 256
 255 402 224 370 182 370 c 258
 139 370 l 257
 139 308 l 257
 180 308 l 258
 228 308 264 281 264 214 c 256
 264 150 232 116 182 116 c 256
 134 116 106 147 106 205 c 258
 106 216 l 257
 32 216 l 257
 32 208 l 258
 32 110 88 52 184 52 c 256
 278 52 339 112 339 209 c 256
 339 220 338 231 337 241 c 257
 465 241 l 257
 465 0 l 257
 537 0 l 257
 537 541 l 257
 616 541 l 257
 616 606 l 257
 421 606 l 257
 421 541 l 257
 465 541 l 257
 465 306 l 257
 309 306 l 257
 295 323 278 336 258 342 c 257
 258 345 l 257
 299 366 329 402 329 470 c 256
 329 564 274 617 186 617 c 256
 101 617 42 563 42 475 c 258
 42 459 l 257
EndSplineSet
EndChar

StartChar: adieresis
Encoding: 228 228 141
Width: 403
VWidth: 0
Flags: W
PickledData: "(dp1
S'org.robofab.postScriptHintData'
p2
(dp3
S'replaceTable'
p4
((dp5
S'index'
p6
I0
sS'type'
p7
I255
s(dp8
g6
I0
sg7
I2
s(dp9
g6
I1
sg7
I2
s(dp10
g6
I0
sg7
I1
s(dp11
g6
I1
sg7
I1
s(dp12
g6
I2
sg7
I1
s(dp13
g6
I3
sg7
I1
s(dp14
g6
I8
sg7
I255
s(dp15
g6
I2
sg7
I2
s(dp16
g6
I3
sg7
I2
s(dp17
g6
I0
sg7
I1
s(dp18
g6
I1
sg7
I1
s(dp19
g6
I2
sg7
I1
s(dp20
g6
I3
sg7
I1
s(dp21
g6
I13
sg7
I255
s(dp22
g6
I4
sg7
I2
s(dp23
g6
I3
sg7
I2
s(dp24
g6
I0
sg7
I1
s(dp25
g6
I1
sg7
I1
s(dp26
g6
I2
sg7
I1
s(dp27
g6
I3
sg7
I1
s(dp28
g6
I17
sg7
I255
s(dp29
g6
I4
sg7
I2
s(dp30
g6
I3
sg7
I2
s(dp31
g6
I4
sg7
I1
s(dp32
g6
I1
sg7
I1
s(dp33
g6
I2
sg7
I1
s(dp34
g6
I3
sg7
I1
s(dp35
g6
I19
sg7
I255
s(dp36
g6
I2
sg7
I2
s(dp37
g6
I3
sg7
I2
s(dp38
g6
I0
sg7
I1
s(dp39
g6
I1
sg7
I1
s(dp40
g6
I2
sg7
I1
s(dp41
g6
I3
sg7
I1
s(dp42
g6
I28
sg7
I255
s(dp43
g6
I4
sg7
I2
s(dp44
g6
I3
sg7
I2
s(dp45
g6
I0
sg7
I1
s(dp46
g6
I1
sg7
I1
s(dp47
g6
I2
sg7
I1
s(dp48
g6
I3
sg7
I1
stp49
sS'vHints'
p50
((I96
I77
t(I229
I78
t(I48
I72
t(I265
I73
t(I30
I76
ttp51
sS'hHints'
p52
((I-11
I65
t(I211
I65
t(I411
I65
t(I555
I84
t(I-7
I61
ttp53
ss."
LayerCount: 2
Fore
SplineSet
173 555 m 257
 173 639 l 257
 96 639 l 257
 96 555 l 257
 173 555 l 257
307 555 m 257
 307 639 l 257
 229 639 l 257
 229 555 l 257
 307 555 l 257
120 327 m 257
 120 338 l 258
 120 373 137 411 192 411 c 256
 251 411 265 380 265 336 c 258
 265 276 l 257
 130 276 30 248 30 120 c 256
 30 8 106 -11 152 -11 c 256
 201 -11 241 12 265 50 c 257
 270 50 l 257
 278 16 305 -7 343 -7 c 256
 366 -7 383 -1 391 4 c 257
 391 54 l 257
 362 54 l 258
 350 54 338 63 338 85 c 258
 338 346 l 258
 338 428 291 476 197 476 c 256
 110 476 48 431 48 347 c 256
 48 339 48 332 49 327 c 257
 120 327 l 257
265 169 m 258
 265 92 215 54 169 54 c 256
 128 54 106 72 106 125 c 256
 106 197 171 211 265 211 c 257
 265 169 l 258
EndSplineSet
EndChar

StartChar: ae
Encoding: 230 230 142
Width: 644
VWidth: 0
Flags: W
PickledData: "(dp1
S'org.robofab.postScriptHintData'
p2
(dp3
S'replaceTable'
p4
((dp5
S'index'
p6
I0
sS'type'
p7
I255
s(dp8
g6
I0
sg7
I2
s(dp9
g6
I1
sg7
I2
s(dp10
g6
I2
sg7
I2
s(dp11
g6
I0
sg7
I1
s(dp12
g6
I1
sg7
I1
s(dp13
g6
I2
sg7
I1
s(dp14
g6
I5
sg7
I255
s(dp15
g6
I3
sg7
I2
s(dp16
g6
I1
sg7
I2
s(dp17
g6
I2
sg7
I2
s(dp18
g6
I0
sg7
I1
s(dp19
g6
I1
sg7
I1
s(dp20
g6
I2
sg7
I1
s(dp21
g6
I18
sg7
I255
s(dp22
g6
I0
sg7
I2
s(dp23
g6
I1
sg7
I2
s(dp24
g6
I2
sg7
I2
s(dp25
g6
I0
sg7
I1
s(dp26
g6
I1
sg7
I1
s(dp27
g6
I2
sg7
I1
s(dp28
g6
I25
sg7
I255
s(dp29
g6
I3
sg7
I2
s(dp30
g6
I1
sg7
I2
s(dp31
g6
I2
sg7
I2
s(dp32
g6
I0
sg7
I1
s(dp33
g6
I1
sg7
I1
s(dp34
g6
I2
sg7
I1
stp35
sS'vHints'
p36
((I53
I73
t(I271
I76
t(I522
I76
t(I35
I76
ttp37
sS'hHints'
p38
((I-11
I65
t(I211
I65
t(I411
I65
ttp39
ss."
AnchorPoint: "top" 323 465 basechar 0
LayerCount: 2
Fore
SplineSet
126 327 m 257
 126 338 l 258
 126 373 142 411 197 411 c 256
 256 411 271 380 271 336 c 258
 271 276 l 257
 135 276 35 248 35 120 c 256
 35 8 113 -11 171 -11 c 256
 225 -11 272 17 305 60 c 257
 334 11 382 -11 446 -11 c 256
 537 -11 598 54 598 158 c 257
 527 158 l 257
 527 94 494 54 448 54 c 256
 379 54 347 103 347 211 c 257
 598 211 l 257
 598 257 l 258
 598 413 547 476 446 476 c 256
 392 476 351 459 322 423 c 257
 300 457 259 476 202 476 c 256
 115 476 53 431 53 347 c 256
 53 339 53 332 54 327 c 257
 126 327 l 257
347 276 m 257
 354 365 381 411 446 411 c 256
 496 411 522 364 522 276 c 257
 347 276 l 257
271 162 m 258
 271 89 220 54 174 54 c 256
 133 54 111 72 111 125 c 256
 111 197 176 211 271 211 c 257
 271 162 l 258
EndSplineSet
EndChar

StartChar: aeacute
Encoding: 509 509 143
Width: 644
VWidth: 0
Flags: W
PickledData: "(dp1
S'org.robofab.postScriptHintData'
p2
(dp3
S'replaceTable'
p4
((dp5
S'index'
p6
I0
sS'type'
p7
I255
s(dp8
g6
I0
sg7
I2
s(dp9
g6
I1
sg7
I2
s(dp10
g6
I2
sg7
I2
s(dp11
g6
I0
sg7
I1
s(dp12
g6
I1
sg7
I1
s(dp13
g6
I2
sg7
I1
s(dp14
g6
I3
sg7
I1
s(dp15
g6
I5
sg7
I255
s(dp16
g6
I3
sg7
I2
s(dp17
g6
I1
sg7
I2
s(dp18
g6
I2
sg7
I2
s(dp19
g6
I0
sg7
I1
s(dp20
g6
I1
sg7
I1
s(dp21
g6
I2
sg7
I1
s(dp22
g6
I3
sg7
I1
s(dp23
g6
I10
sg7
I255
s(dp24
g6
I0
sg7
I2
s(dp25
g6
I1
sg7
I2
s(dp26
g6
I2
sg7
I2
s(dp27
g6
I0
sg7
I1
s(dp28
g6
I1
sg7
I1
s(dp29
g6
I2
sg7
I1
s(dp30
g6
I3
sg7
I1
s(dp31
g6
I23
sg7
I255
s(dp32
g6
I3
sg7
I2
s(dp33
g6
I1
sg7
I2
s(dp34
g6
I2
sg7
I2
s(dp35
g6
I0
sg7
I1
s(dp36
g6
I1
sg7
I1
s(dp37
g6
I2
sg7
I1
s(dp38
g6
I3
sg7
I1
s(dp39
g6
I30
sg7
I255
s(dp40
g6
I0
sg7
I2
s(dp41
g6
I1
sg7
I2
s(dp42
g6
I2
sg7
I2
s(dp43
g6
I0
sg7
I1
s(dp44
g6
I1
sg7
I1
s(dp45
g6
I2
sg7
I1
s(dp46
g6
I3
sg7
I1
stp47
sS'vHints'
p48
((I35
I76
t(I271
I76
t(I522
I76
t(I53
I73
ttp49
sS'hHints'
p50
((I-11
I65
t(I211
I65
t(I411
I65
t(I522
I117
ttp51
ss."
LayerCount: 2
Fore
SplineSet
426 636 m 257
 425 639 l 257
 346 639 l 257
 270 522 l 257
 331 522 l 257
 426 636 l 257
126 327 m 257
 126 338 l 258
 126 373 142 411 197 411 c 256
 256 411 271 380 271 336 c 258
 271 276 l 257
 135 276 35 248 35 120 c 256
 35 8 113 -11 171 -11 c 256
 225 -11 272 17 305 60 c 257
 334 11 382 -11 446 -11 c 256
 537 -11 598 54 598 158 c 257
 527 158 l 257
 527 94 494 54 448 54 c 256
 379 54 347 103 347 211 c 257
 598 211 l 257
 598 257 l 258
 598 413 547 476 446 476 c 256
 392 476 351 459 322 423 c 257
 300 457 259 476 202 476 c 256
 115 476 53 431 53 347 c 256
 53 339 53 332 54 327 c 257
 126 327 l 257
347 276 m 257
 354 365 381 411 446 411 c 256
 496 411 522 364 522 276 c 257
 347 276 l 257
271 162 m 258
 271 89 220 54 174 54 c 256
 133 54 111 72 111 125 c 256
 111 197 176 211 271 211 c 257
 271 162 l 258
EndSplineSet
EndChar

StartChar: afii00208
Encoding: 8213 8213 144
Width: 725
VWidth: 0
Flags: W
PickledData: "(dp1
S'org.robofab.postScriptHintData'
p2
(dp3
S'vHints'
p4
((I90
I542
ttp5
sS'hHints'
p6
((I206
I66
ttp7
ss."
LayerCount: 2
Fore
SplineSet
632 206 m 257
 632 272 l 257
 90 272 l 257
 90 206 l 257
 632 206 l 257
EndSplineSet
EndChar

StartChar: afii61248
Encoding: 8453 8453 145
Width: 670
VWidth: 0
Flags: W
PickledData: "(dp1
S'org.robofab.postScriptHintData'
p2
(dp3
S'replaceTable'
p4
((dp5
S'index'
p6
I0
sS'type'
p7
I255
s(dp8
g6
I0
sg7
I2
s(dp9
g6
I1
sg7
I2
s(dp10
g6
I2
sg7
I2
s(dp11
g6
I3
sg7
I2
s(dp12
g6
I0
sg7
I1
s(dp13
g6
I1
sg7
I1
s(dp14
g6
I2
sg7
I1
s(dp15
g6
I15
sg7
I255
s(dp16
g6
I0
sg7
I2
s(dp17
g6
I1
sg7
I2
s(dp18
g6
I2
sg7
I2
s(dp19
g6
I3
sg7
I2
s(dp20
g6
I0
sg7
I1
s(dp21
g6
I3
sg7
I1
s(dp22
g6
I2
sg7
I1
stp23
sS'vHints'
p24
((I42
I62
t(I200
I61
t(I390
I61
t(I567
I61
ttp25
sS'hHints'
p26
((I-11
I53
t(I274
I54
t(I563
I54
t(I278
I54
ttp27
ss."
LayerCount: 2
Fore
SplineSet
202 412 m 257
 202 357 190 328 158 328 c 256
 121 328 104 363 104 434 c 258
 104 456 l 258
 104 528 121 563 158 563 c 256
 190 563 200 537 200 479 c 257
 261 479 l 257
 261 568 231 617 158 617 c 256
 80 617 42 563 42 446 c 256
 42 327 78 274 158 274 c 256
 232 274 261 339 261 412 c 257
 202 412 l 257
173 -11 m 257
 540 617 l 257
 485 617 l 257
 118 -11 l 257
 173 -11 l 257
508 332 m 256
 431 332 390 278 390 160 c 256
 390 42 431 -11 508 -11 c 256
 587 -11 628 42 628 160 c 256
 628 278 587 332 508 332 c 256
567 149 m 258
 567 78 547 42 508 42 c 256
 470 42 451 78 451 149 c 258
 451 171 l 258
 451 243 470 278 508 278 c 256
 547 278 567 243 567 171 c 258
 567 149 l 258
EndSplineSet
EndChar

StartChar: afii61289
Encoding: 8467 8467 146
Width: 309
VWidth: 0
Flags: W
PickledData: "(dp1
S'org.robofab.postScriptHintData'
p2
(dp3
S'vHints'
p4
((I65
I61
t(I225
I50
ttp5
sS'hHints'
p6
((I-11
I61
t(I593
I57
ttp7
ss."
LayerCount: 2
Fore
SplineSet
126 209 m 257
 216 308 275 410 275 514 c 256
 275 592 245 650 183 650 c 256
 125 650 65 600 65 449 c 258
 65 225 l 257
 55 213 46 204 36 194 c 257
 36 133 l 257
 66 161 l 257
 66 149 l 258
 68 61 101 -11 192 -11 c 256
 220 -11 242 -3 264 12 c 257
 264 77 l 257
 248 61 227 50 203 50 c 256
 161 50 126 85 126 175 c 258
 126 209 l 257
126 449 m 258
 126 558 156 593 184 593 c 256
 213 593 225 564 225 515 c 256
 225 437 182 355 126 281 c 257
 126 449 l 258
EndSplineSet
EndChar

StartChar: afii61352
Encoding: 8470 8470 147
Width: 778
VWidth: 0
Flags: W
PickledData: "(dp1
S'org.robofab.postScriptHintData'
p2
(dp3
S'replaceTable'
p4
((dp5
S'index'
p6
I0
sS'type'
p7
I255
s(dp8
g6
I0
sg7
I2
s(dp9
g6
I1
sg7
I2
s(dp10
g6
I2
sg7
I2
s(dp11
g6
I3
sg7
I2
s(dp12
g6
I0
sg7
I1
s(dp13
g6
I1
sg7
I1
s(dp14
g6
I2
sg7
I1
s(dp15
g6
I3
sg7
I1
s(dp16
g6
I6
sg7
I255
s(dp17
g6
I0
sg7
I2
s(dp18
g6
I1
sg7
I2
s(dp19
g6
I2
sg7
I2
s(dp20
g6
I3
sg7
I2
s(dp21
g6
I0
sg7
I1
s(dp22
g6
I1
sg7
I1
s(dp23
g6
I2
sg7
I1
s(dp24
g6
I4
sg7
I1
s(dp25
g6
I25
sg7
I255
s(dp26
g6
I0
sg7
I2
s(dp27
g6
I1
sg7
I2
s(dp28
g6
I2
sg7
I2
s(dp29
g6
I3
sg7
I2
s(dp30
g6
I0
sg7
I1
s(dp31
g6
I1
sg7
I1
s(dp32
g6
I2
sg7
I1
s(dp33
g6
I3
sg7
I1
stp34
sS'vHints'
p35
((I57
I69
t(I386
I70
t(I506
I63
t(I681
I63
ttp36
sS'hHints'
p37
((I21
I-21
t(I179
I54
t(I269
I55
t(I562
I55
t(I606
I-20
ttp38
ss."
LayerCount: 2
Fore
SplineSet
625 617 m 256
 547 617 506 563 506 443 c 256
 506 323 547 269 625 269 c 256
 703 269 744 323 744 443 c 256
 744 563 703 617 625 617 c 256
456 0 m 257
 456 606 l 257
 386 606 l 257
 386 225 l 258
 386 206 389 145 389 145 c 257
 386 144 l 257
 386 144 362 202 349 225 c 258
 124 606 l 257
 57 606 l 257
 57 0 l 257
 126 0 l 257
 126 386 l 258
 126 411 123 467 123 467 c 257
 126 468 l 257
 126 468 149 412 164 386 c 258
 392 0 l 257
 456 0 l 257
681 431 m 258
 681 361 663 324 625 324 c 256
 588 324 569 361 569 431 c 258
 569 454 l 258
 569 525 588 562 625 562 c 256
 663 562 681 525 681 454 c 258
 681 431 l 258
735 179 m 257
 735 233 l 257
 516 233 l 257
 516 179 l 257
 735 179 l 257
EndSplineSet
EndChar

StartChar: agrave
Encoding: 224 224 148
Width: 403
VWidth: 0
Flags: W
PickledData: "(dp1
S'org.robofab.postScriptHintData'
p2
(dp3
S'replaceTable'
p4
((dp5
S'index'
p6
I0
sS'type'
p7
I255
s(dp8
g6
I0
sg7
I2
s(dp9
g6
I1
sg7
I2
s(dp10
g6
I0
sg7
I1
s(dp11
g6
I1
sg7
I1
s(dp12
g6
I2
sg7
I1
s(dp13
g6
I3
sg7
I1
s(dp14
g6
I5
sg7
I255
s(dp15
g6
I2
sg7
I2
s(dp16
g6
I1
sg7
I2
s(dp17
g6
I0
sg7
I1
s(dp18
g6
I1
sg7
I1
s(dp19
g6
I2
sg7
I1
s(dp20
g6
I3
sg7
I1
s(dp21
g6
I10
sg7
I255
s(dp22
g6
I0
sg7
I2
s(dp23
g6
I1
sg7
I2
s(dp24
g6
I0
sg7
I1
s(dp25
g6
I1
sg7
I1
s(dp26
g6
I2
sg7
I1
s(dp27
g6
I3
sg7
I1
s(dp28
g6
I14
sg7
I255
s(dp29
g6
I0
sg7
I2
s(dp30
g6
I1
sg7
I2
s(dp31
g6
I4
sg7
I1
s(dp32
g6
I1
sg7
I1
s(dp33
g6
I2
sg7
I1
s(dp34
g6
I3
sg7
I1
s(dp35
g6
I16
sg7
I255
s(dp36
g6
I2
sg7
I2
s(dp37
g6
I1
sg7
I2
s(dp38
g6
I0
sg7
I1
s(dp39
g6
I1
sg7
I1
s(dp40
g6
I2
sg7
I1
s(dp41
g6
I3
sg7
I1
s(dp42
g6
I25
sg7
I255
s(dp43
g6
I0
sg7
I2
s(dp44
g6
I1
sg7
I2
s(dp45
g6
I0
sg7
I1
s(dp46
g6
I1
sg7
I1
s(dp47
g6
I2
sg7
I1
s(dp48
g6
I3
sg7
I1
stp49
sS'vHints'
p50
((I30
I76
t(I265
I73
t(I48
I72
ttp51
sS'hHints'
p52
((I-11
I65
t(I211
I65
t(I411
I65
t(I522
I117
t(I-7
I61
ttp53
ss."
LayerCount: 2
Fore
SplineSet
250 522 m 257
 174 639 l 257
 95 639 l 257
 94 636 l 257
 189 522 l 257
 250 522 l 257
120 327 m 257
 120 338 l 258
 120 373 137 411 192 411 c 256
 251 411 265 380 265 336 c 258
 265 276 l 257
 130 276 30 248 30 120 c 256
 30 8 106 -11 152 -11 c 256
 201 -11 241 12 265 50 c 257
 270 50 l 257
 278 16 305 -7 343 -7 c 256
 366 -7 383 -1 391 4 c 257
 391 54 l 257
 362 54 l 258
 350 54 338 63 338 85 c 258
 338 346 l 258
 338 428 291 476 197 476 c 256
 110 476 48 431 48 347 c 256
 48 339 48 332 49 327 c 257
 120 327 l 257
265 169 m 258
 265 92 215 54 169 54 c 256
 128 54 106 72 106 125 c 256
 106 197 171 211 265 211 c 257
 265 169 l 258
EndSplineSet
EndChar

StartChar: aiMatra_anusvaradeva
Encoding: 65538 -1 149
Width: 0
VWidth: 0
Flags: W
PickledData: "(dp1
S'org.robofab.postScriptHintData'
p2
(dp3
S'replaceTable'
p4
((dp5
S'index'
p6
I0
sS'type'
p7
I255
s(dp8
g6
I0
sg7
I2
s(dp9
g6
I0
sg7
I1
s(dp10
g6
I1
sg7
I1
s(dp11
g6
I7
sg7
I255
s(dp12
g6
I1
sg7
I2
s(dp13
g6
I0
sg7
I1
s(dp14
g6
I1
sg7
I1
s(dp15
g6
I12
sg7
I255
s(dp16
g6
I0
sg7
I2
s(dp17
g6
I0
sg7
I1
s(dp18
g6
I1
sg7
I1
stp19
sS'vHints'
p20
((I-59
I74
t(I-222
I163
ttp21
sS'hHints'
p22
((I541
I65
t(I684
I77
ttp23
ss."
AnchorPoint: "top" -101 606 mark 0
LayerCount: 2
Fore
SplineSet
-70 606 m 257
 -129 821 l 257
 -201 821 l 257
 -133 606 l 257
 -149 606 l 257
 -262 821 l 257
 -334 821 l 257
 -213 606 l 257
 -222 606 l 257
 -222 541 l 257
 -59 541 l 257
 -59 606 l 257
 -70 606 l 257
15 684 m 257
 15 761 l 257
 -59 761 l 257
 -59 684 l 257
 15 684 l 257
EndSplineSet
EndChar

StartChar: aiMatra_reph_anusvaradeva
Encoding: 65539 -1 150
Width: 0
VWidth: 0
Flags: W
PickledData: "(dp1
S'org.robofab.postScriptHintData'
p2
(dp3
S'replaceTable'
p4
((dp5
S'index'
p6
I0
sS'type'
p7
I255
s(dp8
g6
I0
sg7
I2
s(dp9
g6
I1
sg7
I2
s(dp10
g6
I0
sg7
I1
s(dp11
g6
I1
sg7
I1
s(dp12
g6
I2
sg7
I1
s(dp13
g6
I7
sg7
I255
s(dp14
g6
I2
sg7
I2
s(dp15
g6
I1
sg7
I2
s(dp16
g6
I0
sg7
I1
s(dp17
g6
I1
sg7
I1
s(dp18
g6
I2
sg7
I1
s(dp19
g6
I13
sg7
I255
s(dp20
g6
I0
sg7
I2
s(dp21
g6
I1
sg7
I2
s(dp22
g6
I0
sg7
I1
s(dp23
g6
I1
sg7
I1
s(dp24
g6
I2
sg7
I1
stp25
sS'vHints'
p26
((I-124
I28
t(I-55
I73
t(I-228
I163
ttp27
sS'hHints'
p28
((I541
I65
t(I644
I77
t(I762
I65
ttp29
ss."
AnchorPoint: "top" -108 606 mark 0
LayerCount: 2
Fore
SplineSet
-157 821 m 257
 -229 821 l 257
 -171 691 l 257
 -124 606 l 257
 -155 606 l 257
 -288 821 l 257
 -360 821 l 257
 -209 606 l 257
 -228 606 l 257
 -228 541 l 257
 -65 541 l 257
 -65 606 l 257
 -75 606 l 257
 -87 640 -96 672 -96 695 c 256
 -96 737 -65 762 -10 762 c 258
 -5 762 l 257
 -5 826 l 257
 -10 827 -19 827 -28 827 c 256
 -89 827 -124 785 -124 721 c 257
 -157 821 l 257
18 644 m 257
 18 721 l 257
 -55 721 l 257
 -55 644 l 257
 18 644 l 257
EndSplineSet
EndChar

StartChar: aiMatra_rephdeva
Encoding: 65540 -1 151
Width: 0
VWidth: 0
Flags: W
PickledData: "(dp1
S'org.robofab.postScriptHintData'
p2
(dp3
S'replaceTable'
p4
((dp5
S'index'
p6
I0
sS'type'
p7
I255
s(dp8
g6
I0
sg7
I2
s(dp9
g6
I0
sg7
I1
s(dp10
g6
I1
sg7
I1
s(dp11
g6
I12
sg7
I255
s(dp12
g6
I1
sg7
I2
s(dp13
g6
I0
sg7
I1
s(dp14
g6
I1
sg7
I1
stp15
sS'vHints'
p16
((I-229
I163
t(I-108
I18
ttp17
sS'hHints'
p18
((I541
I65
t(I762
I65
ttp19
ss."
AnchorPoint: "top" -108 606 mark 0
LayerCount: 2
Fore
SplineSet
-136 821 m 257
 -208 821 l 257
 -140 606 l 257
 -156 606 l 257
 -269 821 l 257
 -341 821 l 257
 -220 606 l 257
 -229 606 l 257
 -229 541 l 257
 -66 541 l 257
 -66 606 l 257
 -77 606 l 257
 -89 650 l 258
 -90 655 -90 659 -90 664 c 256
 -90 726 -43 762 22 762 c 258
 26 762 l 257
 26 826 l 257
 22 827 13 827 4 827 c 256
 -61 827 -102 785 -108 719 c 257
 -136 821 l 257
EndSplineSet
EndChar

StartChar: aideva
Encoding: 2320 2320 152
Width: 413
VWidth: 0
Flags: W
PickledData: "(dp1
S'org.robofab.postScriptHintData'
p2
(dp3
S'replaceTable'
p4
((dp5
S'index'
p6
I0
sS'type'
p7
I255
s(dp8
g6
I0
sg7
I2
s(dp9
g6
I1
sg7
I2
s(dp10
g6
I0
sg7
I1
s(dp11
g6
I9
sg7
I255
s(dp12
g6
I0
sg7
I2
s(dp13
g6
I2
sg7
I2
s(dp14
g6
I0
sg7
I1
s(dp15
g6
I18
sg7
I255
s(dp16
g6
I0
sg7
I2
s(dp17
g6
I1
sg7
I2
s(dp18
g6
I1
sg7
I1
s(dp19
g6
I0
sg7
I1
stp20
sS'vHints'
p21
((I67
I72
t(I274
I73
t(I277
I70
ttp22
sS'hHints'
p23
((I541
I65
t(I242
I61
ttp24
ss."
AnchorPoint: "top" 207 465 basechar 0
AnchorPoint: "bottom" 207 0 basechar 0
LayerCount: 2
Fore
SplineSet
340 606 m 257
 281 821 l 257
 208 821 l 257
 276 606 l 257
 -22 606 l 257
 -22 541 l 257
 67 541 l 257
 67 274 l 258
 67 244 73 223 95 199 c 257
 258 32 l 258
 272 17 277 4 277 -12 c 256
 277 -17 276 -34 271 -57 c 257
 331 -57 l 257
 342 -36 347 -18 347 2 c 256
 347 27 332 53 306 80 c 258
 153 235 l 258
 143 246 139 260 139 279 c 258
 139 541 l 257
 274 541 l 257
 274 341 l 258
 274 317 259 303 238 303 c 258
 221 303 l 257
 221 247 l 257
 235 244 247 242 261 242 c 256
 327 242 347 294 347 344 c 258
 347 541 l 257
 436 541 l 257
 436 606 l 257
 340 606 l 257
EndSplineSet
EndChar

StartChar: aivowelsigndeva
Encoding: 2376 2376 153
Width: 0
VWidth: 0
Flags: W
PickledData: "(dp1
S'org.robofab.postScriptHintData'
p2
(dp3
S'vHints'
p4
((I-142
I72
ttp5
sS'hHints'
p6
((I541
I65
ttp7
ss."
AnchorPoint: "top" -102 606 mark 0
LayerCount: 2
Fore
SplineSet
-70 606 m 257
 -70 821 l 257
 -142 821 l 257
 -142 743 l 258
 -142 697 -139 652 -134 606 c 257
 -151 606 l 257
 -210 821 l 257
 -283 821 l 257
 -215 606 l 257
 -224 606 l 257
 -224 541 l 257
 -61 541 l 257
 -61 606 l 257
 -70 606 l 257
EndSplineSet
EndChar

StartChar: amacron
Encoding: 257 257 154
Width: 403
VWidth: 0
Flags: W
PickledData: "(dp1
S'org.robofab.postScriptHintData'
p2
(dp3
S'replaceTable'
p4
((dp5
S'index'
p6
I0
sS'type'
p7
I255
s(dp8
g6
I0
sg7
I2
s(dp9
g6
I0
sg7
I1
s(dp10
g6
I1
sg7
I1
s(dp11
g6
I2
sg7
I1
s(dp12
g6
I3
sg7
I1
s(dp13
g6
I4
sg7
I255
s(dp14
g6
I1
sg7
I2
s(dp15
g6
I2
sg7
I2
s(dp16
g6
I0
sg7
I1
s(dp17
g6
I1
sg7
I1
s(dp18
g6
I2
sg7
I1
s(dp19
g6
I3
sg7
I1
s(dp20
g6
I9
sg7
I255
s(dp21
g6
I3
sg7
I2
s(dp22
g6
I2
sg7
I2
s(dp23
g6
I0
sg7
I1
s(dp24
g6
I1
sg7
I1
s(dp25
g6
I2
sg7
I1
s(dp26
g6
I3
sg7
I1
s(dp27
g6
I13
sg7
I255
s(dp28
g6
I3
sg7
I2
s(dp29
g6
I2
sg7
I2
s(dp30
g6
I4
sg7
I1
s(dp31
g6
I1
sg7
I1
s(dp32
g6
I2
sg7
I1
s(dp33
g6
I3
sg7
I1
s(dp34
g6
I15
sg7
I255
s(dp35
g6
I1
sg7
I2
s(dp36
g6
I2
sg7
I2
s(dp37
g6
I0
sg7
I1
s(dp38
g6
I1
sg7
I1
s(dp39
g6
I2
sg7
I1
s(dp40
g6
I3
sg7
I1
s(dp41
g6
I24
sg7
I255
s(dp42
g6
I3
sg7
I2
s(dp43
g6
I2
sg7
I2
s(dp44
g6
I0
sg7
I1
s(dp45
g6
I1
sg7
I1
s(dp46
g6
I2
sg7
I1
s(dp47
g6
I3
sg7
I1
stp48
sS'vHints'
p49
((I91
I222
t(I48
I72
t(I265
I73
t(I30
I76
ttp50
sS'hHints'
p51
((I-11
I65
t(I211
I65
t(I411
I65
t(I530
I63
t(I-7
I61
ttp52
ss."
LayerCount: 2
Fore
SplineSet
313 530 m 257
 313 593 l 257
 91 593 l 257
 91 530 l 257
 313 530 l 257
120 327 m 257
 120 338 l 258
 120 373 137 411 192 411 c 256
 251 411 265 380 265 336 c 258
 265 276 l 257
 130 276 30 248 30 120 c 256
 30 8 106 -11 152 -11 c 256
 201 -11 241 12 265 50 c 257
 270 50 l 257
 278 16 305 -7 343 -7 c 256
 366 -7 383 -1 391 4 c 257
 391 54 l 257
 362 54 l 258
 350 54 338 63 338 85 c 258
 338 346 l 258
 338 428 291 476 197 476 c 256
 110 476 48 431 48 347 c 256
 48 339 48 332 49 327 c 257
 120 327 l 257
265 169 m 258
 265 92 215 54 169 54 c 256
 128 54 106 72 106 125 c 256
 106 197 171 211 265 211 c 257
 265 169 l 258
EndSplineSet
EndChar

StartChar: ampersand
Encoding: 38 38 155
Width: 484
VWidth: 0
Flags: W
PickledData: "(dp1
S'org.robofab.postScriptHintData'
p2
(dp3
S'replaceTable'
p4
((dp5
S'index'
p6
I0
sS'type'
p7
I255
s(dp8
g6
I0
sg7
I2
s(dp9
g6
I1
sg7
I2
s(dp10
g6
I0
sg7
I1
s(dp11
g6
I1
sg7
I1
s(dp12
g6
I2
sg7
I1
s(dp13
g6
I1
sg7
I255
s(dp14
g6
I2
sg7
I2
s(dp15
g6
I1
sg7
I2
s(dp16
g6
I0
sg7
I1
s(dp17
g6
I1
sg7
I1
s(dp18
g6
I2
sg7
I1
s(dp19
g6
I12
sg7
I255
s(dp20
g6
I2
sg7
I2
s(dp21
g6
I3
sg7
I2
s(dp22
g6
I1
sg7
I2
s(dp23
g6
I0
sg7
I1
s(dp24
g6
I1
sg7
I1
s(dp25
g6
I2
sg7
I1
s(dp26
g6
I14
sg7
I255
s(dp27
g6
I0
sg7
I2
s(dp28
g6
I1
sg7
I2
s(dp29
g6
I0
sg7
I1
s(dp30
g6
I1
sg7
I1
s(dp31
g6
I2
sg7
I1
stp32
sS'vHints'
p33
((I42
I77
t(I338
I72
t(I31
I78
t(I120
I137
ttp34
sS'hHints'
p35
((I-11
I67
t(I275
I65
t(I551
I66
ttp36
ss."
LayerCount: 2
Fore
SplineSet
120 311 m 257
 69 292 31 243 31 163 c 256
 31 55 109 -11 219 -11 c 256
 345 -11 410 61 410 171 c 258
 410 275 l 257
 472 275 l 257
 472 340 l 257
 338 340 l 257
 338 169 l 258
 338 94 300 56 225 56 c 256
 156 56 109 88 109 168 c 256
 109 254 160 276 214 276 c 258
 257 276 l 257
 257 340 l 257
 212 340 l 258
 163 340 119 375 119 446 c 256
 119 522 168 551 225 551 c 256
 290 551 338 518 338 443 c 258
 338 435 l 257
 410 435 l 257
 410 451 l 258
 410 552 334 617 226 617 c 256
 116 617 42 559 42 451 c 256
 42 379 75 340 120 315 c 257
 120 311 l 257
EndSplineSet
EndChar

StartChar: anusvaradeva
Encoding: 65541 -1 156
Width: 0
VWidth: 0
Flags: W
PickledData: "(dp1
S'org.robofab.postScriptHintData'
p2
(dp3
S'vHints'
p4
((I-54
I73
ttp5
sS'hHints'
p6
((I644
I77
ttp7
ss."
AnchorPoint: "top" -97 606 mark 0
AnchorPoint: "anusvara" -17 606 mark 0
LayerCount: 2
Fore
SplineSet
19 644 m 257
 19 721 l 257
 -54 721 l 257
 -54 644 l 257
 19 644 l 257
EndSplineSet
EndChar

StartChar: aogonek
Encoding: 261 261 157
Width: 403
VWidth: 0
Flags: W
PickledData: "(dp1
S'org.robofab.postScriptHintData'
p2
(dp3
S'replaceTable'
p4
((dp5
S'index'
p6
I0
sS'type'
p7
I255
s(dp8
g6
I0
sg7
I2
s(dp9
g6
I1
sg7
I2
s(dp10
g6
I0
sg7
I1
s(dp11
g6
I1
sg7
I1
s(dp12
g6
I2
sg7
I1
s(dp13
g6
I3
sg7
I1
s(dp14
g6
I5
sg7
I255
s(dp15
g6
I2
sg7
I2
s(dp16
g6
I3
sg7
I2
s(dp17
g6
I0
sg7
I1
s(dp18
g6
I1
sg7
I1
s(dp19
g6
I2
sg7
I1
s(dp20
g6
I3
sg7
I1
s(dp21
g6
I9
sg7
I255
s(dp22
g6
I2
sg7
I2
s(dp23
g6
I3
sg7
I2
s(dp24
g6
I4
sg7
I1
s(dp25
g6
I5
sg7
I1
s(dp26
g6
I2
sg7
I1
s(dp27
g6
I3
sg7
I1
s(dp28
g6
I12
sg7
I255
s(dp29
g6
I2
sg7
I2
s(dp30
g6
I3
sg7
I2
s(dp31
g6
I0
sg7
I1
s(dp32
g6
I1
sg7
I1
s(dp33
g6
I2
sg7
I1
s(dp34
g6
I3
sg7
I1
s(dp35
g6
I13
sg7
I255
s(dp36
g6
I2
sg7
I2
s(dp37
g6
I3
sg7
I2
s(dp38
g6
I6
sg7
I1
s(dp39
g6
I1
sg7
I1
s(dp40
g6
I2
sg7
I1
s(dp41
g6
I3
sg7
I1
s(dp42
g6
I17
sg7
I255
s(dp43
g6
I0
sg7
I2
s(dp44
g6
I1
sg7
I2
s(dp45
g6
I0
sg7
I1
s(dp46
g6
I1
sg7
I1
s(dp47
g6
I2
sg7
I1
s(dp48
g6
I3
sg7
I1
s(dp49
g6
I26
sg7
I255
s(dp50
g6
I2
sg7
I2
s(dp51
g6
I1
sg7
I2
s(dp52
g6
I0
sg7
I1
s(dp53
g6
I1
sg7
I1
s(dp54
g6
I2
sg7
I1
s(dp55
g6
I3
sg7
I1
stp56
sS'vHints'
p57
((I48
I72
t(I265
I73
t(I30
I76
t(I299
I69
ttp58
sS'hHints'
p59
((I-128
I-21
t(I-11
I65
t(I211
I65
t(I411
I65
t(I-161
I58
t(I16
I-21
t(I-149
I46
ttp60
ss."
LayerCount: 2
Fore
SplineSet
120 327 m 257
 120 338 l 258
 120 373 137 411 192 411 c 256
 251 411 265 380 265 336 c 258
 265 276 l 257
 130 276 30 248 30 120 c 256
 30 8 106 -11 152 -11 c 256
 201 -11 241 12 265 50 c 257
 270 50 l 257
 277 21 297 1 325 -5 c 257
 310 -25 299 -47 299 -81 c 256
 299 -142 344 -161 382 -161 c 256
 400 -161 417 -156 436 -149 c 257
 436 -103 l 257
 408 -103 l 258
 378 -103 368 -80 368 -55 c 256
 368 -32 380 -10 391 4 c 257
 391 54 l 257
 362 54 l 258
 350 54 338 63 338 85 c 258
 338 346 l 258
 338 428 291 476 197 476 c 256
 110 476 48 431 48 347 c 256
 48 339 48 332 49 327 c 257
 120 327 l 257
265 169 m 258
 265 92 215 54 169 54 c 256
 128 54 106 72 106 125 c 256
 106 197 171 211 265 211 c 257
 265 169 l 258
EndSplineSet
EndChar

StartChar: approxequal
Encoding: 8776 8776 158
Width: 485
VWidth: 0
Flags: W
PickledData: "(dp1
S'org.robofab.postScriptHintData'
p2
(dp3
S'replaceTable'
p4
((dp5
S'index'
p6
I0
sS'type'
p7
I255
s(dp8
g6
I0
sg7
I2
s(dp9
g6
I0
sg7
I1
s(dp10
g6
I1
sg7
I1
s(dp11
g6
I2
sg7
I255
s(dp12
g6
I0
sg7
I2
s(dp13
g6
I0
sg7
I1
s(dp14
g6
I2
sg7
I1
s(dp15
g6
I6
sg7
I255
s(dp16
g6
I0
sg7
I2
s(dp17
g6
I3
sg7
I1
s(dp18
g6
I1
sg7
I1
s(dp19
g6
I10
sg7
I255
s(dp20
g6
I0
sg7
I2
s(dp21
g6
I0
sg7
I1
s(dp22
g6
I2
sg7
I1
s(dp23
g6
I14
sg7
I255
s(dp24
g6
I0
sg7
I2
s(dp25
g6
I3
sg7
I1
s(dp26
g6
I2
sg7
I1
stp27
sS'vHints'
p28
((I31
I422
ttp29
sS'hHints'
p30
((I89
I83
t(I223
I83
t(I278
I83
t(I34
I84
ttp31
ss."
LayerCount: 2
Fore
SplineSet
453 371 m 257
 453 371 402 306 331 306 c 256
 265 306 217 361 153 361 c 256
 71 361 31 295 31 295 c 257
 31 212 l 257
 31 212 81 278 153 278 c 256
 218 278 267 223 331 223 c 256
 413 223 453 288 453 288 c 257
 453 371 l 257
453 183 m 257
 453 183 402 118 331 118 c 256
 265 118 217 172 153 172 c 256
 71 172 31 107 31 107 c 257
 31 24 l 257
 31 24 81 89 153 89 c 256
 218 89 267 34 331 34 c 256
 413 34 453 100 453 100 c 257
 453 183 l 257
EndSplineSet
EndChar

StartChar: aring
Encoding: 229 229 159
Width: 403
VWidth: 0
Flags: W
PickledData: "(dp1
S'org.robofab.postScriptHintData'
p2
(dp3
S'replaceTable'
p4
((dp5
S'index'
p6
I0
sS'type'
p7
I255
s(dp8
g6
I0
sg7
I2
s(dp9
g6
I1
sg7
I2
s(dp10
g6
I2
sg7
I2
s(dp11
g6
I0
sg7
I1
s(dp12
g6
I1
sg7
I1
s(dp13
g6
I2
sg7
I1
s(dp14
g6
I3
sg7
I1
s(dp15
g6
I4
sg7
I1
s(dp16
g6
I10
sg7
I255
s(dp17
g6
I3
sg7
I2
s(dp18
g6
I4
sg7
I2
s(dp19
g6
I0
sg7
I1
s(dp20
g6
I1
sg7
I1
s(dp21
g6
I2
sg7
I1
s(dp22
g6
I4
sg7
I1
s(dp23
g6
I15
sg7
I255
s(dp24
g6
I0
sg7
I2
s(dp25
g6
I4
sg7
I2
s(dp26
g6
I0
sg7
I1
s(dp27
g6
I1
sg7
I1
s(dp28
g6
I2
sg7
I1
s(dp29
g6
I4
sg7
I1
s(dp30
g6
I19
sg7
I255
s(dp31
g6
I0
sg7
I2
s(dp32
g6
I4
sg7
I2
s(dp33
g6
I5
sg7
I1
s(dp34
g6
I1
sg7
I1
s(dp35
g6
I2
sg7
I1
s(dp36
g6
I4
sg7
I1
s(dp37
g6
I21
sg7
I255
s(dp38
g6
I3
sg7
I2
s(dp39
g6
I4
sg7
I2
s(dp40
g6
I0
sg7
I1
s(dp41
g6
I1
sg7
I1
s(dp42
g6
I2
sg7
I1
s(dp43
g6
I4
sg7
I1
s(dp44
g6
I30
sg7
I255
s(dp45
g6
I0
sg7
I2
s(dp46
g6
I4
sg7
I2
s(dp47
g6
I0
sg7
I1
s(dp48
g6
I1
sg7
I1
s(dp49
g6
I2
sg7
I1
s(dp50
g6
I4
sg7
I1
stp51
sS'vHints'
p52
((I30
I76
t(I117
I39
t(I247
I39
t(I48
I72
t(I265
I73
ttp53
sS'hHints'
p54
((I-11
I65
t(I211
I65
t(I411
I65
t(I497
I40
t(I627
I40
t(I-7
I61
ttp55
ss."
LayerCount: 2
Fore
SplineSet
202 667 m 256
 155 667 117 629 117 583 c 256
 117 534 156 497 202 497 c 256
 248 497 286 535 286 583 c 256
 286 628 249 667 202 667 c 256
202 627 m 256
 225 627 247 607 247 583 c 256
 247 558 225 537 202 537 c 256
 177 537 156 558 156 583 c 256
 156 607 177 627 202 627 c 256
120 327 m 257
 120 338 l 258
 120 373 137 411 192 411 c 256
 251 411 265 380 265 336 c 258
 265 276 l 257
 130 276 30 248 30 120 c 256
 30 8 106 -11 152 -11 c 256
 201 -11 241 12 265 50 c 257
 270 50 l 257
 278 16 305 -7 343 -7 c 256
 366 -7 383 -1 391 4 c 257
 391 54 l 257
 362 54 l 258
 350 54 338 63 338 85 c 258
 338 346 l 258
 338 428 291 476 197 476 c 256
 110 476 48 431 48 347 c 256
 48 339 48 332 49 327 c 257
 120 327 l 257
265 169 m 258
 265 92 215 54 169 54 c 256
 128 54 106 72 106 125 c 256
 106 197 171 211 265 211 c 257
 265 169 l 258
EndSplineSet
EndChar

StartChar: aringacute
Encoding: 507 507 160
Width: 403
VWidth: 0
Flags: W
PickledData: "(dp1
S'org.robofab.postScriptHintData'
p2
(dp3
S'replaceTable'
p4
((dp5
S'index'
p6
I0
sS'type'
p7
I255
s(dp8
g6
I0
sg7
I2
s(dp9
g6
I1
sg7
I2
s(dp10
g6
I0
sg7
I1
s(dp11
g6
I1
sg7
I1
s(dp12
g6
I2
sg7
I1
s(dp13
g6
I3
sg7
I1
s(dp14
g6
I4
sg7
I1
s(dp15
g6
I5
sg7
I255
s(dp16
g6
I0
sg7
I2
s(dp17
g6
I2
sg7
I2
s(dp18
g6
I3
sg7
I2
s(dp19
g6
I0
sg7
I1
s(dp20
g6
I1
sg7
I1
s(dp21
g6
I2
sg7
I1
s(dp22
g6
I5
sg7
I1
s(dp23
g6
I3
sg7
I1
s(dp24
g6
I15
sg7
I255
s(dp25
g6
I4
sg7
I2
s(dp26
g6
I1
sg7
I2
s(dp27
g6
I0
sg7
I1
s(dp28
g6
I1
sg7
I1
s(dp29
g6
I2
sg7
I1
s(dp30
g6
I3
sg7
I1
s(dp31
g6
I20
sg7
I255
s(dp32
g6
I0
sg7
I2
s(dp33
g6
I1
sg7
I2
s(dp34
g6
I0
sg7
I1
s(dp35
g6
I1
sg7
I1
s(dp36
g6
I2
sg7
I1
s(dp37
g6
I3
sg7
I1
s(dp38
g6
I24
sg7
I255
s(dp39
g6
I0
sg7
I2
s(dp40
g6
I1
sg7
I2
s(dp41
g6
I6
sg7
I1
s(dp42
g6
I1
sg7
I1
s(dp43
g6
I2
sg7
I1
s(dp44
g6
I3
sg7
I1
s(dp45
g6
I26
sg7
I255
s(dp46
g6
I4
sg7
I2
s(dp47
g6
I1
sg7
I2
s(dp48
g6
I0
sg7
I1
s(dp49
g6
I1
sg7
I1
s(dp50
g6
I2
sg7
I1
s(dp51
g6
I3
sg7
I1
s(dp52
g6
I35
sg7
I255
s(dp53
g6
I0
sg7
I2
s(dp54
g6
I1
sg7
I2
s(dp55
g6
I0
sg7
I1
s(dp56
g6
I1
sg7
I1
s(dp57
g6
I2
sg7
I1
s(dp58
g6
I3
sg7
I1
stp59
sS'vHints'
p60
((I30
I76
t(I265
I73
t(I117
I39
t(I247
I39
t(I48
I72
ttp61
sS'hHints'
p62
((I-11
I65
t(I211
I65
t(I411
I65
t(I620
I39
t(I679
I102
t(I499
I38
t(I-7
I61
ttp63
ss."
LayerCount: 2
Fore
SplineSet
320 778 m 257
 319 781 l 257
 240 781 l 257
 173 679 l 257
 234 679 l 257
 320 778 l 257
202 659 m 256
 155 659 117 624 117 579 c 256
 117 533 156 499 202 499 c 256
 249 499 286 534 286 579 c 256
 286 623 250 659 202 659 c 256
202 620 m 256
 225 620 247 603 247 579 c 256
 247 555 225 537 202 537 c 256
 178 537 156 555 156 579 c 256
 156 603 178 620 202 620 c 256
120 327 m 257
 120 338 l 258
 120 373 137 411 192 411 c 256
 251 411 265 380 265 336 c 258
 265 276 l 257
 130 276 30 248 30 120 c 256
 30 8 106 -11 152 -11 c 256
 201 -11 241 12 265 50 c 257
 270 50 l 257
 278 16 305 -7 343 -7 c 256
 366 -7 383 -1 391 4 c 257
 391 54 l 257
 362 54 l 258
 350 54 338 63 338 85 c 258
 338 346 l 258
 338 428 291 476 197 476 c 256
 110 476 48 431 48 347 c 256
 48 339 48 332 49 327 c 257
 120 327 l 257
265 169 m 258
 265 92 215 54 169 54 c 256
 128 54 106 72 106 125 c 256
 106 197 171 211 265 211 c 257
 265 169 l 258
EndSplineSet
EndChar

StartChar: arrowboth
Encoding: 8596 8596 161
Width: 884
VWidth: 0
Flags: W
PickledData: "(dp1
S'org.robofab.postScriptHintData'
p2
(dp3
S'vHints'
p4
((I37
I811
ttp5
sS'hHints'
p6
((I191
I64
ttp7
ss."
LayerCount: 2
Fore
SplineSet
848 232 m 257
 674 377 l 257
 636 377 l 257
 688 255 l 257
 202 255 l 257
 248 377 l 257
 211 377 l 257
 37 232 l 257
 37 214 l 257
 211 70 l 257
 248 70 l 257
 202 191 l 257
 688 191 l 257
 636 70 l 257
 674 70 l 257
 848 214 l 257
 848 232 l 257
EndSplineSet
EndChar

StartChar: arrowdown
Encoding: 8595 8595 162
Width: 442
VWidth: 0
Flags: W
PickledData: "(dp1
S'org.robofab.postScriptHintData'
p2
(dp3
S'vHints'
p4
((I189
I65
ttp5
sS'hHints'
p6
((I-184
I812
ttp7
ss."
LayerCount: 2
Fore
SplineSet
254 -24 m 257
 254 628 l 257
 189 628 l 257
 189 -24 l 257
 68 27 l 257
 68 -10 l 257
 212 -184 l 257
 231 -184 l 257
 375 -10 l 257
 375 27 l 257
 254 -24 l 257
EndSplineSet
EndChar

StartChar: arrowleft
Encoding: 8592 8592 163
Width: 884
VWidth: 0
Flags: W
PickledData: "(dp1
S'org.robofab.postScriptHintData'
p2
(dp3
S'vHints'
p4
((I37
I812
ttp5
sS'hHints'
p6
((I191
I64
ttp7
ss."
LayerCount: 2
Fore
SplineSet
197 255 m 257
 248 377 l 257
 211 377 l 257
 37 232 l 257
 37 214 l 257
 211 70 l 257
 248 70 l 257
 197 191 l 257
 849 191 l 257
 849 255 l 257
 197 255 l 257
EndSplineSet
EndChar

StartChar: arrowright
Encoding: 8594 8594 164
Width: 884
VWidth: 0
Flags: W
PickledData: "(dp1
S'org.robofab.postScriptHintData'
p2
(dp3
S'vHints'
p4
((I36
I812
ttp5
sS'hHints'
p6
((I191
I64
ttp7
ss."
LayerCount: 2
Fore
SplineSet
848 232 m 257
 674 377 l 257
 636 377 l 257
 688 255 l 257
 36 255 l 257
 36 191 l 257
 688 191 l 257
 636 70 l 257
 674 70 l 257
 848 214 l 257
 848 232 l 257
EndSplineSet
EndChar

StartChar: arrowup
Encoding: 8593 8593 165
Width: 442
VWidth: 0
Flags: W
PickledData: "(dp1
S'org.robofab.postScriptHintData'
p2
(dp3
S'vHints'
p4
((I189
I65
ttp5
sS'hHints'
p6
((I-184
I812
ttp7
ss."
LayerCount: 2
Fore
SplineSet
375 453 m 257
 231 628 l 257
 212 628 l 257
 68 453 l 257
 68 416 l 257
 189 468 l 257
 189 -184 l 257
 254 -184 l 257
 254 468 l 257
 375 416 l 257
 375 453 l 257
EndSplineSet
EndChar

StartChar: arrowupdn
Encoding: 8597 8597 166
Width: 442
VWidth: 0
Flags: W
PickledData: "(dp1
S'org.robofab.postScriptHintData'
p2
(dp3
S'vHints'
p4
((I188
I65
ttp5
sS'hHints'
p6
((I-182
I811
ttp7
ss."
LayerCount: 2
Fore
SplineSet
374 454 m 257
 230 629 l 257
 211 629 l 257
 67 454 l 257
 67 417 l 257
 188 464 l 257
 188 -22 l 257
 67 29 l 257
 67 -8 l 257
 211 -182 l 257
 230 -182 l 257
 374 -8 l 257
 374 29 l 257
 253 -22 l 257
 253 464 l 257
 374 417 l 257
 374 454 l 257
EndSplineSet
EndChar

StartChar: arrowupdownbase
Encoding: 8616 8616 167
Width: 442
VWidth: 0
Flags: W
PickledData: "(dp1
S'org.robofab.postScriptHintData'
p2
(dp3
S'vHints'
p4
((I188
I65
ttp5
sS'hHints'
p6
((I-268
I43
ttp7
ss."
LayerCount: 2
Fore
SplineSet
374 454 m 257
 230 629 l 257
 211 629 l 257
 67 454 l 257
 67 417 l 257
 188 464 l 257
 188 -22 l 257
 67 29 l 257
 67 -8 l 257
 211 -182 l 257
 230 -182 l 257
 374 -8 l 257
 374 29 l 257
 253 -22 l 257
 253 464 l 257
 374 417 l 257
 374 454 l 257
376 -268 m 257
 376 -225 l 257
 66 -225 l 257
 66 -268 l 257
 376 -268 l 257
EndSplineSet
EndChar

StartChar: asciicircum
Encoding: 94 94 168
Width: 340
VWidth: 0
Flags: W
PickledData: "(dp1
S'org.robofab.postScriptHintData'
p2
(dp3
S'replaceTable'
p4
((dp5
S'index'
p6
I0
sS'type'
p7
I255
s(dp8
g6
I0
sg7
I2
s(dp9
g6
I0
sg7
I1
s(dp10
g6
I5
sg7
I255
s(dp11
g6
I0
sg7
I2
s(dp12
g6
I1
sg7
I1
stp13
sS'vHints'
p14
((I4
I335
ttp15
sS'hHints'
p16
((I606
I-20
t(I538
I68
ttp17
ss."
LayerCount: 2
Fore
SplineSet
339 260 m 257
 218 606 l 257
 124 606 l 257
 4 260 l 257
 83 260 l 257
 171 538 l 257
 260 260 l 257
 339 260 l 257
EndSplineSet
EndChar

StartChar: asciitilde
Encoding: 126 126 169
Width: 423
VWidth: 0
Flags: W
PickledData: "(dp1
S'org.robofab.postScriptHintData'
p2
(dp3
S'replaceTable'
p4
((dp5
S'index'
p6
I0
sS'type'
p7
I255
s(dp8
g6
I0
sg7
I2
s(dp9
g6
I0
sg7
I1
s(dp10
g6
I2
sg7
I255
s(dp11
g6
I0
sg7
I2
s(dp12
g6
I1
sg7
I1
s(dp13
g6
I6
sg7
I255
s(dp14
g6
I0
sg7
I2
s(dp15
g6
I0
sg7
I1
stp16
sS'vHints'
p17
((I31
I361
ttp18
sS'hHints'
p19
((I197
I81
t(I251
I81
ttp20
ss."
LayerCount: 2
Fore
SplineSet
392 343 m 257
 392 343 349 278 288 278 c 256
 232 278 190 332 135 332 c 256
 65 332 31 268 31 268 c 257
 31 187 l 257
 31 187 74 251 135 251 c 256
 192 251 233 197 288 197 c 256
 358 197 392 262 392 262 c 257
 392 343 l 257
EndSplineSet
EndChar

StartChar: asterisk
Encoding: 42 42 170
Width: 282
VWidth: 0
Flags: W
PickledData: "(dp1
S'org.robofab.postScriptHintData'
p2
(dp3
S'replaceTable'
p4
((dp5
S'index'
p6
I0
sS'type'
p7
I255
s(dp8
g6
I0
sg7
I2
s(dp9
g6
I0
sg7
I1
s(dp10
g6
I7
sg7
I255
s(dp11
g6
I0
sg7
I2
s(dp12
g6
I1
sg7
I1
stp13
sS'vHints'
p14
((I114
I53
ttp15
sS'hHints'
p16
((I606
I-20
t(I370
I236
ttp17
ss."
LayerCount: 2
Fore
SplineSet
163 529 m 257
 171 606 l 257
 110 606 l 257
 118 528 l 257
 53 574 l 257
 23 522 l 257
 95 489 l 257
 23 455 l 257
 53 403 l 257
 118 449 l 257
 110 370 l 257
 171 370 l 257
 163 449 l 257
 228 403 l 257
 258 455 l 257
 186 489 l 257
 258 522 l 257
 228 574 l 257
 163 529 l 257
EndSplineSet
EndChar

StartChar: at
Encoding: 64 64 171
Width: 735
VWidth: 0
Flags: W
PickledData: "(dp1
S'org.robofab.postScriptHintData'
p2
(dp3
S'replaceTable'
p4
((dp5
S'index'
p6
I0
sS'type'
p7
I255
s(dp8
g6
I0
sg7
I2
s(dp9
g6
I1
sg7
I2
s(dp10
g6
I2
sg7
I2
s(dp11
g6
I3
sg7
I2
s(dp12
g6
I0
sg7
I1
s(dp13
g6
I1
sg7
I1
s(dp14
g6
I2
sg7
I1
s(dp15
g6
I3
sg7
I1
s(dp16
g6
I4
sg7
I1
s(dp17
g6
I9
sg7
I255
s(dp18
g6
I0
sg7
I2
s(dp19
g6
I4
sg7
I2
s(dp20
g6
I2
sg7
I2
s(dp21
g6
I3
sg7
I2
s(dp22
g6
I0
sg7
I1
s(dp23
g6
I1
sg7
I1
s(dp24
g6
I2
sg7
I1
s(dp25
g6
I3
sg7
I1
s(dp26
g6
I4
sg7
I1
s(dp27
g6
I16
sg7
I255
s(dp28
g6
I0
sg7
I2
s(dp29
g6
I1
sg7
I2
s(dp30
g6
I2
sg7
I2
s(dp31
g6
I3
sg7
I2
s(dp32
g6
I0
sg7
I1
s(dp33
g6
I1
sg7
I1
s(dp34
g6
I2
sg7
I1
s(dp35
g6
I3
sg7
I1
s(dp36
g6
I4
sg7
I1
stp37
sS'vHints'
p38
((I40
I51
t(I232
I69
t(I446
I65
t(I644
I51
t(I248
I66
ttp39
sS'hHints'
p40
((I-135
I48
t(I19
I58
t(I220
I58
t(I402
I59
t(I568
I49
ttp41
ss."
LayerCount: 2
Fore
SplineSet
482 -58 m 257
 453 -74 386 -87 349 -87 c 256
 173 -87 91 19 91 231 c 256
 91 459 201 568 377 568 c 256
 534 568 644 485 644 285 c 256
 644 121 587 77 541 77 c 256
 522 77 511 87 511 110 c 258
 511 342 l 258
 511 417 469 461 384 461 c 256
 304 461 248 421 248 343 c 258
 248 325 l 257
 314 325 l 257
 314 335 l 258
 314 368 329 402 378 402 c 256
 432 402 446 374 446 333 c 258
 446 278 l 257
 323 278 232 254 232 137 c 256
 232 35 301 19 342 19 c 256
 386 19 423 40 446 74 c 257
 449 74 l 257
 457 42 477 19 528 19 c 256
 598 19 695 83 695 284 c 256
 695 521 560 617 377 617 c 256
 195 617 40 514 40 232 c 256
 40 -24 158 -135 349 -135 c 256
 384 -135 448 -126 482 -111 c 257
 482 -58 l 257
446 181 m 258
 446 111 400 77 358 77 c 256
 321 77 301 93 301 141 c 256
 301 208 360 220 446 220 c 257
 446 181 l 258
EndSplineSet
EndChar

StartChar: atilde
Encoding: 227 227 172
Width: 403
VWidth: 0
Flags: W
PickledData: "(dp1
S'org.robofab.postScriptHintData'
p2
(dp3
S'replaceTable'
p4
((dp5
S'index'
p6
I0
sS'type'
p7
I255
s(dp8
g6
I0
sg7
I2
s(dp9
g6
I1
sg7
I2
s(dp10
g6
I0
sg7
I1
s(dp11
g6
I1
sg7
I1
s(dp12
g6
I2
sg7
I1
s(dp13
g6
I3
sg7
I1
s(dp14
g6
I1
sg7
I255
s(dp15
g6
I0
sg7
I2
s(dp16
g6
I1
sg7
I2
s(dp17
g6
I0
sg7
I1
s(dp18
g6
I1
sg7
I1
s(dp19
g6
I2
sg7
I1
s(dp20
g6
I4
sg7
I1
s(dp21
g6
I5
sg7
I255
s(dp22
g6
I0
sg7
I2
s(dp23
g6
I1
sg7
I2
s(dp24
g6
I0
sg7
I1
s(dp25
g6
I1
sg7
I1
s(dp26
g6
I2
sg7
I1
s(dp27
g6
I3
sg7
I1
s(dp28
g6
I6
sg7
I255
s(dp29
g6
I0
sg7
I2
s(dp30
g6
I1
sg7
I2
s(dp31
g6
I0
sg7
I1
s(dp32
g6
I1
sg7
I1
s(dp33
g6
I2
sg7
I1
s(dp34
g6
I4
sg7
I1
s(dp35
g6
I7
sg7
I255
s(dp36
g6
I2
sg7
I2
s(dp37
g6
I1
sg7
I2
s(dp38
g6
I0
sg7
I1
s(dp39
g6
I1
sg7
I1
s(dp40
g6
I2
sg7
I1
s(dp41
g6
I3
sg7
I1
s(dp42
g6
I13
sg7
I255
s(dp43
g6
I0
sg7
I2
s(dp44
g6
I1
sg7
I2
s(dp45
g6
I0
sg7
I1
s(dp46
g6
I1
sg7
I1
s(dp47
g6
I2
sg7
I1
s(dp48
g6
I3
sg7
I1
s(dp49
g6
I17
sg7
I255
s(dp50
g6
I0
sg7
I2
s(dp51
g6
I1
sg7
I2
s(dp52
g6
I5
sg7
I1
s(dp53
g6
I1
sg7
I1
s(dp54
g6
I2
sg7
I1
s(dp55
g6
I3
sg7
I1
s(dp56
g6
I19
sg7
I255
s(dp57
g6
I2
sg7
I2
s(dp58
g6
I1
sg7
I2
s(dp59
g6
I0
sg7
I1
s(dp60
g6
I1
sg7
I1
s(dp61
g6
I2
sg7
I1
s(dp62
g6
I3
sg7
I1
s(dp63
g6
I28
sg7
I255
s(dp64
g6
I0
sg7
I2
s(dp65
g6
I1
sg7
I2
s(dp66
g6
I0
sg7
I1
s(dp67
g6
I1
sg7
I1
s(dp68
g6
I2
sg7
I1
s(dp69
g6
I3
sg7
I1
stp70
sS'vHints'
p71
((I30
I76
t(I265
I73
t(I48
I72
ttp72
sS'hHints'
p73
((I-11
I65
t(I211
I65
t(I411
I65
t(I575
I64
t(I547
I65
t(I-7
I61
ttp74
ss."
LayerCount: 2
Fore
SplineSet
279 639 m 257
 277 619 265 612 249 612 c 256
 215 612 186 639 148 639 c 256
 95 639 72 588 72 547 c 257
 124 547 l 257
 126 568 138 575 154 575 c 256
 188 575 217 547 255 547 c 256
 309 547 331 598 331 639 c 257
 279 639 l 257
120 327 m 257
 120 338 l 258
 120 373 137 411 192 411 c 256
 251 411 265 380 265 336 c 258
 265 276 l 257
 130 276 30 248 30 120 c 256
 30 8 106 -11 152 -11 c 256
 201 -11 241 12 265 50 c 257
 270 50 l 257
 278 16 305 -7 343 -7 c 256
 366 -7 383 -1 391 4 c 257
 391 54 l 257
 362 54 l 258
 350 54 338 63 338 85 c 258
 338 346 l 258
 338 428 291 476 197 476 c 256
 110 476 48 431 48 347 c 256
 48 339 48 332 49 327 c 257
 120 327 l 257
265 169 m 258
 265 92 215 54 169 54 c 256
 128 54 106 72 106 125 c 256
 106 197 171 211 265 211 c 257
 265 169 l 258
EndSplineSet
EndChar

StartChar: auMatra_anusvaradeva
Encoding: 65542 -1 173
Width: 207
VWidth: 0
Flags: W
PickledData: "(dp1
S'org.robofab.postScriptHintData'
p2
(dp3
S'replaceTable'
p4
((dp5
S'index'
p6
I0
sS'type'
p7
I255
s(dp8
g6
I0
sg7
I2
s(dp9
g6
I0
sg7
I1
s(dp10
g6
I1
sg7
I1
s(dp11
g6
I2
sg7
I1
s(dp12
g6
I16
sg7
I255
s(dp13
g6
I0
sg7
I2
s(dp14
g6
I1
sg7
I2
s(dp15
g6
I0
sg7
I1
s(dp16
g6
I1
sg7
I1
s(dp17
g6
I2
sg7
I1
stp18
sS'vHints'
p19
((I67
I73
t(I148
I73
ttp20
sS'hHints'
p21
((I21
I-21
t(I541
I65
t(I684
I77
ttp22
ss."
LayerCount: 2
Fore
SplineSet
137 606 m 257
 78 821 l 257
 6 821 l 257
 74 606 l 257
 58 606 l 257
 -56 821 l 257
 -128 821 l 257
 -7 606 l 257
 -22 606 l 257
 -22 541 l 257
 67 541 l 257
 67 0 l 257
 140 0 l 257
 140 541 l 257
 229 541 l 257
 229 606 l 257
 137 606 l 257
221 684 m 257
 221 761 l 257
 148 761 l 257
 148 684 l 257
 221 684 l 257
EndSplineSet
EndChar

StartChar: auMatra_reph_anusvaradeva
Encoding: 65543 -1 174
Width: 207
VWidth: 0
Flags: W
PickledData: "(dp1
S'org.robofab.postScriptHintData'
p2
(dp3
S'replaceTable'
p4
((dp5
S'index'
p6
I0
sS'type'
p7
I255
s(dp8
g6
I0
sg7
I2
s(dp9
g6
I0
sg7
I1
s(dp10
g6
I1
sg7
I1
s(dp11
g6
I2
sg7
I1
s(dp12
g6
I3
sg7
I1
s(dp13
g6
I14
sg7
I255
s(dp14
g6
I1
sg7
I2
s(dp15
g6
I2
sg7
I2
s(dp16
g6
I0
sg7
I1
s(dp17
g6
I1
sg7
I1
s(dp18
g6
I2
sg7
I1
s(dp19
g6
I3
sg7
I1
stp20
sS'vHints'
p21
((I67
I73
t(I90
I28
t(I159
I73
ttp22
sS'hHints'
p23
((I21
I-21
t(I541
I65
t(I644
I77
t(I762
I65
ttp24
ss."
LayerCount: 2
Fore
SplineSet
57 821 m 257
 -16 821 l 257
 43 691 l 257
 90 606 l 257
 59 606 l 257
 -75 821 l 257
 -147 821 l 257
 5 606 l 257
 -22 606 l 257
 -22 541 l 257
 67 541 l 257
 67 0 l 257
 140 0 l 257
 140 541 l 257
 229 541 l 257
 229 606 l 257
 139 606 l 257
 127 640 118 672 118 695 c 256
 118 737 149 762 204 762 c 258
 209 762 l 257
 209 826 l 257
 204 827 195 827 186 827 c 256
 125 827 90 785 90 721 c 257
 57 821 l 257
232 644 m 257
 232 721 l 257
 159 721 l 257
 159 644 l 257
 232 644 l 257
EndSplineSet
EndChar

StartChar: auMatra_rephdeva
Encoding: 65544 -1 175
Width: 207
VWidth: 0
Flags: W
PickledData: "(dp1
S'org.robofab.postScriptHintData'
p2
(dp3
S'replaceTable'
p4
((dp5
S'index'
p6
I0
sS'type'
p7
I255
s(dp8
g6
I0
sg7
I2
s(dp9
g6
I0
sg7
I1
s(dp10
g6
I1
sg7
I1
s(dp11
g6
I2
sg7
I1
s(dp12
g6
I15
sg7
I255
s(dp13
g6
I1
sg7
I2
s(dp14
g6
I0
sg7
I1
s(dp15
g6
I1
sg7
I1
s(dp16
g6
I2
sg7
I1
stp17
sS'vHints'
p18
((I67
I73
t(I106
I18
ttp19
sS'hHints'
p20
((I21
I-21
t(I541
I65
t(I762
I65
ttp21
ss."
LayerCount: 2
Fore
SplineSet
78 821 m 257
 6 821 l 257
 74 606 l 257
 58 606 l 257
 -56 821 l 257
 -128 821 l 257
 -7 606 l 257
 -22 606 l 257
 -22 541 l 257
 67 541 l 257
 67 0 l 257
 140 0 l 257
 140 541 l 257
 229 541 l 257
 229 606 l 257
 137 606 l 257
 125 650 l 258
 124 655 124 659 124 664 c 256
 124 726 171 762 236 762 c 258
 240 762 l 257
 240 826 l 257
 236 827 227 827 218 827 c 256
 153 827 112 785 106 719 c 257
 78 821 l 257
EndSplineSet
EndChar

StartChar: audeva
Encoding: 2324 2324 176
Width: 811
VWidth: 0
Flags: W
PickledData: "(dp1
S'org.robofab.postScriptHintData'
p2
(dp3
S'replaceTable'
p4
((dp5
S'index'
p6
I0
sS'type'
p7
I255
s(dp8
g6
I0
sg7
I2
s(dp9
g6
I1
sg7
I2
s(dp10
g6
I2
sg7
I2
s(dp11
g6
I3
sg7
I2
s(dp12
g6
I0
sg7
I1
s(dp13
g6
I1
sg7
I1
s(dp14
g6
I2
sg7
I1
s(dp15
g6
I3
sg7
I1
s(dp16
g6
I13
sg7
I255
s(dp17
g6
I0
sg7
I2
s(dp18
g6
I4
sg7
I2
s(dp19
g6
I2
sg7
I2
s(dp20
g6
I3
sg7
I2
s(dp21
g6
I0
sg7
I1
s(dp22
g6
I1
sg7
I1
s(dp23
g6
I2
sg7
I1
s(dp24
g6
I3
sg7
I1
s(dp25
g6
I16
sg7
I255
s(dp26
g6
I0
sg7
I2
s(dp27
g6
I1
sg7
I2
s(dp28
g6
I2
sg7
I2
s(dp29
g6
I3
sg7
I2
s(dp30
g6
I0
sg7
I1
s(dp31
g6
I1
sg7
I1
s(dp32
g6
I4
sg7
I1
s(dp33
g6
I5
sg7
I1
s(dp34
g6
I25
sg7
I255
s(dp35
g6
I0
sg7
I2
s(dp36
g6
I4
sg7
I2
s(dp37
g6
I2
sg7
I2
s(dp38
g6
I3
sg7
I2
s(dp39
g6
I0
sg7
I1
s(dp40
g6
I1
sg7
I1
s(dp41
g6
I4
sg7
I1
s(dp42
g6
I3
sg7
I1
s(dp43
g6
I27
sg7
I255
s(dp44
g6
I5
sg7
I2
s(dp45
g6
I6
sg7
I2
s(dp46
g6
I2
sg7
I2
s(dp47
g6
I3
sg7
I2
s(dp48
g6
I0
sg7
I1
s(dp49
g6
I1
sg7
I1
s(dp50
g6
I4
sg7
I1
s(dp51
g6
I3
sg7
I1
s(dp52
g6
I36
sg7
I255
s(dp53
g6
I0
sg7
I2
s(dp54
g6
I6
sg7
I2
s(dp55
g6
I2
sg7
I2
s(dp56
g6
I7
sg7
I2
s(dp57
g6
I0
sg7
I1
s(dp58
g6
I1
sg7
I1
s(dp59
g6
I2
sg7
I1
s(dp60
g6
I3
sg7
I1
s(dp61
g6
I45
sg7
I255
s(dp62
g6
I0
sg7
I2
s(dp63
g6
I1
sg7
I2
s(dp64
g6
I2
sg7
I2
s(dp65
g6
I3
sg7
I2
s(dp66
g6
I0
sg7
I1
s(dp67
g6
I1
sg7
I1
s(dp68
g6
I2
sg7
I1
s(dp69
g6
I3
sg7
I1
stp70
sS'vHints'
p71
((I42
I74
t(I255
I74
t(I465
I72
t(I669
I72
t(I139
I119
t(I32
I74
t(I264
I75
t(I671
I73
ttp72
sS'hHints'
p73
((I21
I-21
t(I52
I64
t(I241
I65
t(I541
I65
t(I308
I62
t(I554
I63
ttp74
ss."
AnchorPoint: "top" 406 465 basechar 0
AnchorPoint: "bottom" 406 0 basechar 0
LayerCount: 2
Fore
SplineSet
741 606 m 257
 741 821 l 257
 669 821 l 257
 669 743 l 258
 669 697 672 652 677 606 c 257
 660 606 l 257
 601 821 l 257
 528 821 l 257
 596 606 l 257
 421 606 l 257
 421 541 l 257
 465 541 l 257
 465 306 l 257
 309 306 l 257
 295 323 278 336 258 342 c 257
 258 345 l 257
 299 366 329 402 329 470 c 256
 329 564 274 617 186 617 c 256
 101 617 42 563 42 475 c 258
 42 459 l 257
 116 459 l 257
 116 468 l 258
 116 527 145 554 186 554 c 256
 226 554 255 525 255 464 c 256
 255 402 224 370 182 370 c 258
 139 370 l 257
 139 308 l 257
 180 308 l 258
 228 308 264 281 264 214 c 256
 264 150 232 116 182 116 c 256
 134 116 106 147 106 205 c 258
 106 216 l 257
 32 216 l 257
 32 208 l 258
 32 110 88 52 184 52 c 256
 278 52 339 112 339 209 c 256
 339 220 338 231 337 241 c 257
 465 241 l 257
 465 0 l 257
 537 0 l 257
 537 541 l 257
 671 541 l 257
 671 0 l 257
 744 0 l 257
 744 541 l 257
 833 541 l 257
 833 606 l 257
 741 606 l 257
EndSplineSet
EndChar

StartChar: b
Encoding: 98 98 177
Width: 403
VWidth: 0
Flags: W
PickledData: "(dp1
S'org.robofab.postScriptHintData'
p2
(dp3
S'replaceTable'
p4
((dp5
S'index'
p6
I0
sS'type'
p7
I255
s(dp8
g6
I0
sg7
I2
s(dp9
g6
I1
sg7
I2
s(dp10
g6
I0
sg7
I1
s(dp11
g6
I1
sg7
I1
s(dp12
g6
I2
sg7
I1
s(dp13
g6
I3
sg7
I255
s(dp14
g6
I0
sg7
I2
s(dp15
g6
I1
sg7
I2
s(dp16
g6
I3
sg7
I1
s(dp17
g6
I1
sg7
I1
s(dp18
g6
I2
sg7
I1
s(dp19
g6
I5
sg7
I255
s(dp20
g6
I0
sg7
I2
s(dp21
g6
I1
sg7
I2
s(dp22
g6
I0
sg7
I1
s(dp23
g6
I1
sg7
I1
s(dp24
g6
I2
sg7
I1
stp25
sS'vHints'
p26
((I53
I73
t(I292
I76
ttp27
sS'hHints'
p28
((I-11
I65
t(I411
I65
t(I639
I-20
t(I0
I54
ttp29
ss."
LayerCount: 2
Fore
SplineSet
126 421 m 257
 126 639 l 257
 53 639 l 257
 53 0 l 257
 108 0 l 257
 118 54 l 257
 122 54 l 257
 144 11 181 -11 224 -11 c 256
 312 -11 368 63 368 233 c 256
 368 402 306 476 229 476 c 256
 184 476 146 455 130 421 c 257
 126 421 l 257
292 216 m 258
 292 100 264 54 209 54 c 256
 153 54 126 109 126 216 c 258
 126 246 l 258
 126 355 153 411 209 411 c 256
 264 411 292 365 292 249 c 258
 292 216 l 258
EndSplineSet
EndChar

StartChar: b_radeva
Encoding: 65545 -1 178
Width: 385
VWidth: 0
Flags: W
PickledData: "(dp1
S'org.robofab.postScriptHintData'
p2
(dp3
S'vHints'
p4
((I28
I75
t(I248
I73
ttp5
sS'hHints'
p6
((I21
I-21
t(I128
I65
t(I405
I64
t(I541
I65
ttp7
ss."
AnchorPoint: "top" 286 606 basechar 0
AnchorPoint: "bottom" 286 0 basechar 0
LayerCount: 2
Fore
SplineSet
410 541 m 257
 410 606 l 257
 -12 606 l 257
 -12 541 l 257
 248 541 l 257
 248 437 l 257
 244 437 l 257
 227 456 199 469 159 469 c 256
 83 469 28 422 28 299 c 256
 28 186 74 134 146 128 c 257
 28 0 l 257
 115 0 l 257
 248 157 l 257
 248 0 l 257
 321 0 l 257
 321 541 l 257
 410 541 l 257
248 287 m 258
 248 264 245 246 239 231 c 257
 146 401 l 257
 154 404 164 405 175 405 c 256
 225 405 248 373 248 309 c 258
 248 287 l 258
208 199 m 257
 198 195 188 193 175 193 c 256
 126 193 103 219 103 287 c 258
 103 309 l 258
 103 336 107 357 114 372 c 257
 208 199 l 257
EndSplineSet
EndChar

StartChar: backslash
Encoding: 92 92 179
Width: 202
VWidth: 0
Flags: W
PickledData: "(dp1
S'org.robofab.postScriptHintData'
p2
(dp3
S'vHints'
p4
((I1
I201
ttp5
sS'hHints'
p6
((I-43
I693
ttp7
ss."
LayerCount: 2
Fore
SplineSet
202 -43 m 257
 63 650 l 257
 1 650 l 257
 139 -43 l 257
 202 -43 l 257
EndSplineSet
EndChar

StartChar: bar
Encoding: 124 124 180
Width: 188
VWidth: 0
Flags: W
PickledData: "(dp1
S'org.robofab.postScriptHintData'
p2
(dp3
S'vHints'
p4
((I59
I70
ttp5
sS'hHints'
p6
((I-132
I-21
t(I639
I-20
ttp7
ss."
LayerCount: 2
Fore
SplineSet
129 -153 m 257
 129 639 l 257
 59 639 l 257
 59 -153 l 257
 129 -153 l 257
EndSplineSet
EndChar

StartChar: bh_radeva
Encoding: 65546 -1 181
Width: 530
VWidth: 0
Flags: HW
PickledData: "(dp1
S'org.robofab.postScriptHintData'
p2
(dp3
S'replaceTable'
p4
((dp5
S'index'
p6
I0
sS'type'
p7
I255
s(dp8
g6
I0
sg7
I2
s(dp9
g6
I1
sg7
I2
s(dp10
g6
I2
sg7
I2
s(dp11
g6
I0
sg7
I1
s(dp12
g6
I1
sg7
I1
s(dp13
g6
I2
sg7
I1
s(dp14
g6
I3
sg7
I1
s(dp15
g6
I6
sg7
I255
s(dp16
g6
I3
sg7
I2
s(dp17
g6
I1
sg7
I2
s(dp18
g6
I2
sg7
I2
s(dp19
g6
I0
sg7
I1
s(dp20
g6
I1
sg7
I1
s(dp21
g6
I2
sg7
I1
s(dp22
g6
I4
sg7
I1
s(dp23
g6
I15
sg7
I255
s(dp24
g6
I3
sg7
I2
s(dp25
g6
I1
sg7
I2
s(dp26
g6
I2
sg7
I2
s(dp27
g6
I5
sg7
I1
s(dp28
g6
I1
sg7
I1
s(dp29
g6
I2
sg7
I1
s(dp30
g6
I4
sg7
I1
s(dp31
g6
I26
sg7
I255
s(dp32
g6
I0
sg7
I2
s(dp33
g6
I1
sg7
I2
s(dp34
g6
I2
sg7
I2
s(dp35
g6
I0
sg7
I1
s(dp36
g6
I1
sg7
I1
s(dp37
g6
I2
sg7
I1
s(dp38
g6
I3
sg7
I1
s(dp39
g6
I32
sg7
I255
s(dp40
g6
I3
sg7
I2
s(dp41
g6
I1
sg7
I2
s(dp42
g6
I2
sg7
I2
s(dp43
g6
I0
sg7
I1
s(dp44
g6
I1
sg7
I1
s(dp45
g6
I2
sg7
I1
s(dp46
g6
I4
sg7
I1
stp47
sS'vHints'
p48
((I39
I73
t(I200
I72
t(I391
I72
t(I44
I72
ttp49
sS'hHints'
p50
((I22
I-21
t(I126
I66
t(I283
I65
t(I552
I65
t(I541
I65
t(I21
I-21
ttp51
ss."
AnchorPoint: "top" 429 606 basechar 0
AnchorPoint: "bottom" 429 0 basechar 0
LayerCount: 2
Fore
SplineSet
112 459 m 257
 112 493 l 258
 112 527 125 552 155 552 c 256
 190 552 200 527 200 495 c 258
 200 348 l 257
 158 348 l 258
 90 348 44 304 44 238 c 256
 44 174 93 126 159 126 c 256
 227 126 272 172 272 238 c 258
 272 283 l 257
 391 283 l 257
 391 268 l 257
 167 1 l 257
 255 1 l 257
 391 174 l 257
 391 0 l 257
 463 0 l 257
 463 541 l 257
 541 541 l 257
 541 606 l 257
 347 606 l 257
 347 541 l 257
 391 541 l 257
 391 348 l 257
 272 348 l 257
 272 504 l 258
 272 575 233 617 160 617 c 256
 93 617 39 576 39 502 c 256
 39 481 43 468 45 459 c 257
 112 459 l 257
200 283 m 257
 200 238 l 258
 200 211 184 192 159 192 c 256
 135 192 116 211 116 238 c 256
 116 265 134 283 158 283 c 258
 200 283 l 257
EndSplineSet
EndChar

StartChar: bhadeva
Encoding: 2349 2349 182
Width: 530
VWidth: 0
Flags: W
PickledData: "(dp1
S'org.robofab.postScriptHintData'
p2
(dp3
S'replaceTable'
p4
((dp5
S'index'
p6
I0
sS'type'
p7
I255
s(dp8
g6
I0
sg7
I2
s(dp9
g6
I1
sg7
I2
s(dp10
g6
I2
sg7
I2
s(dp11
g6
I0
sg7
I1
s(dp12
g6
I1
sg7
I1
s(dp13
g6
I2
sg7
I1
s(dp14
g6
I3
sg7
I1
s(dp15
g6
I6
sg7
I255
s(dp16
g6
I3
sg7
I2
s(dp17
g6
I1
sg7
I2
s(dp18
g6
I2
sg7
I2
s(dp19
g6
I0
sg7
I1
s(dp20
g6
I1
sg7
I1
s(dp21
g6
I2
sg7
I1
s(dp22
g6
I4
sg7
I1
s(dp23
g6
I22
sg7
I255
s(dp24
g6
I0
sg7
I2
s(dp25
g6
I1
sg7
I2
s(dp26
g6
I2
sg7
I2
s(dp27
g6
I0
sg7
I1
s(dp28
g6
I1
sg7
I1
s(dp29
g6
I2
sg7
I1
s(dp30
g6
I3
sg7
I1
s(dp31
g6
I28
sg7
I255
s(dp32
g6
I3
sg7
I2
s(dp33
g6
I1
sg7
I2
s(dp34
g6
I2
sg7
I2
s(dp35
g6
I0
sg7
I1
s(dp36
g6
I1
sg7
I1
s(dp37
g6
I2
sg7
I1
s(dp38
g6
I4
sg7
I1
stp39
sS'vHints'
p40
((I39
I73
t(I200
I72
t(I391
I72
t(I44
I72
ttp41
sS'hHints'
p42
((I21
I-21
t(I94
I65
t(I250
I66
t(I552
I65
t(I541
I65
ttp43
ss."
AnchorPoint: "top" 427 606 basechar 0
AnchorPoint: "bottom" 427 0 basechar 0
LayerCount: 2
Fore
SplineSet
112 459 m 257
 112 493 l 258
 112 527 125 552 155 552 c 256
 190 552 200 527 200 495 c 258
 200 316 l 257
 158 316 l 258
 90 316 44 271 44 206 c 256
 44 141 93 94 159 94 c 256
 227 94 272 139 272 206 c 258
 272 250 l 257
 391 250 l 257
 391 0 l 257
 463 0 l 257
 463 541 l 257
 541 541 l 257
 541 606 l 257
 347 606 l 257
 347 541 l 257
 391 541 l 257
 391 316 l 257
 272 316 l 257
 272 504 l 258
 272 575 233 617 160 617 c 256
 93 617 39 576 39 502 c 256
 39 481 43 468 45 459 c 257
 112 459 l 257
200 250 m 257
 200 206 l 258
 200 178 184 159 159 159 c 256
 135 159 116 179 116 206 c 256
 116 232 134 250 158 250 c 258
 200 250 l 257
EndSplineSet
EndChar

StartChar: braceleft
Encoding: 123 123 183
Width: 242
VWidth: 0
Flags: W
PickledData: "(dp1
S'org.robofab.postScriptHintData'
p2
(dp3
S'replaceTable'
p4
((dp5
S'index'
p6
I0
sS'type'
p7
I255
s(dp8
g6
I0
sg7
I2
s(dp9
g6
I0
sg7
I1
s(dp10
g6
I1
sg7
I1
s(dp11
g6
I2
sg7
I1
s(dp12
g6
I3
sg7
I255
s(dp13
g6
I1
sg7
I2
s(dp14
g6
I0
sg7
I2
s(dp15
g6
I0
sg7
I1
s(dp16
g6
I1
sg7
I1
s(dp17
g6
I2
sg7
I1
s(dp18
g6
I4
sg7
I255
s(dp19
g6
I1
sg7
I2
s(dp20
g6
I0
sg7
I2
s(dp21
g6
I0
sg7
I1
s(dp22
g6
I3
sg7
I1
s(dp23
g6
I1
sg7
I1
s(dp24
g6
I2
sg7
I1
s(dp25
g6
I5
sg7
I255
s(dp26
g6
I0
sg7
I2
s(dp27
g6
I0
sg7
I1
s(dp28
g6
I3
sg7
I1
s(dp29
g6
I1
sg7
I1
s(dp30
g6
I2
sg7
I1
s(dp31
g6
I11
sg7
I255
s(dp32
g6
I1
sg7
I2
s(dp33
g6
I0
sg7
I2
s(dp34
g6
I0
sg7
I1
s(dp35
g6
I3
sg7
I1
s(dp36
g6
I1
sg7
I1
s(dp37
g6
I2
sg7
I1
s(dp38
g6
I13
sg7
I255
s(dp39
g6
I0
sg7
I2
s(dp40
g6
I0
sg7
I1
s(dp41
g6
I1
sg7
I1
s(dp42
g6
I2
sg7
I1
stp43
sS'vHints'
p44
((I86
I69
t(I18
I53
ttp45
sS'hHints'
p46
((I-141
I51
t(I259
I33
t(I599
I51
t(I217
I33
ttp47
ss."
LayerCount: 2
Fore
SplineSet
225 650 m 257
 151 650 86 630 86 519 c 258
 86 345 l 258
 86 305 50 292 18 292 c 257
 18 217 l 257
 50 217 86 204 86 164 c 258
 86 -10 l 258
 86 -121 151 -141 225 -141 c 257
 225 -90 l 257
 193 -90 155 -80 155 -27 c 256
 155 34 151 93 149 155 c 256
 147 215 127 250 71 250 c 257
 71 259 l 257
 127 259 147 294 149 354 c 256
 151 416 155 476 155 537 c 256
 155 589 193 599 225 599 c 257
 225 650 l 257
EndSplineSet
EndChar

StartChar: braceright
Encoding: 125 125 184
Width: 242
VWidth: 0
Flags: W
PickledData: "(dp1
S'org.robofab.postScriptHintData'
p2
(dp3
S'replaceTable'
p4
((dp5
S'index'
p6
I0
sS'type'
p7
I255
s(dp8
g6
I0
sg7
I2
s(dp9
g6
I0
sg7
I1
s(dp10
g6
I1
sg7
I1
s(dp11
g6
I2
sg7
I1
s(dp12
g6
I2
sg7
I255
s(dp13
g6
I0
sg7
I2
s(dp14
g6
I0
sg7
I1
s(dp15
g6
I1
sg7
I1
s(dp16
g6
I3
sg7
I1
s(dp17
g6
I2
sg7
I1
s(dp18
g6
I3
sg7
I255
s(dp19
g6
I0
sg7
I2
s(dp20
g6
I1
sg7
I2
s(dp21
g6
I0
sg7
I1
s(dp22
g6
I1
sg7
I1
s(dp23
g6
I3
sg7
I1
s(dp24
g6
I2
sg7
I1
s(dp25
g6
I5
sg7
I255
s(dp26
g6
I0
sg7
I2
s(dp27
g6
I0
sg7
I1
s(dp28
g6
I1
sg7
I1
s(dp29
g6
I2
sg7
I1
s(dp30
g6
I11
sg7
I255
s(dp31
g6
I0
sg7
I2
s(dp32
g6
I1
sg7
I2
s(dp33
g6
I0
sg7
I1
s(dp34
g6
I1
sg7
I1
s(dp35
g6
I2
sg7
I1
s(dp36
g6
I12
sg7
I255
s(dp37
g6
I0
sg7
I2
s(dp38
g6
I1
sg7
I2
s(dp39
g6
I0
sg7
I1
s(dp40
g6
I1
sg7
I1
s(dp41
g6
I3
sg7
I1
s(dp42
g6
I2
sg7
I1
s(dp43
g6
I13
sg7
I255
s(dp44
g6
I0
sg7
I2
s(dp45
g6
I0
sg7
I1
s(dp46
g6
I1
sg7
I1
s(dp47
g6
I3
sg7
I1
s(dp48
g6
I2
sg7
I1
stp49
sS'vHints'
p50
((I88
I68
t(I171
I54
ttp51
sS'hHints'
p52
((I-141
I51
t(I217
I33
t(I599
I51
t(I259
I33
ttp53
ss."
LayerCount: 2
Fore
SplineSet
18 599 m 257
 50 599 88 589 88 537 c 256
 88 476 91 416 94 354 c 257
 95 294 115 259 171 259 c 257
 171 250 l 257
 115 250 95 215 94 155 c 257
 91 93 88 34 88 -27 c 256
 88 -80 50 -90 18 -90 c 257
 18 -141 l 257
 91 -141 156 -121 156 -10 c 258
 156 164 l 258
 156 204 193 217 225 217 c 257
 225 292 l 257
 193 292 156 305 156 345 c 258
 156 519 l 258
 156 630 91 650 18 650 c 257
 18 599 l 257
EndSplineSet
EndChar

StartChar: bracketleft
Encoding: 91 91 185
Width: 202
VWidth: 0
Flags: W
PickledData: "(dp1
S'org.robofab.postScriptHintData'
p2
(dp3
S'vHints'
p4
((I43
I67
ttp5
sS'hHints'
p6
((I-142
I57
t(I592
I58
ttp7
ss."
LayerCount: 2
Fore
SplineSet
184 592 m 257
 184 650 l 257
 43 650 l 257
 43 -142 l 257
 184 -142 l 257
 184 -85 l 257
 110 -85 l 257
 110 592 l 257
 184 592 l 257
EndSplineSet
EndChar

StartChar: bracketright
Encoding: 93 93 186
Width: 202
VWidth: 0
Flags: W
PickledData: "(dp1
S'org.robofab.postScriptHintData'
p2
(dp3
S'vHints'
p4
((I91
I67
ttp5
sS'hHints'
p6
((I-142
I57
t(I592
I58
ttp7
ss."
LayerCount: 2
Fore
SplineSet
158 -142 m 257
 158 650 l 257
 18 650 l 257
 18 592 l 257
 91 592 l 257
 91 -85 l 257
 18 -85 l 257
 18 -142 l 257
 158 -142 l 257
EndSplineSet
EndChar

StartChar: breve
Encoding: 728 728 187
Width: 241
VWidth: 0
Flags: W
PickledData: "(dp1
S'org.robofab.postScriptHintData'
p2
(dp3
S'replaceTable'
p4
((dp5
S'index'
p6
I0
sS'type'
p7
I255
s(dp8
g6
I0
sg7
I2
s(dp9
g6
I0
sg7
I1
s(dp10
g6
I1
sg7
I255
s(dp11
g6
I0
sg7
I2
s(dp12
g6
I1
sg7
I1
s(dp13
g6
I2
sg7
I255
s(dp14
g6
I0
sg7
I2
s(dp15
g6
I0
sg7
I1
s(dp16
g6
I4
sg7
I255
s(dp17
g6
I0
sg7
I2
s(dp18
g6
I1
sg7
I1
s(dp19
g6
I5
sg7
I255
s(dp20
g6
I0
sg7
I2
s(dp21
g6
I0
sg7
I1
stp22
sS'vHints'
p23
((I10
I218
ttp24
sS'hHints'
p25
((I553
I86
t(I553
I57
ttp26
ss."
AnchorPoint: "top" 119 465 mark 0
LayerCount: 2
Fore
SplineSet
171 639 m 257
 170 627 149 610 118 610 c 256
 89 610 69 627 66 639 c 257
 10 639 l 257
 10 599 51 553 118 553 c 256
 187 553 228 599 228 639 c 257
 171 639 l 257
EndSplineSet
EndChar

StartChar: brokenbar
Encoding: 166 166 188
Width: 188
VWidth: 0
Flags: W
PickledData: "(dp1
S'org.robofab.postScriptHintData'
p2
(dp3
S'vHints'
p4
((I59
I70
ttp5
sS'hHints'
p6
((I-132
I-21
t(I639
I-20
ttp7
ss."
LayerCount: 2
Fore
SplineSet
129 303 m 257
 129 639 l 257
 59 639 l 257
 59 303 l 257
 129 303 l 257
129 -153 m 257
 129 183 l 257
 59 183 l 257
 59 -153 l 257
 129 -153 l 257
EndSplineSet
EndChar

StartChar: bullet
Encoding: 8226 8226 189
Width: 254
VWidth: 0
Flags: W
PickledData: "(dp1
S'org.robofab.postScriptHintData'
p2
(dp3
S'vHints'
p4
((I30
I194
ttp5
sS'hHints'
p6
((I205
I197
ttp7
ss."
LayerCount: 2
Fore
SplineSet
126 402 m 256
 73 402 30 358 30 304 c 256
 30 250 73 205 126 205 c 256
 180 205 224 250 224 304 c 256
 224 358 180 402 126 402 c 256
EndSplineSet
EndChar

StartChar: bulletoperator
Encoding: 8729 8729 190
Width: 202
VWidth: 0
Flags: W
PickledData: "(dp1
S'org.robofab.postScriptHintData'
p2
(dp3
S'vHints'
p4
((I56
I89
ttp5
sS'hHints'
p6
((I255
I98
ttp7
ss."
LayerCount: 2
Fore
SplineSet
145 255 m 257
 145 353 l 257
 56 353 l 257
 56 255 l 257
 145 255 l 257
EndSplineSet
EndChar

StartChar: c
Encoding: 99 99 191
Width: 362
VWidth: 0
Flags: W
PickledData: "(dp1
S'org.robofab.postScriptHintData'
p2
(dp3
S'vHints'
p4
((I32
I76
t(I258
I75
ttp5
sS'hHints'
p6
((I-11
I65
t(I411
I65
ttp7
ss."
AnchorPoint: "top" 181 465 basechar 0
AnchorPoint: "bottom" 181 0 basechar 0
LayerCount: 2
Fore
SplineSet
262 172 m 257
 262 95 243 54 191 54 c 256
 133 54 108 109 108 216 c 258
 108 249 l 258
 108 356 133 411 191 411 c 256
 243 411 258 373 258 293 c 257
 333 293 l 257
 333 411 292 476 191 476 c 256
 82 476 32 400 32 232 c 256
 32 65 81 -11 191 -11 c 256
 293 -11 333 75 333 172 c 257
 262 172 l 257
EndSplineSet
EndChar

StartChar: cacute
Encoding: 263 263 192
Width: 362
VWidth: 0
Flags: W
PickledData: "(dp1
S'org.robofab.postScriptHintData'
p2
(dp3
S'vHints'
p4
((I32
I76
t(I258
I75
ttp5
sS'hHints'
p6
((I-11
I65
t(I411
I65
t(I522
I117
ttp7
ss."
LayerCount: 2
Fore
SplineSet
293 636 m 257
 293 639 l 257
 213 639 l 257
 137 522 l 257
 199 522 l 257
 293 636 l 257
262 172 m 257
 262 95 243 54 191 54 c 256
 133 54 108 109 108 216 c 258
 108 249 l 258
 108 356 133 411 191 411 c 256
 243 411 258 373 258 293 c 257
 333 293 l 257
 333 411 292 476 191 476 c 256
 82 476 32 400 32 232 c 256
 32 65 81 -11 191 -11 c 256
 293 -11 333 75 333 172 c 257
 262 172 l 257
EndSplineSet
EndChar

StartChar: cadeva
Encoding: 2330 2330 193
Width: 429
VWidth: 0
Flags: W
PickledData: "(dp1
S'org.robofab.postScriptHintData'
p2
(dp3
S'vHints'
p4
((I70
I75
t(I290
I73
ttp5
sS'hHints'
p6
((I21
I-21
t(I103
I64
t(I357
I66
t(I541
I65
ttp7
ss."
AnchorPoint: "top" 327 606 basechar 0
AnchorPoint: "bottom" 327 0 basechar 0
LayerCount: 2
Fore
SplineSet
452 541 m 257
 452 606 l 257
 -35 606 l 257
 -35 541 l 257
 290 541 l 257
 290 271 l 258
 290 202 267 167 217 167 c 256
 168 167 145 191 145 253 c 258
 145 271 l 258
 145 333 168 357 217 357 c 258
 232 357 l 257
 232 423 l 257
 12 423 l 257
 12 357 l 257
 98 357 l 257
 80 335 70 303 70 259 c 256
 70 150 121 103 201 103 c 256
 241 103 269 117 286 136 c 257
 290 136 l 257
 290 0 l 257
 363 0 l 257
 363 541 l 257
 452 541 l 257
EndSplineSet
EndChar

StartChar: candrabindudeva
Encoding: 2305 2305 194
Width: 0
VWidth: 0
Flags: W
PickledData: "(dp1
S'org.robofab.postScriptHintData'
p2
(dp3
S'vHints'
p4
((I-244
I70
t(I-140
I73
t(I-30
I70
ttp5
sS'hHints'
p6
((I663
I52
t(I750
I49
ttp7
ss."
AnchorPoint: "top" -102 606 mark 0
LayerCount: 2
Fore
SplineSet
-67 750 m 257
 -67 827 l 257
 -140 827 l 257
 -140 750 l 257
 -67 750 l 257
-30 799 m 257
 -30 739 -52 715 -103 715 c 256
 -153 715 -174 739 -174 799 c 257
 -244 799 l 257
 -244 719 -191 663 -103 663 c 256
 -13 663 40 719 40 799 c 257
 -30 799 l 257
EndSplineSet
EndChar

StartChar: caron
Encoding: 711 711 195
Width: 241
VWidth: 0
Flags: W
PickledData: "(dp1
S'org.robofab.postScriptHintData'
p2
(dp3
S'vHints'
p4
((I9
I220
ttp5
sS'hHints'
p6
((I520
I119
ttp7
ss."
AnchorPoint: "top" 119 465 mark 0
LayerCount: 2
Fore
SplineSet
153 520 m 257
 229 639 l 257
 158 639 l 257
 118 569 l 257
 80 639 l 257
 9 639 l 257
 84 520 l 257
 153 520 l 257
EndSplineSet
EndChar

StartChar: ccaron
Encoding: 269 269 196
Width: 362
VWidth: 0
Flags: W
PickledData: "(dp1
S'org.robofab.postScriptHintData'
p2
(dp3
S'vHints'
p4
((I32
I76
t(I258
I75
ttp5
sS'hHints'
p6
((I-11
I65
t(I411
I65
t(I520
I119
ttp7
ss."
LayerCount: 2
Fore
SplineSet
216 520 m 257
 292 639 l 257
 221 639 l 257
 181 569 l 257
 142 639 l 257
 72 639 l 257
 147 520 l 257
 216 520 l 257
262 172 m 257
 262 95 243 54 191 54 c 256
 133 54 108 109 108 216 c 258
 108 249 l 258
 108 356 133 411 191 411 c 256
 243 411 258 373 258 293 c 257
 333 293 l 257
 333 411 292 476 191 476 c 256
 82 476 32 400 32 232 c 256
 32 65 81 -11 191 -11 c 256
 293 -11 333 75 333 172 c 257
 262 172 l 257
EndSplineSet
EndChar

StartChar: ccedilla
Encoding: 231 231 197
Width: 362
VWidth: 0
Flags: W
PickledData: "(dp1
S'org.robofab.postScriptHintData'
p2
(dp3
S'replaceTable'
p4
((dp5
S'index'
p6
I0
sS'type'
p7
I255
s(dp8
g6
I0
sg7
I2
s(dp9
g6
I1
sg7
I2
s(dp10
g6
I0
sg7
I1
s(dp11
g6
I1
sg7
I1
s(dp12
g6
I2
sg7
I1
s(dp13
g6
I3
sg7
I1
s(dp14
g6
I9
sg7
I255
s(dp15
g6
I0
sg7
I2
s(dp16
g6
I1
sg7
I2
s(dp17
g6
I0
sg7
I1
s(dp18
g6
I4
sg7
I1
s(dp19
g6
I3
sg7
I1
s(dp20
g6
I10
sg7
I255
s(dp21
g6
I0
sg7
I2
s(dp22
g6
I2
sg7
I2
s(dp23
g6
I0
sg7
I1
s(dp24
g6
I4
sg7
I1
s(dp25
g6
I3
sg7
I1
s(dp26
g6
I20
sg7
I255
s(dp27
g6
I0
sg7
I2
s(dp28
g6
I2
sg7
I2
s(dp29
g6
I0
sg7
I1
s(dp30
g6
I2
sg7
I1
s(dp31
g6
I3
sg7
I1
stp32
sS'vHints'
p33
((I32
I76
t(I197
I67
t(I258
I75
ttp34
sS'hHints'
p35
((I-154
I43
t(I-68
I36
t(I16
I-21
t(I411
I65
t(I-11
I65
ttp36
ss."
LayerCount: 2
Fore
SplineSet
138 -68 m 257
 167 -68 l 258
 190 -68 197 -75 197 -89 c 256
 197 -106 185 -111 165 -111 c 258
 98 -111 l 257
 98 -154 l 257
 119 -158 148 -161 172 -161 c 256
 209 -161 264 -149 264 -89 c 256
 264 -49 231 -34 193 -32 c 257
 195 -11 l 257
 294 -8 333 77 333 172 c 257
 262 172 l 257
 262 95 243 54 191 54 c 256
 133 54 108 109 108 216 c 258
 108 249 l 258
 108 356 133 411 191 411 c 256
 243 411 258 373 258 293 c 257
 333 293 l 257
 333 411 292 476 191 476 c 256
 82 476 32 400 32 232 c 256
 32 89 68 13 148 -5 c 257
 138 -68 l 257
EndSplineSet
EndChar

StartChar: ccircumflex
Encoding: 265 265 198
Width: 362
VWidth: 0
Flags: W
PickledData: "(dp1
S'org.robofab.postScriptHintData'
p2
(dp3
S'replaceTable'
p4
((dp5
S'index'
p6
I0
sS'type'
p7
I255
s(dp8
g6
I0
sg7
I2
s(dp9
g6
I1
sg7
I2
s(dp10
g6
I0
sg7
I1
s(dp11
g6
I1
sg7
I1
s(dp12
g6
I2
sg7
I1
s(dp13
g6
I5
sg7
I255
s(dp14
g6
I0
sg7
I2
s(dp15
g6
I1
sg7
I2
s(dp16
g6
I0
sg7
I1
s(dp17
g6
I1
sg7
I1
s(dp18
g6
I3
sg7
I1
s(dp19
g6
I6
sg7
I255
s(dp20
g6
I0
sg7
I2
s(dp21
g6
I1
sg7
I2
s(dp22
g6
I0
sg7
I1
s(dp23
g6
I1
sg7
I1
s(dp24
g6
I2
sg7
I1
stp25
sS'vHints'
p26
((I32
I76
t(I258
I75
ttp27
sS'hHints'
p28
((I-11
I65
t(I411
I65
t(I519
I119
t(I589
I49
ttp29
ss."
LayerCount: 2
Fore
SplineSet
292 519 m 257
 217 638 l 257
 148 638 l 257
 72 519 l 257
 142 519 l 257
 182 589 l 257
 221 519 l 257
 292 519 l 257
262 172 m 257
 262 95 243 54 191 54 c 256
 133 54 108 109 108 216 c 258
 108 249 l 258
 108 356 133 411 191 411 c 256
 243 411 258 373 258 293 c 257
 333 293 l 257
 333 411 292 476 191 476 c 256
 82 476 32 400 32 232 c 256
 32 65 81 -11 191 -11 c 256
 293 -11 333 75 333 172 c 257
 262 172 l 257
EndSplineSet
EndChar

StartChar: cdotaccent
Encoding: 267 267 199
Width: 362
VWidth: 0
Flags: W
PickledData: "(dp1
S'org.robofab.postScriptHintData'
p2
(dp3
S'vHints'
p4
((I32
I76
t(I143
I77
t(I258
I75
ttp5
sS'hHints'
p6
((I-11
I65
t(I411
I65
t(I555
I84
ttp7
ss."
LayerCount: 2
Fore
SplineSet
220 555 m 257
 220 639 l 257
 143 639 l 257
 143 555 l 257
 220 555 l 257
262 172 m 257
 262 95 243 54 191 54 c 256
 133 54 108 109 108 216 c 258
 108 249 l 258
 108 356 133 411 191 411 c 256
 243 411 258 373 258 293 c 257
 333 293 l 257
 333 411 292 476 191 476 c 256
 82 476 32 400 32 232 c 256
 32 65 81 -11 191 -11 c 256
 293 -11 333 75 333 172 c 257
 262 172 l 257
EndSplineSet
EndChar

StartChar: cedilla
Encoding: 184 184 200
Width: 241
VWidth: 0
Flags: W
PickledData: "(dp1
S'org.robofab.postScriptHintData'
p2
(dp3
S'vHints'
p4
((I131
I67
ttp5
sS'hHints'
p6
((I-154
I43
t(I-68
I78
ttp7
ss."
AnchorPoint: "bottom" 115 0 mark 0
LayerCount: 2
Fore
SplineSet
133 10 m 257
 84 10 l 257
 72 -68 l 257
 101 -68 l 258
 124 -68 131 -75 131 -89 c 256
 131 -106 118 -111 99 -111 c 258
 32 -111 l 257
 32 -154 l 257
 53 -158 81 -161 106 -161 c 256
 142 -161 198 -149 198 -89 c 256
 198 -49 164 -34 126 -32 c 257
 133 10 l 257
EndSplineSet
EndChar

StartChar: cent
Encoding: 162 162 201
Width: 403
VWidth: 0
Flags: W
PickledData: "(dp1
S'org.robofab.postScriptHintData'
p2
(dp3
S'vHints'
p4
((I42
I76
t(I186
I43
t(I288
I72
ttp5
sS'hHints'
p6
((I639
I-20
ttp7
ss."
LayerCount: 2
Fore
SplineSet
229 639 m 257
 186 639 l 257
 186 545 l 257
 88 535 42 458 42 303 c 256
 42 148 88 72 186 61 c 257
 186 -43 l 257
 229 -43 l 257
 229 61 l 257
 323 71 360 152 360 243 c 257
 288 243 l 257
 288 175 272 135 229 126 c 257
 229 480 l 257
 271 471 285 434 285 363 c 257
 360 363 l 257
 360 474 322 537 229 545 c 257
 229 639 l 257
186 127 m 257
 138 141 118 194 118 286 c 258
 118 320 l 258
 118 412 139 466 186 478 c 257
 186 127 l 257
EndSplineSet
EndChar

StartChar: chadeva
Encoding: 2331 2331 202
Width: 461
VWidth: 0
Flags: W
PickledData: "(dp1
S'org.robofab.postScriptHintData'
p2
(dp3
S'replaceTable'
p4
((dp5
S'index'
p6
I0
sS'type'
p7
I255
s(dp8
g6
I0
sg7
I2
s(dp9
g6
I1
sg7
I2
s(dp10
g6
I0
sg7
I1
s(dp11
g6
I1
sg7
I1
s(dp12
g6
I2
sg7
I1
s(dp13
g6
I9
sg7
I255
s(dp14
g6
I0
sg7
I2
s(dp15
g6
I2
sg7
I2
s(dp16
g6
I0
sg7
I1
s(dp17
g6
I1
sg7
I1
s(dp18
g6
I2
sg7
I1
s(dp19
g6
I10
sg7
I255
s(dp20
g6
I0
sg7
I2
s(dp21
g6
I1
sg7
I2
s(dp22
g6
I0
sg7
I1
s(dp23
g6
I1
sg7
I1
s(dp24
g6
I2
sg7
I1
s(dp25
g6
I14
sg7
I255
s(dp26
g6
I0
sg7
I2
s(dp27
g6
I3
sg7
I2
s(dp28
g6
I2
sg7
I2
s(dp29
g6
I0
sg7
I1
s(dp30
g6
I1
sg7
I1
s(dp31
g6
I2
sg7
I1
stp32
sS'vHints'
p33
((I39
I75
t(I296
I73
t(I367
I69
t(I229
I68
ttp34
sS'hHints'
p35
((I52
I62
t(I312
I61
t(I541
I65
ttp36
ss."
AnchorPoint: "top" 335 606 basechar 0
AnchorPoint: "bottom" 231 0 basechar 0
LayerCount: 2
Fore
SplineSet
483 541 m 257
 483 606 l 257
 -22 606 l 257
 -22 541 l 257
 60 541 l 257
 47 524 40 499 40 466 c 256
 40 386 77 356 115 347 c 257
 69 325 39 273 39 210 c 256
 39 113 117 52 236 52 c 256
 360 52 436 133 436 271 c 256
 436 352 414 401 369 418 c 257
 369 541 l 257
 483 541 l 257
296 541 m 257
 296 419 l 257
 259 409 229 382 229 339 c 256
 229 327 231 316 233 312 c 257
 297 312 l 257
 297 325 l 258
 297 346 306 364 328 364 c 256
 359 364 367 324 367 286 c 258
 367 262 l 258
 367 173 322 114 236 114 c 256
 162 114 114 148 114 223 c 256
 114 280 143 312 174 312 c 258
 182 312 l 257
 182 373 l 257
 173 373 l 258
 141 373 114 401 114 467 c 256
 114 506 124 541 153 541 c 258
 296 541 l 257
EndSplineSet
EndChar

StartChar: circumflex
Encoding: 710 710 203
Width: 241
VWidth: 0
Flags: W
PickledData: "(dp1
S'org.robofab.postScriptHintData'
p2
(dp3
S'replaceTable'
p4
((dp5
S'index'
p6
I0
sS'type'
p7
I255
s(dp8
g6
I0
sg7
I2
s(dp9
g6
I0
sg7
I1
s(dp10
g6
I5
sg7
I255
s(dp11
g6
I0
sg7
I2
s(dp12
g6
I1
sg7
I1
s(dp13
g6
I6
sg7
I255
s(dp14
g6
I0
sg7
I2
s(dp15
g6
I0
sg7
I1
stp16
sS'vHints'
p17
((I9
I220
ttp18
sS'hHints'
p19
((I519
I119
t(I589
I49
ttp20
ss."
AnchorPoint: "top" 119 465 mark 0
LayerCount: 2
Fore
SplineSet
229 519 m 257
 154 638 l 257
 85 638 l 257
 9 519 l 257
 80 519 l 257
 119 589 l 257
 158 519 l 257
 229 519 l 257
EndSplineSet
EndChar

StartChar: colon
Encoding: 58 58 204
Width: 202
VWidth: 0
Flags: W
PickledData: "(dp1
S'org.robofab.postScriptHintData'
p2
(dp3
S'vHints'
p4
((I57
I88
ttp5
sS'hHints'
p6
((I0
I95
t(I370
I95
ttp7
ss."
LayerCount: 2
Fore
SplineSet
145 370 m 257
 145 465 l 257
 57 465 l 257
 57 370 l 257
 145 370 l 257
145 0 m 257
 145 95 l 257
 57 95 l 257
 57 0 l 257
 145 0 l 257
EndSplineSet
EndChar

StartChar: comma
Encoding: 44 44 205
Width: 202
VWidth: 0
Flags: W
PickledData: "(dp1
S'org.robofab.postScriptHintData'
p2
(dp3
S'vHints'
p4
((I57
I88
ttp5
sS'hHints'
p6
((I0
I95
ttp7
ss."
LayerCount: 2
Fore
SplineSet
145 8 m 257
 145 95 l 257
 57 95 l 257
 57 0 l 257
 92 0 l 257
 57 -110 l 257
 103 -110 l 257
 145 8 l 257
EndSplineSet
EndChar

StartChar: commaaccentcomb
Encoding: 806 806 206
Width: 0
VWidth: 0
Flags: W
PickledData: "(dp1
S'org.robofab.postScriptHintData'
p2
(dp3
S'vHints'
p4
((I-156
I75
ttp5
sS'hHints'
p6
((I-133
I80
ttp7
ss."
AnchorPoint: "bottom" -118 0 mark 0
LayerCount: 2
Fore
SplineSet
-81 -127 m 257
 -81 -53 l 257
 -156 -53 l 257
 -156 -133 l 257
 -126 -133 l 257
 -147 -196 l 257
 -107 -196 l 257
 -81 -127 l 257
EndSplineSet
EndChar

StartChar: copyright
Encoding: 169 169 207
Width: 534
VWidth: 0
Flags: W
PickledData: "(dp1
S'org.robofab.postScriptHintData'
p2
(dp3
S'vHints'
p4
((I19
I40
t(I128
I52
t(I344
I49
t(I475
I40
ttp5
sS'hHints'
p6
((I-11
I42
t(I123
I46
t(I447
I46
t(I575
I42
ttp7
ss."
LayerCount: 2
Fore
SplineSet
267 617 m 256
 112 617 19 494 19 303 c 256
 19 112 112 -11 267 -11 c 256
 422 -11 515 112 515 303 c 256
 515 494 422 617 267 617 c 256
267 575 m 256
 396 575 475 469 475 303 c 256
 475 138 396 31 267 31 c 256
 138 31 59 138 59 303 c 256
 59 469 138 575 267 575 c 256
344 257 m 257
 344 198 314 169 269 169 c 256
 209 169 180 211 180 295 c 258
 180 322 l 258
 180 406 209 447 269 447 c 256
 313 447 342 418 342 358 c 257
 393 358 l 257
 393 449 341 493 269 493 c 256
 176 493 128 432 128 308 c 256
 128 184 176 123 269 123 c 256
 341 123 393 165 393 257 c 257
 344 257 l 257
EndSplineSet
EndChar

StartChar: currency
Encoding: 164 164 208
Width: 403
VWidth: 0
Flags: W
PickledData: "(dp1
S'org.robofab.postScriptHintData'
p2
(dp3
S'vHints'
p4
((I10
I60
t(I332
I61
ttp5
sS'hHints'
p6
((I85
I61
t(I460
I61
ttp7
ss."
LayerCount: 2
Fore
SplineSet
40 507 m 257
 -3 464 l 257
 41 421 l 257
 21 386 10 346 10 302 c 256
 10 258 21 217 41 184 c 257
 -3 141 l 257
 40 98 l 257
 78 136 l 257
 111 104 154 85 202 85 c 256
 248 85 292 104 325 136 c 257
 363 98 l 257
 406 141 l 257
 362 184 l 257
 382 217 393 258 393 302 c 256
 393 346 382 386 362 421 c 257
 406 464 l 257
 363 507 l 257
 325 469 l 257
 292 501 248 521 202 521 c 256
 154 521 110 501 77 469 c 257
 40 507 l 257
202 460 m 256
 274 460 332 390 332 302 c 256
 332 216 274 146 202 146 c 256
 128 146 70 216 70 302 c 256
 70 390 128 460 202 460 c 256
EndSplineSet
EndChar

StartChar: d
Encoding: 100 100 209
Width: 403
VWidth: 0
Flags: W
PickledData: "(dp1
S'org.robofab.postScriptHintData'
p2
(dp3
S'replaceTable'
p4
((dp5
S'index'
p6
I0
sS'type'
p7
I255
s(dp8
g6
I0
sg7
I2
s(dp9
g6
I1
sg7
I2
s(dp10
g6
I0
sg7
I1
s(dp11
g6
I1
sg7
I1
s(dp12
g6
I2
sg7
I1
s(dp13
g6
I7
sg7
I255
s(dp14
g6
I0
sg7
I2
s(dp15
g6
I1
sg7
I2
s(dp16
g6
I3
sg7
I1
s(dp17
g6
I1
sg7
I1
s(dp18
g6
I2
sg7
I1
s(dp19
g6
I10
sg7
I255
s(dp20
g6
I0
sg7
I2
s(dp21
g6
I1
sg7
I2
s(dp22
g6
I0
sg7
I1
s(dp23
g6
I1
sg7
I1
s(dp24
g6
I2
sg7
I1
s(dp25
g6
I12
sg7
I255
s(dp26
g6
I0
sg7
I2
s(dp27
g6
I1
sg7
I2
s(dp28
g6
I3
sg7
I1
s(dp29
g6
I1
sg7
I1
s(dp30
g6
I2
sg7
I1
stp31
sS'vHints'
p32
((I35
I76
t(I278
I72
ttp33
sS'hHints'
p34
((I0
I54
t(I411
I65
t(I639
I-20
t(I-11
I65
ttp35
ss."
AnchorPoint: "center" 202 232 basechar 0
LayerCount: 2
Fore
SplineSet
350 0 m 257
 350 639 l 257
 278 639 l 257
 278 421 l 257
 273 421 l 257
 257 455 219 476 174 476 c 256
 97 476 35 402 35 233 c 256
 35 63 91 -11 179 -11 c 256
 222 -11 259 11 281 54 c 257
 286 54 l 257
 295 0 l 257
 350 0 l 257
278 216 m 258
 278 109 250 54 194 54 c 256
 139 54 111 100 111 216 c 258
 111 249 l 258
 111 365 139 411 194 411 c 256
 250 411 278 355 278 246 c 258
 278 216 l 258
EndSplineSet
EndChar

StartChar: dadeva
Encoding: 2342 2342 210
Width: 363
VWidth: 0
Flags: W
PickledData: "(dp1
S'org.robofab.postScriptHintData'
p2
(dp3
S'replaceTable'
p4
((dp5
S'index'
p6
I0
sS'type'
p7
I255
s(dp8
g6
I0
sg7
I2
s(dp9
g6
I1
sg7
I2
s(dp10
g6
I0
sg7
I1
s(dp11
g6
I1
sg7
I1
s(dp12
g6
I2
sg7
I1
s(dp13
g6
I4
sg7
I255
s(dp14
g6
I0
sg7
I2
s(dp15
g6
I2
sg7
I2
s(dp16
g6
I3
sg7
I1
s(dp17
g6
I1
sg7
I1
s(dp18
g6
I2
sg7
I1
s(dp19
g6
I9
sg7
I255
s(dp20
g6
I0
sg7
I2
s(dp21
g6
I1
sg7
I2
s(dp22
g6
I3
sg7
I1
s(dp23
g6
I1
sg7
I1
s(dp24
g6
I2
sg7
I1
s(dp25
g6
I10
sg7
I255
s(dp26
g6
I0
sg7
I2
s(dp27
g6
I1
sg7
I2
s(dp28
g6
I0
sg7
I1
s(dp29
g6
I1
sg7
I1
s(dp30
g6
I2
sg7
I1
s(dp31
g6
I14
sg7
I255
s(dp32
g6
I0
sg7
I2
s(dp33
g6
I1
sg7
I2
s(dp34
g6
I4
sg7
I1
s(dp35
g6
I1
sg7
I1
s(dp36
g6
I2
sg7
I1
s(dp37
g6
I18
sg7
I255
s(dp38
g6
I0
sg7
I2
s(dp39
g6
I2
sg7
I2
s(dp40
g6
I0
sg7
I1
s(dp41
g6
I1
sg7
I1
s(dp42
g6
I2
sg7
I1
stp43
sS'vHints'
p44
((I28
I75
t(I236
I72
t(I227
I72
ttp45
sS'hHints'
p46
((I0
I209
t(I370
I64
t(I541
I65
t(I75
I66
t(I0
I141
ttp47
ss."
AnchorPoint: "top" 262 606 basechar 0
AnchorPoint: "bottom" 211 0 basechar 0
LayerCount: 2
Fore
SplineSet
379 541 m 257
 379 606 l 257
 -15 606 l 257
 -15 541 l 257
 227 541 l 257
 227 434 l 257
 191 434 l 258
 90 434 28 368 28 249 c 256
 28 131 84 75 156 75 c 256
 191 75 218 91 236 107 c 257
 236 0 l 257
 308 0 l 257
 308 209 l 257
 236 209 l 257
 236 182 l 257
 220 157 200 141 174 141 c 256
 133 141 103 179 103 249 c 256
 103 331 141 370 191 370 c 258
 299 370 l 257
 299 541 l 257
 379 541 l 257
EndSplineSet
EndChar

StartChar: dagger
Encoding: 8224 8224 211
Width: 403
VWidth: 0
Flags: W
PickledData: "(dp1
S'org.robofab.postScriptHintData'
p2
(dp3
S'vHints'
p4
((I168
I65
ttp5
sS'hHints'
p6
((I-129
I-21
t(I606
I-20
ttp7
ss."
LayerCount: 2
Fore
SplineSet
225 436 m 257
 240 606 l 257
 162 606 l 257
 177 436 l 257
 31 451 l 257
 31 369 l 257
 177 385 l 257
 159 -150 l 257
 242 -150 l 257
 225 385 l 257
 371 369 l 257
 371 451 l 257
 225 436 l 257
EndSplineSet
EndChar

StartChar: daggerdbl
Encoding: 8225 8225 212
Width: 403
VWidth: 0
Flags: W
PickledData: "(dp1
S'org.robofab.postScriptHintData'
p2
(dp3
S'vHints'
p4
((I169
I63
ttp5
sS'hHints'
p6
((I-129
I-21
t(I606
I-20
ttp7
ss."
LayerCount: 2
Fore
SplineSet
225 436 m 257
 240 606 l 257
 162 606 l 257
 177 436 l 257
 31 451 l 257
 31 369 l 257
 177 385 l 257
 159 230 l 257
 177 72 l 257
 31 88 l 257
 31 5 l 257
 177 20 l 257
 162 -150 l 257
 240 -150 l 257
 225 20 l 257
 371 5 l 257
 371 88 l 257
 225 72 l 257
 242 230 l 257
 225 385 l 257
 371 369 l 257
 371 451 l 257
 225 436 l 257
EndSplineSet
EndChar

StartChar: dcaron
Encoding: 271 271 213
Width: 446
VWidth: 0
Flags: W
PickledData: "(dp1
S'org.robofab.postScriptHintData'
p2
(dp3
S'replaceTable'
p4
((dp5
S'index'
p6
I0
sS'type'
p7
I255
s(dp8
g6
I0
sg7
I2
s(dp9
g6
I1
sg7
I2
s(dp10
g6
I2
sg7
I2
s(dp11
g6
I0
sg7
I1
s(dp12
g6
I1
sg7
I1
s(dp13
g6
I2
sg7
I1
s(dp14
g6
I7
sg7
I255
s(dp15
g6
I0
sg7
I2
s(dp16
g6
I1
sg7
I2
s(dp17
g6
I2
sg7
I2
s(dp18
g6
I3
sg7
I1
s(dp19
g6
I1
sg7
I1
s(dp20
g6
I4
sg7
I1
s(dp21
g6
I10
sg7
I255
s(dp22
g6
I0
sg7
I2
s(dp23
g6
I1
sg7
I2
s(dp24
g6
I2
sg7
I2
s(dp25
g6
I0
sg7
I1
s(dp26
g6
I1
sg7
I1
s(dp27
g6
I4
sg7
I1
s(dp28
g6
I19
sg7
I255
s(dp29
g6
I0
sg7
I2
s(dp30
g6
I1
sg7
I2
s(dp31
g6
I2
sg7
I2
s(dp32
g6
I3
sg7
I1
s(dp33
g6
I1
sg7
I1
s(dp34
g6
I4
sg7
I1
stp35
sS'vHints'
p36
((I35
I76
t(I278
I72
t(I385
I89
ttp37
sS'hHints'
p38
((I0
I54
t(I411
I65
t(I511
I128
t(I-11
I65
t(I511
I95
ttp39
ss."
LayerCount: 2
Fore
SplineSet
350 0 m 257
 350 639 l 257
 278 639 l 257
 278 421 l 257
 273 421 l 257
 257 455 219 476 174 476 c 256
 97 476 35 402 35 233 c 256
 35 63 91 -11 179 -11 c 256
 222 -11 259 11 281 54 c 257
 286 54 l 257
 295 0 l 257
 350 0 l 257
474 519 m 257
 474 606 l 257
 385 606 l 257
 385 511 l 257
 421 511 l 257
 385 401 l 257
 431 401 l 257
 474 519 l 257
278 216 m 258
 278 109 250 54 194 54 c 256
 139 54 111 100 111 216 c 258
 111 249 l 258
 111 365 139 411 194 411 c 256
 250 411 278 355 278 246 c 258
 278 216 l 258
EndSplineSet
EndChar

StartChar: dcroat
Encoding: 273 273 214
Width: 400
VWidth: 0
Flags: W
PickledData: "(dp1
S'org.robofab.postScriptHintData'
p2
(dp3
S'replaceTable'
p4
((dp5
S'index'
p6
I0
sS'type'
p7
I255
s(dp8
g6
I0
sg7
I2
s(dp9
g6
I1
sg7
I2
s(dp10
g6
I0
sg7
I1
s(dp11
g6
I1
sg7
I1
s(dp12
g6
I2
sg7
I1
s(dp13
g6
I1
sg7
I255
s(dp14
g6
I0
sg7
I2
s(dp15
g6
I1
sg7
I2
s(dp16
g6
I0
sg7
I1
s(dp17
g6
I1
sg7
I1
s(dp18
g6
I3
sg7
I1
s(dp19
g6
I3
sg7
I255
s(dp20
g6
I0
sg7
I2
s(dp21
g6
I1
sg7
I2
s(dp22
g6
I0
sg7
I1
s(dp23
g6
I1
sg7
I1
s(dp24
g6
I2
sg7
I1
s(dp25
g6
I5
sg7
I255
s(dp26
g6
I0
sg7
I2
s(dp27
g6
I1
sg7
I2
s(dp28
g6
I0
sg7
I1
s(dp29
g6
I1
sg7
I1
s(dp30
g6
I3
sg7
I1
s(dp31
g6
I14
sg7
I255
s(dp32
g6
I0
sg7
I2
s(dp33
g6
I1
sg7
I2
s(dp34
g6
I4
sg7
I1
s(dp35
g6
I1
sg7
I1
s(dp36
g6
I3
sg7
I1
s(dp37
g6
I18
sg7
I255
s(dp38
g6
I0
sg7
I2
s(dp39
g6
I1
sg7
I2
s(dp40
g6
I0
sg7
I1
s(dp41
g6
I1
sg7
I1
s(dp42
g6
I2
sg7
I1
stp43
sS'vHints'
p44
((I35
I76
t(I278
I72
ttp45
sS'hHints'
p46
((I-11
I65
t(I411
I65
t(I515
I60
t(I515
I124
t(I0
I54
ttp47
ss."
LayerCount: 2
Fore
SplineSet
350 575 m 257
 350 639 l 257
 278 639 l 257
 278 575 l 257
 179 575 l 257
 179 515 l 257
 278 515 l 257
 278 421 l 257
 273 421 l 257
 257 455 219 476 174 476 c 256
 97 476 35 402 35 233 c 256
 35 63 91 -11 179 -11 c 256
 222 -11 259 11 281 54 c 257
 286 54 l 257
 295 0 l 257
 350 0 l 257
 350 515 l 257
 401 515 l 257
 401 575 l 257
 350 575 l 257
278 216 m 258
 278 109 250 54 194 54 c 256
 139 54 111 100 111 216 c 258
 111 249 l 258
 111 365 139 411 194 411 c 256
 250 411 278 355 278 246 c 258
 278 216 l 258
EndSplineSet
EndChar

StartChar: dd_dda_uuMatradeva
Encoding: 65547 -1 215
Width: 353
VWidth: 0
Flags: W
PickledData: "(dp1
S'org.robofab.postScriptHintData'
p2
(dp3
S'replaceTable'
p4
((dp5
S'index'
p6
I0
sS'type'
p7
I255
s(dp8
g6
I0
sg7
I2
s(dp9
g6
I1
sg7
I2
s(dp10
g6
I0
sg7
I1
s(dp11
g6
I1
sg7
I1
s(dp12
g6
I2
sg7
I1
s(dp13
g6
I3
sg7
I1
s(dp14
g6
I4
sg7
I1
s(dp15
g6
I5
sg7
I1
s(dp16
g6
I6
sg7
I1
s(dp17
g6
I9
sg7
I255
s(dp18
g6
I2
sg7
I2
s(dp19
g6
I3
sg7
I2
s(dp20
g6
I0
sg7
I1
s(dp21
g6
I1
sg7
I1
s(dp22
g6
I2
sg7
I1
s(dp23
g6
I3
sg7
I1
s(dp24
g6
I4
sg7
I1
s(dp25
g6
I5
sg7
I1
s(dp26
g6
I6
sg7
I1
s(dp27
g6
I17
sg7
I255
s(dp28
g6
I0
sg7
I2
s(dp29
g6
I3
sg7
I2
s(dp30
g6
I0
sg7
I1
s(dp31
g6
I1
sg7
I1
s(dp32
g6
I2
sg7
I1
s(dp33
g6
I3
sg7
I1
s(dp34
g6
I4
sg7
I1
s(dp35
g6
I5
sg7
I1
s(dp36
g6
I6
sg7
I1
s(dp37
g6
I22
sg7
I255
s(dp38
g6
I2
sg7
I2
s(dp39
g6
I1
sg7
I2
s(dp40
g6
I0
sg7
I1
s(dp41
g6
I1
sg7
I1
s(dp42
g6
I2
sg7
I1
s(dp43
g6
I3
sg7
I1
s(dp44
g6
I4
sg7
I1
s(dp45
g6
I5
sg7
I1
s(dp46
g6
I6
sg7
I1
s(dp47
g6
I27
sg7
I255
s(dp48
g6
I4
sg7
I2
s(dp49
g6
I3
sg7
I2
s(dp50
g6
I0
sg7
I1
s(dp51
g6
I1
sg7
I1
s(dp52
g6
I2
sg7
I1
s(dp53
g6
I3
sg7
I1
s(dp54
g6
I4
sg7
I1
s(dp55
g6
I5
sg7
I1
s(dp56
g6
I6
sg7
I1
s(dp57
g6
I39
sg7
I255
s(dp58
g6
I0
sg7
I2
s(dp59
g6
I3
sg7
I2
s(dp60
g6
I0
sg7
I1
s(dp61
g6
I1
sg7
I1
s(dp62
g6
I2
sg7
I1
s(dp63
g6
I3
sg7
I1
s(dp64
g6
I4
sg7
I1
s(dp65
g6
I5
sg7
I1
s(dp66
g6
I6
sg7
I1
s(dp67
g6
I48
sg7
I255
s(dp68
g6
I0
sg7
I2
s(dp69
g6
I1
sg7
I2
s(dp70
g6
I0
sg7
I1
s(dp71
g6
I1
sg7
I1
s(dp72
g6
I2
sg7
I1
s(dp73
g6
I3
sg7
I1
s(dp74
g6
I4
sg7
I1
s(dp75
g6
I5
sg7
I1
s(dp76
g6
I6
sg7
I1
stp77
sS'vHints'
p78
((I38
I76
t(I214
I72
t(I32
I76
t(I235
I76
t(I16
I73
ttp79
sS'hHints'
p80
((I-404
I64
t(I-225
I103
t(I-40
I64
t(I92
I64
t(I240
I64
t(I380
I65
t(I541
I65
ttp81
ss."
AnchorPoint: "top" 177 465 basechar 0
AnchorPoint: "bottom" 177 0 basechar 0
LayerCount: 2
Fore
SplineSet
369 541 m 257
 369 606 l 257
 -16 606 l 257
 -16 541 l 257
 214 541 l 257
 214 445 l 257
 160 445 l 258
 91 445 38 410 38 339 c 256
 38 286 66 240 152 240 c 258
 180 240 l 258
 203 240 235 238 235 205 c 256
 235 171 206 156 174 156 c 256
 139 156 108 173 108 214 c 258
 108 223 l 257
 32 223 l 257
 32 221 31 214 31 206 c 256
 31 176 44 147 74 125 c 257
 51 108 38 84 38 52 c 256
 38 5 66 -40 152 -40 c 258
 180 -40 l 258
 202 -40 235 -42 235 -74 c 256
 235 -106 207 -122 174 -122 c 256
 139 -122 108 -104 108 -66 c 258
 108 -57 l 257
 32 -57 l 257
 32 -59 31 -66 31 -74 c 256
 31 -112 49 -149 91 -170 c 257
 46 -188 16 -226 16 -281 c 256
 16 -359 81 -404 148 -404 c 256
 169 -404 189 -398 206 -389 c 257
 206 -329 l 257
 190 -335 172 -340 152 -340 c 256
 115 -340 89 -315 89 -282 c 256
 89 -251 111 -225 153 -225 c 256
 216 -225 255 -301 266 -404 c 257
 341 -404 l 257
 325 -273 284 -207 231 -178 c 257
 279 -163 311 -129 311 -72 c 256
 311 -19 282 24 192 24 c 258
 162 24 l 258
 145 24 114 27 114 55 c 256
 114 77 134 92 157 92 c 258
 171 92 l 258
 252 92 311 128 311 207 c 256
 311 261 282 304 192 304 c 258
 162 304 l 258
 145 304 114 308 114 339 c 256
 114 365 133 380 157 380 c 258
 286 380 l 257
 286 541 l 257
 369 541 l 257
EndSplineSet
EndChar

StartChar: dd_ddadeva
Encoding: 65548 -1 216
Width: 353
VWidth: 0
Flags: W
PickledData: "(dp1
S'org.robofab.postScriptHintData'
p2
(dp3
S'replaceTable'
p4
((dp5
S'index'
p6
I0
sS'type'
p7
I255
s(dp8
g6
I0
sg7
I2
s(dp9
g6
I1
sg7
I2
s(dp10
g6
I0
sg7
I1
s(dp11
g6
I1
sg7
I1
s(dp12
g6
I2
sg7
I1
s(dp13
g6
I3
sg7
I1
s(dp14
g6
I4
sg7
I1
s(dp15
g6
I5
sg7
I1
s(dp16
g6
I9
sg7
I255
s(dp17
g6
I2
sg7
I2
s(dp18
g6
I3
sg7
I2
s(dp19
g6
I0
sg7
I1
s(dp20
g6
I1
sg7
I1
s(dp21
g6
I2
sg7
I1
s(dp22
g6
I3
sg7
I1
s(dp23
g6
I4
sg7
I1
s(dp24
g6
I5
sg7
I1
s(dp25
g6
I17
sg7
I255
s(dp26
g6
I0
sg7
I2
s(dp27
g6
I3
sg7
I2
s(dp28
g6
I0
sg7
I1
s(dp29
g6
I1
sg7
I1
s(dp30
g6
I2
sg7
I1
s(dp31
g6
I3
sg7
I1
s(dp32
g6
I4
sg7
I1
s(dp33
g6
I5
sg7
I1
s(dp34
g6
I22
sg7
I255
s(dp35
g6
I2
sg7
I2
s(dp36
g6
I3
sg7
I2
s(dp37
g6
I0
sg7
I1
s(dp38
g6
I1
sg7
I1
s(dp39
g6
I2
sg7
I1
s(dp40
g6
I3
sg7
I1
s(dp41
g6
I4
sg7
I1
s(dp42
g6
I5
sg7
I1
s(dp43
g6
I29
sg7
I255
s(dp44
g6
I0
sg7
I2
s(dp45
g6
I3
sg7
I2
s(dp46
g6
I0
sg7
I1
s(dp47
g6
I1
sg7
I1
s(dp48
g6
I2
sg7
I1
s(dp49
g6
I3
sg7
I1
s(dp50
g6
I4
sg7
I1
s(dp51
g6
I5
sg7
I1
s(dp52
g6
I38
sg7
I255
s(dp53
g6
I0
sg7
I2
s(dp54
g6
I1
sg7
I2
s(dp55
g6
I0
sg7
I1
s(dp56
g6
I1
sg7
I1
s(dp57
g6
I2
sg7
I1
s(dp58
g6
I3
sg7
I1
s(dp59
g6
I4
sg7
I1
s(dp60
g6
I5
sg7
I1
stp61
sS'vHints'
p62
((I38
I76
t(I214
I72
t(I32
I76
t(I235
I76
ttp63
sS'hHints'
p64
((I-186
I64
t(I-40
I64
t(I92
I64
t(I240
I64
t(I380
I65
t(I541
I65
ttp65
ss."
AnchorPoint: "top" 250 606 basechar 0
AnchorPoint: "bottom" 173 -186 basechar 0
LayerCount: 2
Fore
SplineSet
369 541 m 257
 369 606 l 257
 -16 606 l 257
 -16 541 l 257
 214 541 l 257
 214 445 l 257
 160 445 l 258
 91 445 38 410 38 339 c 256
 38 286 66 240 152 240 c 258
 180 240 l 258
 203 240 235 238 235 205 c 256
 235 171 206 156 174 156 c 256
 139 156 108 173 108 214 c 258
 108 223 l 257
 32 223 l 257
 32 221 31 214 31 206 c 256
 31 176 44 147 74 125 c 257
 51 108 38 84 38 52 c 256
 38 5 66 -40 152 -40 c 258
 180 -40 l 258
 202 -40 235 -42 235 -74 c 256
 235 -106 207 -122 174 -122 c 256
 139 -122 108 -104 108 -66 c 258
 108 -57 l 257
 32 -57 l 257
 32 -59 31 -66 31 -74 c 256
 31 -131 71 -186 171 -186 c 256
 251 -186 311 -150 311 -72 c 256
 311 -19 282 24 192 24 c 258
 162 24 l 258
 145 24 114 27 114 55 c 256
 114 77 134 92 157 92 c 258
 171 92 l 258
 252 92 311 128 311 207 c 256
 311 261 282 304 192 304 c 258
 162 304 l 258
 145 304 114 308 114 339 c 256
 114 365 133 380 157 380 c 258
 286 380 l 257
 286 541 l 257
 369 541 l 257
EndSplineSet
EndChar

